solid urdf_camera_link. STL generated by ONSHAPE BY PTC INC, 1.219. Units = meters
   facet normal -0.24312 0 -0.969996
      outer loop
         vertex -0.0321618 -0.0954 0.101398
         vertex -0.0321618 -0.0984 0.101398
         vertex -0.0335891 -0.0984 0.101832
      endloop
   endfacet
   facet normal -0.338271 0 -0.941049
      outer loop
         vertex -0.0335891 -0.0954 0.101832
         vertex -0.0335891 -0.0984 0.101832
         vertex -0.0349662 -0.0984 0.102406
      endloop
   endfacet
   facet normal -0.430075 0 -0.902793
      outer loop
         vertex -0.0349662 -0.0954 0.102406
         vertex -0.0349662 -0.0984 0.102406
         vertex -0.0362794 -0.0984 0.103114
      endloop
   endfacet
   facet normal -0.517625 0 -0.855608
      outer loop
         vertex -0.0362794 -0.0954 0.103114
         vertex -0.0362794 -0.0984 0.103114
         vertex -0.0375159 -0.0984 0.103949
      endloop
   endfacet
   facet normal -0.600055 0 -0.799959
      outer loop
         vertex -0.0375159 -0.0954 0.103949
         vertex -0.0375159 -0.0984 0.103949
         vertex -0.0386633 -0.0984 0.104902
      endloop
   endfacet
   facet normal -0.67655 0 -0.736397
      outer loop
         vertex -0.0386633 -0.0954 0.104902
         vertex -0.0386633 -0.0984 0.104902
         vertex -0.0397103 -0.0984 0.105965
      endloop
   endfacet
   facet normal -0.746352 0 -0.665551
      outer loop
         vertex -0.0397103 -0.0954 0.105965
         vertex -0.0397103 -0.0984 0.105965
         vertex -0.0406466 -0.0984 0.107126
      endloop
   endfacet
   facet normal -0.808772 0 -0.588122
      outer loop
         vertex -0.0406466 -0.0954 0.107126
         vertex -0.0406466 -0.0984 0.107126
         vertex -0.0414629 -0.0984 0.108375
      endloop
   endfacet
   facet normal -0.863192 0 -0.504876
      outer loop
         vertex -0.0414629 -0.0954 0.108375
         vertex -0.0414629 -0.0984 0.108375
         vertex -0.0421511 -0.0984 0.109699
      endloop
   endfacet
   facet normal -0.909074 0 -0.416636
      outer loop
         vertex -0.0421511 -0.0954 0.109699
         vertex -0.0421511 -0.0984 0.109699
         vertex -0.0427045 -0.0984 0.111084
      endloop
   endfacet
   facet normal -0.945963 0 -0.324274
      outer loop
         vertex -0.0427045 -0.0954 0.111084
         vertex -0.0427045 -0.0984 0.111084
         vertex -0.0431175 -0.0984 0.112518
      endloop
   endfacet
   facet normal -0.973496 0 -0.228705
      outer loop
         vertex -0.0431175 -0.0984 0.112518
         vertex -0.0431175 -0.0954 0.112518
         vertex -0.0427045 -0.0954 0.111084
      endloop
   endfacet
   facet normal -0.945963 0 -0.324274
      outer loop
         vertex -0.0427045 -0.0984 0.111084
         vertex -0.0427045 -0.0954 0.111084
         vertex -0.0421511 -0.0954 0.109699
      endloop
   endfacet
   facet normal -0.909074 0 -0.416636
      outer loop
         vertex -0.0421511 -0.0984 0.109699
         vertex -0.0421511 -0.0954 0.109699
         vertex -0.0414629 -0.0954 0.108375
      endloop
   endfacet
   facet normal -0.863192 0 -0.504876
      outer loop
         vertex -0.0414629 -0.0984 0.108375
         vertex -0.0414629 -0.0954 0.108375
         vertex -0.0406466 -0.0954 0.107126
      endloop
   endfacet
   facet normal -0.808772 0 -0.588122
      outer loop
         vertex -0.0406466 -0.0984 0.107126
         vertex -0.0406466 -0.0954 0.107126
         vertex -0.0397103 -0.0954 0.105965
      endloop
   endfacet
   facet normal -0.746352 0 -0.665551
      outer loop
         vertex -0.0397103 -0.0984 0.105965
         vertex -0.0397103 -0.0954 0.105965
         vertex -0.0386633 -0.0954 0.104902
      endloop
   endfacet
   facet normal -0.67655 0 -0.736397
      outer loop
         vertex -0.0386633 -0.0984 0.104902
         vertex -0.0386633 -0.0954 0.104902
         vertex -0.0375159 -0.0954 0.103949
      endloop
   endfacet
   facet normal -0.600055 0 -0.799959
      outer loop
         vertex -0.0375159 -0.0984 0.103949
         vertex -0.0375159 -0.0954 0.103949
         vertex -0.0362794 -0.0954 0.103114
      endloop
   endfacet
   facet normal -0.517625 0 -0.855608
      outer loop
         vertex -0.0362794 -0.0984 0.103114
         vertex -0.0362794 -0.0954 0.103114
         vertex -0.0349662 -0.0954 0.102406
      endloop
   endfacet
   facet normal -0.430075 0 -0.902793
      outer loop
         vertex -0.0349662 -0.0984 0.102406
         vertex -0.0349662 -0.0954 0.102406
         vertex -0.0335891 -0.0954 0.101832
      endloop
   endfacet
   facet normal -0.338271 0 -0.941049
      outer loop
         vertex -0.0335891 -0.0984 0.101832
         vertex -0.0335891 -0.0954 0.101832
         vertex -0.0321618 -0.0954 0.101398
      endloop
   endfacet
   facet normal 0.24312 0 -0.969996
      outer loop
         vertex 0.0326618 -0.0954 0.101398
         vertex 0.0326618 -0.0984 0.101398
         vertex 0.0219793 -0.0984 0.099181
      endloop
   endfacet
   facet normal 0.162991 0 -0.986628
      outer loop
         vertex 0.0219793 -0.0954 0.099181
         vertex 0.0219793 -0.0984 0.099181
         vertex 0.0111511 -0.0984 0.0978447
      endloop
   endfacet
   facet normal 0.0817691 0 -0.996651
      outer loop
         vertex 0.0111511 -0.0954 0.0978447
         vertex 0.0111511 -0.0984 0.0978447
         vertex 0.00025 -0.0984 0.0973983
      endloop
   endfacet
   facet normal 1.22465e-16 0 -1
      outer loop
         vertex 0.00025 -0.0954 0.0973983
         vertex 0.00025 -0.0984 0.0973983
         vertex -0.0106511 -0.0984 0.0978447
      endloop
   endfacet
   facet normal -0.0817691 0 -0.996651
      outer loop
         vertex -0.0106511 -0.0954 0.0978447
         vertex -0.0106511 -0.0984 0.0978447
         vertex -0.0214793 -0.0984 0.099181
      endloop
   endfacet
   facet normal -0.162991 0 -0.986628
      outer loop
         vertex -0.0214793 -0.0954 0.099181
         vertex -0.0214793 -0.0984 0.099181
         vertex -0.0321618 -0.0984 0.101398
      endloop
   endfacet
   facet normal -0.24312 0 -0.969996
      outer loop
         vertex -0.0321618 -0.0984 0.101398
         vertex -0.0321618 -0.0954 0.101398
         vertex -0.0214793 -0.0954 0.099181
      endloop
   endfacet
   facet normal -0.162991 0 -0.986628
      outer loop
         vertex -0.0214793 -0.0984 0.099181
         vertex -0.0214793 -0.0954 0.099181
         vertex -0.0106511 -0.0954 0.0978447
      endloop
   endfacet
   facet normal -0.0817691 0 -0.996651
      outer loop
         vertex -0.0106511 -0.0984 0.0978447
         vertex -0.0106511 -0.0954 0.0978447
         vertex 0.00025 -0.0954 0.0973983
      endloop
   endfacet
   facet normal 1.22465e-16 0 -1
      outer loop
         vertex 0.00025 -0.0984 0.0973983
         vertex 0.00025 -0.0954 0.0973983
         vertex 0.0111511 -0.0954 0.0978447
      endloop
   endfacet
   facet normal 0.0817691 0 -0.996651
      outer loop
         vertex 0.0111511 -0.0984 0.0978447
         vertex 0.0111511 -0.0954 0.0978447
         vertex 0.0219793 -0.0954 0.099181
      endloop
   endfacet
   facet normal 0.162991 0 -0.986628
      outer loop
         vertex 0.0219793 -0.0984 0.099181
         vertex 0.0219793 -0.0954 0.099181
         vertex 0.0326618 -0.0954 0.101398
      endloop
   endfacet
   facet normal 0.973496 0 -0.228705
      outer loop
         vertex 0.0436175 -0.0954 0.112518
         vertex 0.0436175 -0.0984 0.112518
         vertex 0.0432045 -0.0984 0.111084
      endloop
   endfacet
   facet normal 0.945963 0 -0.324274
      outer loop
         vertex 0.0432045 -0.0954 0.111084
         vertex 0.0432045 -0.0984 0.111084
         vertex 0.0426511 -0.0984 0.109699
      endloop
   endfacet
   facet normal 0.909074 0 -0.416636
      outer loop
         vertex 0.0426511 -0.0954 0.109699
         vertex 0.0426511 -0.0984 0.109699
         vertex 0.0419629 -0.0984 0.108375
      endloop
   endfacet
   facet normal 0.863192 0 -0.504876
      outer loop
         vertex 0.0419629 -0.0954 0.108375
         vertex 0.0419629 -0.0984 0.108375
         vertex 0.0411466 -0.0984 0.107126
      endloop
   endfacet
   facet normal 0.808772 0 -0.588122
      outer loop
         vertex 0.0411466 -0.0954 0.107126
         vertex 0.0411466 -0.0984 0.107126
         vertex 0.0402103 -0.0984 0.105965
      endloop
   endfacet
   facet normal 0.746352 0 -0.665551
      outer loop
         vertex 0.0402103 -0.0954 0.105965
         vertex 0.0402103 -0.0984 0.105965
         vertex 0.0391633 -0.0984 0.104902
      endloop
   endfacet
   facet normal 0.67655 0 -0.736397
      outer loop
         vertex 0.0391633 -0.0954 0.104902
         vertex 0.0391633 -0.0984 0.104902
         vertex 0.0380159 -0.0984 0.103949
      endloop
   endfacet
   facet normal 0.600055 0 -0.799959
      outer loop
         vertex 0.0380159 -0.0954 0.103949
         vertex 0.0380159 -0.0984 0.103949
         vertex 0.0367794 -0.0984 0.103114
      endloop
   endfacet
   facet normal 0.517625 0 -0.855608
      outer loop
         vertex 0.0367794 -0.0954 0.103114
         vertex 0.0367794 -0.0984 0.103114
         vertex 0.0354662 -0.0984 0.102406
      endloop
   endfacet
   facet normal 0.430075 0 -0.902793
      outer loop
         vertex 0.0354662 -0.0954 0.102406
         vertex 0.0354662 -0.0984 0.102406
         vertex 0.0340891 -0.0984 0.101832
      endloop
   endfacet
   facet normal 0.338271 0 -0.941049
      outer loop
         vertex 0.0340891 -0.0954 0.101832
         vertex 0.0340891 -0.0984 0.101832
         vertex 0.0326618 -0.0984 0.101398
      endloop
   endfacet
   facet normal 0.24312 0 -0.969996
      outer loop
         vertex 0.0326618 -0.0984 0.101398
         vertex 0.0326618 -0.0954 0.101398
         vertex 0.0340891 -0.0954 0.101832
      endloop
   endfacet
   facet normal 0.338271 0 -0.941049
      outer loop
         vertex 0.0340891 -0.0984 0.101832
         vertex 0.0340891 -0.0954 0.101832
         vertex 0.0354662 -0.0954 0.102406
      endloop
   endfacet
   facet normal 0.430075 0 -0.902793
      outer loop
         vertex 0.0354662 -0.0984 0.102406
         vertex 0.0354662 -0.0954 0.102406
         vertex 0.0367794 -0.0954 0.103114
      endloop
   endfacet
   facet normal 0.517625 0 -0.855608
      outer loop
         vertex 0.0367794 -0.0984 0.103114
         vertex 0.0367794 -0.0954 0.103114
         vertex 0.0380159 -0.0954 0.103949
      endloop
   endfacet
   facet normal 0.600055 0 -0.799959
      outer loop
         vertex 0.0380159 -0.0984 0.103949
         vertex 0.0380159 -0.0954 0.103949
         vertex 0.0391633 -0.0954 0.104902
      endloop
   endfacet
   facet normal 0.67655 0 -0.736397
      outer loop
         vertex 0.0391633 -0.0984 0.104902
         vertex 0.0391633 -0.0954 0.104902
         vertex 0.0402103 -0.0954 0.105965
      endloop
   endfacet
   facet normal 0.746352 0 -0.665551
      outer loop
         vertex 0.0402103 -0.0984 0.105965
         vertex 0.0402103 -0.0954 0.105965
         vertex 0.0411466 -0.0954 0.107126
      endloop
   endfacet
   facet normal 0.808772 0 -0.588122
      outer loop
         vertex 0.0411466 -0.0984 0.107126
         vertex 0.0411466 -0.0954 0.107126
         vertex 0.0419629 -0.0954 0.108375
      endloop
   endfacet
   facet normal 0.863192 0 -0.504876
      outer loop
         vertex 0.0419629 -0.0984 0.108375
         vertex 0.0419629 -0.0954 0.108375
         vertex 0.0426511 -0.0954 0.109699
      endloop
   endfacet
   facet normal 0.909074 0 -0.416636
      outer loop
         vertex 0.0426511 -0.0984 0.109699
         vertex 0.0426511 -0.0954 0.109699
         vertex 0.0432045 -0.0954 0.111084
      endloop
   endfacet
   facet normal 0.945963 0 -0.324274
      outer loop
         vertex 0.0432045 -0.0984 0.111084
         vertex 0.0432045 -0.0954 0.111084
         vertex 0.0436175 -0.0954 0.112518
      endloop
   endfacet
   facet normal 0 -1 0
      outer loop
         vertex 0.0415879 -0.0984 0.117778
         vertex 0.04306 -0.0984 0.116196
         vertex 0.042759 -0.0984 0.116649
      endloop
   endfacet
   facet normal 0 -1 0
      outer loop
         vertex 0.0415879 -0.0984 0.117778
         vertex 0.0436454 -0.0984 0.114678
         vertex 0.0435059 -0.0984 0.115204
      endloop
   endfacet
   facet normal 0 -1 0
      outer loop
         vertex 0.0436454 -0.0984 0.114678
         vertex 0.0411237 -0.0984 0.118062
         vertex 0.0406313 -0.0984 0.118294
      endloop
   endfacet
   facet normal 0 -1 0
      outer loop
         vertex 0.042759 -0.0984 0.116649
         vertex 0.0424104 -0.0984 0.117067
         vertex 0.0415879 -0.0984 0.117778
      endloop
   endfacet
   facet normal 0 -1 0
      outer loop
         vertex 0.0435059 -0.0984 0.115204
         vertex 0.0433099 -0.0984 0.115712
         vertex 0.0415879 -0.0984 0.117778
      endloop
   endfacet
   facet normal 0 -1 0
      outer loop
         vertex -0.0430059 -0.0984 0.115204
         vertex -0.0432496 -0.0984 0.113597
         vertex -0.0432129 -0.0984 0.113053
      endloop
   endfacet
   facet normal 0 -1 0
      outer loop
         vertex -0.0430059 -0.0984 0.115204
         vertex -0.0431454 -0.0984 0.114678
         vertex -0.043227 -0.0984 0.11414
      endloop
   endfacet
   facet normal 0 -1 0
      outer loop
         vertex -0.0431175 -0.0984 0.112518
         vertex -0.0419104 -0.0984 0.117067
         vertex -0.042259 -0.0984 0.116649
      endloop
   endfacet
   facet normal 0 -1 0
      outer loop
         vertex -0.0431175 -0.0984 0.112518
         vertex -0.0410879 -0.0984 0.117778
         vertex -0.0415185 -0.0984 0.117445
      endloop
   endfacet
   facet normal 0 -1 0
      outer loop
         vertex 0.0436454 -0.0984 0.114678
         vertex 0.0415879 -0.0984 0.117778
         vertex 0.0411237 -0.0984 0.118062
      endloop
   endfacet
   facet normal 0 -1 0
      outer loop
         vertex 0.0433099 -0.0984 0.115712
         vertex 0.04306 -0.0984 0.116196
         vertex 0.0415879 -0.0984 0.117778
      endloop
   endfacet
   facet normal 0 -1 0
      outer loop
         vertex 0.0401166 -0.0984 0.118471
         vertex 0.0437496 -0.0984 0.113597
         vertex 0.043727 -0.0984 0.11414
      endloop
   endfacet
   facet normal 0 -1 0
      outer loop
         vertex 0.0401166 -0.0984 0.118471
         vertex 0.0436175 -0.0984 0.112518
         vertex 0.0437129 -0.0984 0.113053
      endloop
   endfacet
   facet normal 0 -1 0
      outer loop
         vertex -0.043227 -0.0984 0.11414
         vertex -0.0432496 -0.0984 0.113597
         vertex -0.0430059 -0.0984 0.115204
      endloop
   endfacet
   facet normal 0 -1 0
      outer loop
         vertex -0.0431175 -0.0984 0.112518
         vertex -0.04256 -0.0984 0.116196
         vertex -0.0428099 -0.0984 0.115712
      endloop
   endfacet
   facet normal 0 -1 0
      outer loop
         vertex -0.0415185 -0.0984 0.117445
         vertex -0.0419104 -0.0984 0.117067
         vertex -0.0431175 -0.0984 0.112518
      endloop
   endfacet
   facet normal 0 -1 0
      outer loop
         vertex 0.0436175 -0.0984 0.112518
         vertex 0.0401166 -0.0984 0.118471
         vertex 0.0395858 -0.0984 0.118591
      endloop
   endfacet
   facet normal 0 -1 0
      outer loop
         vertex 0.0424104 -0.0984 0.117067
         vertex 0.0420185 -0.0984 0.117445
         vertex 0.0415879 -0.0984 0.117778
      endloop
   endfacet
   facet normal 0 -1 0
      outer loop
         vertex 0.0437129 -0.0984 0.113053
         vertex 0.0437496 -0.0984 0.113597
         vertex 0.0401166 -0.0984 0.118471
      endloop
   endfacet
   facet normal 0 -1 0
      outer loop
         vertex -0.0428099 -0.0984 0.115712
         vertex -0.0430059 -0.0984 0.115204
         vertex -0.0431175 -0.0984 0.112518
      endloop
   endfacet
   facet normal 0 -1 0
      outer loop
         vertex -0.0431175 -0.0984 0.112518
         vertex -0.0406237 -0.0984 0.118062
         vertex -0.0410879 -0.0984 0.117778
      endloop
   endfacet
   facet normal 0 -1 0
      outer loop
         vertex 0.0395858 -0.0984 0.118591
         vertex 0.039045 -0.0984 0.118652
         vertex 0.0436175 -0.0984 0.112518
      endloop
   endfacet
   facet normal 0 -1 0
      outer loop
         vertex 0.043727 -0.0984 0.11414
         vertex 0.0436454 -0.0984 0.114678
         vertex 0.0401166 -0.0984 0.118471
      endloop
   endfacet
   facet normal 0 -1 0
      outer loop
         vertex -0.042259 -0.0984 0.116649
         vertex -0.04256 -0.0984 0.116196
         vertex -0.0431175 -0.0984 0.112518
      endloop
   endfacet
   facet normal 0 -1 0
      outer loop
         vertex -0.0431175 -0.0984 0.112518
         vertex -0.0396166 -0.0984 0.118471
         vertex -0.0401313 -0.0984 0.118294
      endloop
   endfacet
   facet normal 0 -1 0
      outer loop
         vertex -0.0431175 -0.0984 0.112518
         vertex -0.038545 -0.0984 0.118652
         vertex -0.0390858 -0.0984 0.118591
      endloop
   endfacet
   facet normal 0 -1 0
      outer loop
         vertex 0.0406313 -0.0984 0.118294
         vertex 0.0401166 -0.0984 0.118471
         vertex 0.0436454 -0.0984 0.114678
      endloop
   endfacet
   facet normal 0 -1 0
      outer loop
         vertex -0.0401313 -0.0984 0.118294
         vertex -0.0406237 -0.0984 0.118062
         vertex -0.0431175 -0.0984 0.112518
      endloop
   endfacet
   facet normal 0 -1 0
      outer loop
         vertex -0.0431175 -0.0984 0.112518
         vertex -0.0380008 -0.0984 0.118655
         vertex -0.038545 -0.0984 0.118652
      endloop
   endfacet
   facet normal 0 -1 0
      outer loop
         vertex 0.0254485 -0.0984 0.116933
         vertex 0.0340891 -0.0984 0.101832
         vertex 0.0354662 -0.0984 0.102406
      endloop
   endfacet
   facet normal 0 -1 0
      outer loop
         vertex 0.039045 -0.0984 0.118652
         vertex 0.0385008 -0.0984 0.118655
         vertex 0.0436175 -0.0984 0.112518
      endloop
   endfacet
   facet normal 0 -1 0
      outer loop
         vertex -0.0390858 -0.0984 0.118591
         vertex -0.0396166 -0.0984 0.118471
         vertex -0.0431175 -0.0984 0.112518
      endloop
   endfacet
   facet normal 0 -1 0
      outer loop
         vertex -0.0249485 -0.0984 0.116933
         vertex -0.0374594 -0.0984 0.118598
         vertex -0.0386633 -0.0984 0.104902
      endloop
   endfacet
   facet normal 0 -1 0
      outer loop
         vertex 0.0254485 -0.0984 0.116933
         vertex 0.0380159 -0.0984 0.103949
         vertex 0.0391633 -0.0984 0.104902
      endloop
   endfacet
   facet normal 0 -1 0
      outer loop
         vertex 0.0354662 -0.0984 0.102406
         vertex 0.0367794 -0.0984 0.103114
         vertex 0.0254485 -0.0984 0.116933
      endloop
   endfacet
   facet normal 0 -1 0
      outer loop
         vertex 0.0379594 -0.0984 0.118598
         vertex 0.0432045 -0.0984 0.111084
         vertex 0.0436175 -0.0984 0.112518
      endloop
   endfacet
   facet normal 0 -1 0
      outer loop
         vertex 0.0379594 -0.0984 0.118598
         vertex 0.0411466 -0.0984 0.107126
         vertex 0.0419629 -0.0984 0.108375
      endloop
   endfacet
   facet normal 0 -1 0
      outer loop
         vertex -0.0431175 -0.0984 0.112518
         vertex -0.0374594 -0.0984 0.118598
         vertex -0.0380008 -0.0984 0.118655
      endloop
   endfacet
   facet normal 0 -1 0
      outer loop
         vertex -0.0386633 -0.0984 0.104902
         vertex -0.0375159 -0.0984 0.103949
         vertex -0.0249485 -0.0984 0.116933
      endloop
   endfacet
   facet normal 0 -1 0
      outer loop
         vertex -0.0123669 -0.0984 0.115932
         vertex -0.0249485 -0.0984 0.116933
         vertex -0.0214793 -0.0984 0.099181
      endloop
   endfacet
   facet normal 0 -1 0
      outer loop
         vertex 0.00025 -0.0984 0.115598
         vertex -0.0123669 -0.0984 0.115932
         vertex -0.0106511 -0.0984 0.0978447
      endloop
   endfacet
   facet normal 0 -1 0
      outer loop
         vertex 0.0367794 -0.0984 0.103114
         vertex 0.0380159 -0.0984 0.103949
         vertex 0.0254485 -0.0984 0.116933
      endloop
   endfacet
   facet normal 0 -1 0
      outer loop
         vertex 0.0379594 -0.0984 0.118598
         vertex 0.0426511 -0.0984 0.109699
         vertex 0.0432045 -0.0984 0.111084
      endloop
   endfacet
   facet normal 0 -1 0
      outer loop
         vertex 0.0379594 -0.0984 0.118598
         vertex 0.0402103 -0.0984 0.105965
         vertex 0.0411466 -0.0984 0.107126
      endloop
   endfacet
   facet normal 0 -1 0
      outer loop
         vertex -0.0374594 -0.0984 0.118598
         vertex -0.0406466 -0.0984 0.107126
         vertex -0.0397103 -0.0984 0.105965
      endloop
   endfacet
   facet normal 0 -1 0
      outer loop
         vertex -0.0374594 -0.0984 0.118598
         vertex -0.0427045 -0.0984 0.111084
         vertex -0.0421511 -0.0984 0.109699
      endloop
   endfacet
   facet normal 0 -1 0
      outer loop
         vertex -0.0432129 -0.0984 0.113053
         vertex -0.0431175 -0.0984 0.112518
         vertex -0.0430059 -0.0984 0.115204
      endloop
   endfacet
   facet normal 0 -1 0
      outer loop
         vertex -0.0249485 -0.0984 0.116933
         vertex -0.0349662 -0.0984 0.102406
         vertex -0.0335891 -0.0984 0.101832
      endloop
   endfacet
   facet normal 0 -1 0
      outer loop
         vertex -0.0375159 -0.0984 0.103949
         vertex -0.0362794 -0.0984 0.103114
         vertex -0.0249485 -0.0984 0.116933
      endloop
   endfacet
   facet normal 0 -1 0
      outer loop
         vertex -0.0106511 -0.0984 0.0978447
         vertex 0.00025 -0.0984 0.0973983
         vertex 0.00025 -0.0984 0.115598
      endloop
   endfacet
   facet normal 0 -1 0
      outer loop
         vertex 0.00025 -0.0984 0.115598
         vertex 0.00025 -0.0984 0.0973983
         vertex 0.0111511 -0.0984 0.0978447
      endloop
   endfacet
   facet normal 0 -1 0
      outer loop
         vertex 0.0254485 -0.0984 0.116933
         vertex 0.0326618 -0.0984 0.101398
         vertex 0.0340891 -0.0984 0.101832
      endloop
   endfacet
   facet normal 0 -1 0
      outer loop
         vertex 0.0419629 -0.0984 0.108375
         vertex 0.0426511 -0.0984 0.109699
         vertex 0.0379594 -0.0984 0.118598
      endloop
   endfacet
   facet normal 0 -1 0
      outer loop
         vertex -0.0374594 -0.0984 0.118598
         vertex -0.0414629 -0.0984 0.108375
         vertex -0.0406466 -0.0984 0.107126
      endloop
   endfacet
   facet normal 0 -1 0
      outer loop
         vertex -0.0431175 -0.0984 0.112518
         vertex -0.0427045 -0.0984 0.111084
         vertex -0.0374594 -0.0984 0.118598
      endloop
   endfacet
   facet normal 0 -1 0
      outer loop
         vertex -0.0362794 -0.0984 0.103114
         vertex -0.0349662 -0.0984 0.102406
         vertex -0.0249485 -0.0984 0.116933
      endloop
   endfacet
   facet normal 0 -1 0
      outer loop
         vertex 0.0111511 -0.0984 0.0978447
         vertex 0.0128669 -0.0984 0.115932
         vertex 0.00025 -0.0984 0.115598
      endloop
   endfacet
   facet normal 0 -1 0
      outer loop
         vertex 0.0128669 -0.0984 0.115932
         vertex 0.0111511 -0.0984 0.0978447
         vertex 0.0219793 -0.0984 0.099181
      endloop
   endfacet
   facet normal 0 -1 0
      outer loop
         vertex 0.0254485 -0.0984 0.116933
         vertex 0.0219793 -0.0984 0.099181
         vertex 0.0326618 -0.0984 0.101398
      endloop
   endfacet
   facet normal 0 -1 0
      outer loop
         vertex 0.0379594 -0.0984 0.118598
         vertex 0.0391633 -0.0984 0.104902
         vertex 0.0402103 -0.0984 0.105965
      endloop
   endfacet
   facet normal 0 -1 0
      outer loop
         vertex -0.0421511 -0.0984 0.109699
         vertex -0.0414629 -0.0984 0.108375
         vertex -0.0374594 -0.0984 0.118598
      endloop
   endfacet
   facet normal 0 -1 0
      outer loop
         vertex -0.0335891 -0.0984 0.101832
         vertex -0.0321618 -0.0984 0.101398
         vertex -0.0249485 -0.0984 0.116933
      endloop
   endfacet
   facet normal 0 -1 0
      outer loop
         vertex 0.0219793 -0.0984 0.099181
         vertex 0.0254485 -0.0984 0.116933
         vertex 0.0128669 -0.0984 0.115932
      endloop
   endfacet
   facet normal 0 -1 0
      outer loop
         vertex 0.0385008 -0.0984 0.118655
         vertex 0.0379594 -0.0984 0.118598
         vertex 0.0436175 -0.0984 0.112518
      endloop
   endfacet
   facet normal 0 -1 0
      outer loop
         vertex -0.0321618 -0.0984 0.101398
         vertex -0.0214793 -0.0984 0.099181
         vertex -0.0249485 -0.0984 0.116933
      endloop
   endfacet
   facet normal 0 -1 0
      outer loop
         vertex 0.0391633 -0.0984 0.104902
         vertex 0.0379594 -0.0984 0.118598
         vertex 0.0254485 -0.0984 0.116933
      endloop
   endfacet
   facet normal 0 -1 0
      outer loop
         vertex -0.0214793 -0.0984 0.099181
         vertex -0.0106511 -0.0984 0.0978447
         vertex -0.0123669 -0.0984 0.115932
      endloop
   endfacet
   facet normal 0 -1 0
      outer loop
         vertex -0.0397103 -0.0984 0.105965
         vertex -0.0386633 -0.0984 0.104902
         vertex -0.0374594 -0.0984 0.118598
      endloop
   endfacet
   facet normal 0 1 0
      outer loop
         vertex 0.0415879 -0.0954 0.117778
         vertex 0.0433099 -0.0954 0.115712
         vertex 0.0435059 -0.0954 0.115204
      endloop
   endfacet
   facet normal 0 1 0
      outer loop
         vertex 0.0415879 -0.0954 0.117778
         vertex 0.0424104 -0.0954 0.117067
         vertex 0.042759 -0.0954 0.116649
      endloop
   endfacet
   facet normal 0 1 0
      outer loop
         vertex 0.0415879 -0.0954 0.117778
         vertex 0.04306 -0.0954 0.116196
         vertex 0.0433099 -0.0954 0.115712
      endloop
   endfacet
   facet normal 0 1 0
      outer loop
         vertex 0.0415879 -0.0954 0.117778
         vertex 0.0420185 -0.0954 0.117445
         vertex 0.0424104 -0.0954 0.117067
      endloop
   endfacet
   facet normal 0 1 0
      outer loop
         vertex 0.0436454 -0.0954 0.114678
         vertex 0.0401166 -0.0954 0.118471
         vertex 0.0406313 -0.0954 0.118294
      endloop
   endfacet
   facet normal 0 1 0
      outer loop
         vertex 0.0401166 -0.0954 0.118471
         vertex 0.0436454 -0.0954 0.114678
         vertex 0.043727 -0.0954 0.11414
      endloop
   endfacet
   facet normal 0 1 0
      outer loop
         vertex 0.042759 -0.0954 0.116649
         vertex 0.04306 -0.0954 0.116196
         vertex 0.0415879 -0.0954 0.117778
      endloop
   endfacet
   facet normal 0 1 0
      outer loop
         vertex 0.0406313 -0.0954 0.118294
         vertex 0.0411237 -0.0954 0.118062
         vertex 0.0436454 -0.0954 0.114678
      endloop
   endfacet
   facet normal 0 1 0
      outer loop
         vertex 0.043727 -0.0954 0.11414
         vertex 0.0437496 -0.0954 0.113597
         vertex 0.0401166 -0.0954 0.118471
      endloop
   endfacet
   facet normal 0 1 0
      outer loop
         vertex 0.0411237 -0.0954 0.118062
         vertex 0.0415879 -0.0954 0.117778
         vertex 0.0436454 -0.0954 0.114678
      endloop
   endfacet
   facet normal 0 1 0
      outer loop
         vertex 0.0437129 -0.0954 0.113053
         vertex 0.039045 -0.0954 0.118652
         vertex 0.0395858 -0.0954 0.118591
      endloop
   endfacet
   facet normal 0 1 0
      outer loop
         vertex 0.0437129 -0.0954 0.113053
         vertex 0.0379594 -0.0954 0.118598
         vertex 0.0385008 -0.0954 0.118655
      endloop
   endfacet
   facet normal 0 1 0
      outer loop
         vertex 0.0435059 -0.0954 0.115204
         vertex 0.0436454 -0.0954 0.114678
         vertex 0.0415879 -0.0954 0.117778
      endloop
   endfacet
   facet normal 0 1 0
      outer loop
         vertex 0.0385008 -0.0954 0.118655
         vertex 0.039045 -0.0954 0.118652
         vertex 0.0437129 -0.0954 0.113053
      endloop
   endfacet
   facet normal 0 1 0
      outer loop
         vertex -0.0431175 -0.0954 0.112518
         vertex -0.0419104 -0.0954 0.117067
         vertex -0.0415185 -0.0954 0.117445
      endloop
   endfacet
   facet normal 0 1 0
      outer loop
         vertex -0.0431175 -0.0954 0.112518
         vertex -0.04256 -0.0954 0.116196
         vertex -0.042259 -0.0954 0.116649
      endloop
   endfacet
   facet normal 0 1 0
      outer loop
         vertex -0.0432496 -0.0954 0.113597
         vertex -0.0430059 -0.0954 0.115204
         vertex -0.0428099 -0.0954 0.115712
      endloop
   endfacet
   facet normal 0 1 0
      outer loop
         vertex -0.0430059 -0.0954 0.115204
         vertex -0.0432496 -0.0954 0.113597
         vertex -0.043227 -0.0954 0.11414
      endloop
   endfacet
   facet normal 0 1 0
      outer loop
         vertex 0.0395858 -0.0954 0.118591
         vertex 0.0401166 -0.0954 0.118471
         vertex 0.0437129 -0.0954 0.113053
      endloop
   endfacet
   facet normal 0 1 0
      outer loop
         vertex -0.042259 -0.0954 0.116649
         vertex -0.0419104 -0.0954 0.117067
         vertex -0.0431175 -0.0954 0.112518
      endloop
   endfacet
   facet normal 0 1 0
      outer loop
         vertex -0.043227 -0.0954 0.11414
         vertex -0.0431454 -0.0954 0.114678
         vertex -0.0430059 -0.0954 0.115204
      endloop
   endfacet
   facet normal 0 1 0
      outer loop
         vertex -0.04256 -0.0954 0.116196
         vertex -0.0431175 -0.0954 0.112518
         vertex -0.0432129 -0.0954 0.113053
      endloop
   endfacet
   facet normal 0 1 0
      outer loop
         vertex 0.0437496 -0.0954 0.113597
         vertex 0.0437129 -0.0954 0.113053
         vertex 0.0401166 -0.0954 0.118471
      endloop
   endfacet
   facet normal 0 1 0
      outer loop
         vertex 0.0254485 -0.0954 0.116933
         vertex 0.0354662 -0.0954 0.102406
         vertex 0.0340891 -0.0954 0.101832
      endloop
   endfacet
   facet normal 0 1 0
      outer loop
         vertex -0.0415185 -0.0954 0.117445
         vertex -0.0410879 -0.0954 0.117778
         vertex -0.0431175 -0.0954 0.112518
      endloop
   endfacet
   facet normal 0 1 0
      outer loop
         vertex -0.0432129 -0.0954 0.113053
         vertex -0.0432496 -0.0954 0.113597
         vertex -0.04256 -0.0954 0.116196
      endloop
   endfacet
   facet normal 0 1 0
      outer loop
         vertex 0.0379594 -0.0954 0.118598
         vertex 0.0426511 -0.0954 0.109699
         vertex 0.0419629 -0.0954 0.108375
      endloop
   endfacet
   facet normal 0 1 0
      outer loop
         vertex 0.0437129 -0.0954 0.113053
         vertex 0.0436175 -0.0954 0.112518
         vertex 0.0379594 -0.0954 0.118598
      endloop
   endfacet
   facet normal 0 1 0
      outer loop
         vertex 0.0254485 -0.0954 0.116933
         vertex 0.0367794 -0.0954 0.103114
         vertex 0.0354662 -0.0954 0.102406
      endloop
   endfacet
   facet normal 0 1 0
      outer loop
         vertex -0.0431175 -0.0954 0.112518
         vertex -0.0396166 -0.0954 0.118471
         vertex -0.0390858 -0.0954 0.118591
      endloop
   endfacet
   facet normal 0 1 0
      outer loop
         vertex -0.0431175 -0.0954 0.112518
         vertex -0.0406237 -0.0954 0.118062
         vertex -0.0401313 -0.0954 0.118294
      endloop
   endfacet
   facet normal 0 1 0
      outer loop
         vertex -0.0428099 -0.0954 0.115712
         vertex -0.04256 -0.0954 0.116196
         vertex -0.0432496 -0.0954 0.113597
      endloop
   endfacet
   facet normal 0 1 0
      outer loop
         vertex 0.0419629 -0.0954 0.108375
         vertex 0.0411466 -0.0954 0.107126
         vertex 0.0379594 -0.0954 0.118598
      endloop
   endfacet
   facet normal 0 1 0
      outer loop
         vertex 0.0436175 -0.0954 0.112518
         vertex 0.0432045 -0.0954 0.111084
         vertex 0.0379594 -0.0954 0.118598
      endloop
   endfacet
   facet normal 0 1 0
      outer loop
         vertex 0.0254485 -0.0954 0.116933
         vertex 0.0380159 -0.0954 0.103949
         vertex 0.0367794 -0.0954 0.103114
      endloop
   endfacet
   facet normal 0 1 0
      outer loop
         vertex 0.0254485 -0.0954 0.116933
         vertex 0.0379594 -0.0954 0.118598
         vertex 0.0391633 -0.0954 0.104902
      endloop
   endfacet
   facet normal 0 1 0
      outer loop
         vertex -0.0390858 -0.0954 0.118591
         vertex -0.038545 -0.0954 0.118652
         vertex -0.0431175 -0.0954 0.112518
      endloop
   endfacet
   facet normal 0 1 0
      outer loop
         vertex -0.0410879 -0.0954 0.117778
         vertex -0.0406237 -0.0954 0.118062
         vertex -0.0431175 -0.0954 0.112518
      endloop
   endfacet
   facet normal 0 1 0
      outer loop
         vertex 0.0432045 -0.0954 0.111084
         vertex 0.0426511 -0.0954 0.109699
         vertex 0.0379594 -0.0954 0.118598
      endloop
   endfacet
   facet normal 0 1 0
      outer loop
         vertex 0.0391633 -0.0954 0.104902
         vertex 0.0380159 -0.0954 0.103949
         vertex 0.0254485 -0.0954 0.116933
      endloop
   endfacet
   facet normal 0 1 0
      outer loop
         vertex -0.0249485 -0.0954 0.116933
         vertex -0.0375159 -0.0954 0.103949
         vertex -0.0386633 -0.0954 0.104902
      endloop
   endfacet
   facet normal 0 1 0
      outer loop
         vertex -0.0401313 -0.0954 0.118294
         vertex -0.0396166 -0.0954 0.118471
         vertex -0.0431175 -0.0954 0.112518
      endloop
   endfacet
   facet normal 0 1 0
      outer loop
         vertex 0.0411466 -0.0954 0.107126
         vertex 0.0402103 -0.0954 0.105965
         vertex 0.0379594 -0.0954 0.118598
      endloop
   endfacet
   facet normal 0 1 0
      outer loop
         vertex 0.0340891 -0.0954 0.101832
         vertex 0.0326618 -0.0954 0.101398
         vertex 0.0254485 -0.0954 0.116933
      endloop
   endfacet
   facet normal 0 1 0
      outer loop
         vertex -0.0249485 -0.0954 0.116933
         vertex -0.0362794 -0.0954 0.103114
         vertex -0.0375159 -0.0954 0.103949
      endloop
   endfacet
   facet normal 0 1 0
      outer loop
         vertex -0.038545 -0.0954 0.118652
         vertex -0.0380008 -0.0954 0.118655
         vertex -0.0431175 -0.0954 0.112518
      endloop
   endfacet
   facet normal 0 1 0
      outer loop
         vertex 0.0326618 -0.0954 0.101398
         vertex 0.0219793 -0.0954 0.099181
         vertex 0.0254485 -0.0954 0.116933
      endloop
   endfacet
   facet normal 0 1 0
      outer loop
         vertex 0.0128669 -0.0954 0.115932
         vertex 0.0254485 -0.0954 0.116933
         vertex 0.0219793 -0.0954 0.099181
      endloop
   endfacet
   facet normal 0 1 0
      outer loop
         vertex -0.0249485 -0.0954 0.116933
         vertex -0.0349662 -0.0954 0.102406
         vertex -0.0362794 -0.0954 0.103114
      endloop
   endfacet
   facet normal 0 1 0
      outer loop
         vertex -0.0249485 -0.0954 0.116933
         vertex -0.0321618 -0.0954 0.101398
         vertex -0.0335891 -0.0954 0.101832
      endloop
   endfacet
   facet normal 0 1 0
      outer loop
         vertex -0.0374594 -0.0954 0.118598
         vertex -0.0427045 -0.0954 0.111084
         vertex -0.0431175 -0.0954 0.112518
      endloop
   endfacet
   facet normal 0 1 0
      outer loop
         vertex -0.0374594 -0.0954 0.118598
         vertex -0.0414629 -0.0954 0.108375
         vertex -0.0421511 -0.0954 0.109699
      endloop
   endfacet
   facet normal 0 1 0
      outer loop
         vertex -0.0374594 -0.0954 0.118598
         vertex -0.0386633 -0.0954 0.104902
         vertex -0.0397103 -0.0954 0.105965
      endloop
   endfacet
   facet normal 0 1 0
      outer loop
         vertex 0.0219793 -0.0954 0.099181
         vertex 0.0111511 -0.0954 0.0978447
         vertex 0.0128669 -0.0954 0.115932
      endloop
   endfacet
   facet normal 0 1 0
      outer loop
         vertex 0.00025 -0.0954 0.115598
         vertex 0.0128669 -0.0954 0.115932
         vertex 0.0111511 -0.0954 0.0978447
      endloop
   endfacet
   facet normal 0 1 0
      outer loop
         vertex 0.00025 -0.0954 0.115598
         vertex 0.00025 -0.0954 0.0973983
         vertex -0.0106511 -0.0954 0.0978447
      endloop
   endfacet
   facet normal 0 1 0
      outer loop
         vertex -0.0123669 -0.0954 0.115932
         vertex -0.0106511 -0.0954 0.0978447
         vertex -0.0214793 -0.0954 0.099181
      endloop
   endfacet
   facet normal 0 1 0
      outer loop
         vertex -0.0335891 -0.0954 0.101832
         vertex -0.0349662 -0.0954 0.102406
         vertex -0.0249485 -0.0954 0.116933
      endloop
   endfacet
   facet normal 0 1 0
      outer loop
         vertex -0.0421511 -0.0954 0.109699
         vertex -0.0427045 -0.0954 0.111084
         vertex -0.0374594 -0.0954 0.118598
      endloop
   endfacet
   facet normal 0 1 0
      outer loop
         vertex -0.0397103 -0.0954 0.105965
         vertex -0.0406466 -0.0954 0.107126
         vertex -0.0374594 -0.0954 0.118598
      endloop
   endfacet
   facet normal 0 1 0
      outer loop
         vertex 0.0111511 -0.0954 0.0978447
         vertex 0.00025 -0.0954 0.0973983
         vertex 0.00025 -0.0954 0.115598
      endloop
   endfacet
   facet normal 0 1 0
      outer loop
         vertex -0.0214793 -0.0954 0.099181
         vertex -0.0249485 -0.0954 0.116933
         vertex -0.0123669 -0.0954 0.115932
      endloop
   endfacet
   facet normal 0 1 0
      outer loop
         vertex -0.0249485 -0.0954 0.116933
         vertex -0.0214793 -0.0954 0.099181
         vertex -0.0321618 -0.0954 0.101398
      endloop
   endfacet
   facet normal 0 1 0
      outer loop
         vertex -0.0406466 -0.0954 0.107126
         vertex -0.0414629 -0.0954 0.108375
         vertex -0.0374594 -0.0954 0.118598
      endloop
   endfacet
   facet normal 0 1 0
      outer loop
         vertex -0.0106511 -0.0954 0.0978447
         vertex -0.0123669 -0.0954 0.115932
         vertex 0.00025 -0.0954 0.115598
      endloop
   endfacet
   facet normal 0 1 0
      outer loop
         vertex -0.0380008 -0.0954 0.118655
         vertex -0.0374594 -0.0954 0.118598
         vertex -0.0431175 -0.0954 0.112518
      endloop
   endfacet
   facet normal 0 1 0
      outer loop
         vertex -0.0386633 -0.0954 0.104902
         vertex -0.0374594 -0.0954 0.118598
         vertex -0.0249485 -0.0954 0.116933
      endloop
   endfacet
   facet normal 0 1 0
      outer loop
         vertex 0.0402103 -0.0954 0.105965
         vertex 0.0391633 -0.0954 0.104902
         vertex 0.0379594 -0.0954 0.118598
      endloop
   endfacet
   facet normal -0.158111 0 0.987421
      outer loop
         vertex 0.0379594 -0.0954 0.118598
         vertex 0.0379594 -0.0984 0.118598
         vertex 0.0385008 -0.0984 0.118655
      endloop
   endfacet
   facet normal -0.0498496 0 0.998757
      outer loop
         vertex 0.0385008 -0.0954 0.118655
         vertex 0.0385008 -0.0984 0.118655
         vertex 0.039045 -0.0984 0.118652
      endloop
   endfacet
   facet normal 0.0590022 0 0.998258
      outer loop
         vertex 0.039045 -0.0954 0.118652
         vertex 0.039045 -0.0984 0.118652
         vertex 0.0395858 -0.0984 0.118591
      endloop
   endfacet
   facet normal 0.167155 0 0.985931
      outer loop
         vertex 0.0395858 -0.0954 0.118591
         vertex 0.0395858 -0.0984 0.118591
         vertex 0.0401166 -0.0984 0.118471
      endloop
   endfacet
   facet normal 0.273327 0 0.961921
      outer loop
         vertex 0.0401166 -0.0954 0.118471
         vertex 0.0401166 -0.0984 0.118471
         vertex 0.0406313 -0.0984 0.118294
      endloop
   endfacet
   facet normal 0.37626 0 0.926514
      outer loop
         vertex 0.0406313 -0.0954 0.118294
         vertex 0.0406313 -0.0984 0.118294
         vertex 0.0411237 -0.0984 0.118062
      endloop
   endfacet
   facet normal 0.474735 0 0.880129
      outer loop
         vertex 0.0411237 -0.0954 0.118062
         vertex 0.0411237 -0.0984 0.118062
         vertex 0.0415879 -0.0984 0.117778
      endloop
   endfacet
   facet normal 0.567585 0 0.823315
      outer loop
         vertex 0.0415879 -0.0954 0.117778
         vertex 0.0415879 -0.0984 0.117778
         vertex 0.0420185 -0.0984 0.117445
      endloop
   endfacet
   facet normal 0.65371 0 0.756745
      outer loop
         vertex 0.0420185 -0.0954 0.117445
         vertex 0.0420185 -0.0984 0.117445
         vertex 0.0424104 -0.0984 0.117067
      endloop
   endfacet
   facet normal 0.732089 0 0.681209
      outer loop
         vertex 0.0424104 -0.0954 0.117067
         vertex 0.0424104 -0.0984 0.117067
         vertex 0.042759 -0.0984 0.116649
      endloop
   endfacet
   facet normal 0.801793 0 0.597602
      outer loop
         vertex 0.042759 -0.0954 0.116649
         vertex 0.042759 -0.0984 0.116649
         vertex 0.04306 -0.0984 0.116196
      endloop
   endfacet
   facet normal 0.861997 0 0.506913
      outer loop
         vertex 0.04306 -0.0954 0.116196
         vertex 0.04306 -0.0984 0.116196
         vertex 0.0433099 -0.0984 0.115712
      endloop
   endfacet
   facet normal 0.911988 0 0.410218
      outer loop
         vertex 0.0433099 -0.0954 0.115712
         vertex 0.0433099 -0.0984 0.115712
         vertex 0.0435059 -0.0984 0.115204
      endloop
   endfacet
   facet normal 0.951172 0 0.308662
      outer loop
         vertex 0.0435059 -0.0954 0.115204
         vertex 0.0435059 -0.0984 0.115204
         vertex 0.0436454 -0.0984 0.114678
      endloop
   endfacet
   facet normal 0.979085 0 0.203449
      outer loop
         vertex 0.0436454 -0.0954 0.114678
         vertex 0.0436454 -0.0984 0.114678
         vertex 0.043727 -0.0984 0.11414
      endloop
   endfacet
   facet normal 0.995398 0 0.0958257
      outer loop
         vertex 0.043727 -0.0954 0.11414
         vertex 0.043727 -0.0984 0.11414
         vertex 0.0437496 -0.0984 0.113597
      endloop
   endfacet
   facet normal 0.999916 0 -0.0129333
      outer loop
         vertex 0.0437496 -0.0954 0.113597
         vertex 0.0437496 -0.0984 0.113597
         vertex 0.0437129 -0.0984 0.113053
      endloop
   endfacet
   facet normal 0.992587 0 -0.121539
      outer loop
         vertex 0.0437129 -0.0954 0.113053
         vertex 0.0437129 -0.0984 0.113053
         vertex 0.0436175 -0.0984 0.112518
      endloop
   endfacet
   facet normal 0.973496 0 -0.228705
      outer loop
         vertex 0.0436175 -0.0984 0.112518
         vertex 0.0436175 -0.0954 0.112518
         vertex 0.0437129 -0.0954 0.113053
      endloop
   endfacet
   facet normal 0.992587 0 -0.121539
      outer loop
         vertex 0.0437129 -0.0984 0.113053
         vertex 0.0437129 -0.0954 0.113053
         vertex 0.0437496 -0.0954 0.113597
      endloop
   endfacet
   facet normal 0.999916 0 -0.0129333
      outer loop
         vertex 0.0437496 -0.0984 0.113597
         vertex 0.0437496 -0.0954 0.113597
         vertex 0.043727 -0.0954 0.11414
      endloop
   endfacet
   facet normal 0.995398 0 0.0958257
      outer loop
         vertex 0.043727 -0.0984 0.11414
         vertex 0.043727 -0.0954 0.11414
         vertex 0.0436454 -0.0954 0.114678
      endloop
   endfacet
   facet normal 0.979085 0 0.203449
      outer loop
         vertex 0.0436454 -0.0984 0.114678
         vertex 0.0436454 -0.0954 0.114678
         vertex 0.0435059 -0.0954 0.115204
      endloop
   endfacet
   facet normal 0.951172 0 0.308662
      outer loop
         vertex 0.0435059 -0.0984 0.115204
         vertex 0.0435059 -0.0954 0.115204
         vertex 0.0433099 -0.0954 0.115712
      endloop
   endfacet
   facet normal 0.911988 0 0.410218
      outer loop
         vertex 0.0433099 -0.0984 0.115712
         vertex 0.0433099 -0.0954 0.115712
         vertex 0.04306 -0.0954 0.116196
      endloop
   endfacet
   facet normal 0.861997 0 0.506913
      outer loop
         vertex 0.04306 -0.0984 0.116196
         vertex 0.04306 -0.0954 0.116196
         vertex 0.042759 -0.0954 0.116649
      endloop
   endfacet
   facet normal 0.801793 0 0.597602
      outer loop
         vertex 0.042759 -0.0984 0.116649
         vertex 0.042759 -0.0954 0.116649
         vertex 0.0424104 -0.0954 0.117067
      endloop
   endfacet
   facet normal 0.732089 0 0.681209
      outer loop
         vertex 0.0424104 -0.0984 0.117067
         vertex 0.0424104 -0.0954 0.117067
         vertex 0.0420185 -0.0954 0.117445
      endloop
   endfacet
   facet normal 0.65371 0 0.756745
      outer loop
         vertex 0.0420185 -0.0984 0.117445
         vertex 0.0420185 -0.0954 0.117445
         vertex 0.0415879 -0.0954 0.117778
      endloop
   endfacet
   facet normal 0.567585 0 0.823315
      outer loop
         vertex 0.0415879 -0.0984 0.117778
         vertex 0.0415879 -0.0954 0.117778
         vertex 0.0411237 -0.0954 0.118062
      endloop
   endfacet
   facet normal 0.474735 0 0.880129
      outer loop
         vertex 0.0411237 -0.0984 0.118062
         vertex 0.0411237 -0.0954 0.118062
         vertex 0.0406313 -0.0954 0.118294
      endloop
   endfacet
   facet normal 0.37626 0 0.926514
      outer loop
         vertex 0.0406313 -0.0984 0.118294
         vertex 0.0406313 -0.0954 0.118294
         vertex 0.0401166 -0.0954 0.118471
      endloop
   endfacet
   facet normal 0.273327 0 0.961921
      outer loop
         vertex 0.0401166 -0.0984 0.118471
         vertex 0.0401166 -0.0954 0.118471
         vertex 0.0395858 -0.0954 0.118591
      endloop
   endfacet
   facet normal 0.167155 0 0.985931
      outer loop
         vertex 0.0395858 -0.0984 0.118591
         vertex 0.0395858 -0.0954 0.118591
         vertex 0.039045 -0.0954 0.118652
      endloop
   endfacet
   facet normal 0.0590022 0 0.998258
      outer loop
         vertex 0.039045 -0.0984 0.118652
         vertex 0.039045 -0.0954 0.118652
         vertex 0.0385008 -0.0954 0.118655
      endloop
   endfacet
   facet normal -0.0498496 0 0.998757
      outer loop
         vertex 0.0385008 -0.0984 0.118655
         vertex 0.0385008 -0.0954 0.118655
         vertex 0.0379594 -0.0954 0.118598
      endloop
   endfacet
   facet normal -0.973496 0 -0.228705
      outer loop
         vertex -0.0431175 -0.0954 0.112518
         vertex -0.0431175 -0.0984 0.112518
         vertex -0.0432129 -0.0984 0.113053
      endloop
   endfacet
   facet normal -0.992587 0 -0.121539
      outer loop
         vertex -0.0432129 -0.0954 0.113053
         vertex -0.0432129 -0.0984 0.113053
         vertex -0.0432496 -0.0984 0.113597
      endloop
   endfacet
   facet normal -0.999916 0 -0.0129333
      outer loop
         vertex -0.0432496 -0.0954 0.113597
         vertex -0.0432496 -0.0984 0.113597
         vertex -0.043227 -0.0984 0.11414
      endloop
   endfacet
   facet normal -0.995398 0 0.0958257
      outer loop
         vertex -0.043227 -0.0954 0.11414
         vertex -0.043227 -0.0984 0.11414
         vertex -0.0431454 -0.0984 0.114678
      endloop
   endfacet
   facet normal -0.979085 0 0.203449
      outer loop
         vertex -0.0431454 -0.0954 0.114678
         vertex -0.0431454 -0.0984 0.114678
         vertex -0.0430059 -0.0984 0.115204
      endloop
   endfacet
   facet normal -0.951172 0 0.308662
      outer loop
         vertex -0.0430059 -0.0954 0.115204
         vertex -0.0430059 -0.0984 0.115204
         vertex -0.0428099 -0.0984 0.115712
      endloop
   endfacet
   facet normal -0.911988 0 0.410218
      outer loop
         vertex -0.0428099 -0.0954 0.115712
         vertex -0.0428099 -0.0984 0.115712
         vertex -0.04256 -0.0984 0.116196
      endloop
   endfacet
   facet normal -0.861997 0 0.506913
      outer loop
         vertex -0.04256 -0.0954 0.116196
         vertex -0.04256 -0.0984 0.116196
         vertex -0.042259 -0.0984 0.116649
      endloop
   endfacet
   facet normal -0.801793 0 0.597602
      outer loop
         vertex -0.042259 -0.0954 0.116649
         vertex -0.042259 -0.0984 0.116649
         vertex -0.0419104 -0.0984 0.117067
      endloop
   endfacet
   facet normal -0.732089 0 0.681209
      outer loop
         vertex -0.0419104 -0.0954 0.117067
         vertex -0.0419104 -0.0984 0.117067
         vertex -0.0415185 -0.0984 0.117445
      endloop
   endfacet
   facet normal -0.65371 0 0.756745
      outer loop
         vertex -0.0415185 -0.0954 0.117445
         vertex -0.0415185 -0.0984 0.117445
         vertex -0.0410879 -0.0984 0.117778
      endloop
   endfacet
   facet normal -0.567585 0 0.823315
      outer loop
         vertex -0.0410879 -0.0954 0.117778
         vertex -0.0410879 -0.0984 0.117778
         vertex -0.0406237 -0.0984 0.118062
      endloop
   endfacet
   facet normal -0.474735 0 0.880129
      outer loop
         vertex -0.0406237 -0.0954 0.118062
         vertex -0.0406237 -0.0984 0.118062
         vertex -0.0401313 -0.0984 0.118294
      endloop
   endfacet
   facet normal -0.37626 0 0.926514
      outer loop
         vertex -0.0401313 -0.0954 0.118294
         vertex -0.0401313 -0.0984 0.118294
         vertex -0.0396166 -0.0984 0.118471
      endloop
   endfacet
   facet normal -0.273327 0 0.961921
      outer loop
         vertex -0.0396166 -0.0954 0.118471
         vertex -0.0396166 -0.0984 0.118471
         vertex -0.0390858 -0.0984 0.118591
      endloop
   endfacet
   facet normal -0.167155 0 0.985931
      outer loop
         vertex -0.0390858 -0.0954 0.118591
         vertex -0.0390858 -0.0984 0.118591
         vertex -0.038545 -0.0984 0.118652
      endloop
   endfacet
   facet normal -0.0590022 0 0.998258
      outer loop
         vertex -0.038545 -0.0954 0.118652
         vertex -0.038545 -0.0984 0.118652
         vertex -0.0380008 -0.0984 0.118655
      endloop
   endfacet
   facet normal 0.0498496 0 0.998757
      outer loop
         vertex -0.0380008 -0.0954 0.118655
         vertex -0.0380008 -0.0984 0.118655
         vertex -0.0374594 -0.0984 0.118598
      endloop
   endfacet
   facet normal 0.158111 0 0.987421
      outer loop
         vertex -0.0374594 -0.0984 0.118598
         vertex -0.0374594 -0.0954 0.118598
         vertex -0.0380008 -0.0954 0.118655
      endloop
   endfacet
   facet normal 0.0498496 0 0.998757
      outer loop
         vertex -0.0380008 -0.0984 0.118655
         vertex -0.0380008 -0.0954 0.118655
         vertex -0.038545 -0.0954 0.118652
      endloop
   endfacet
   facet normal -0.0590022 0 0.998258
      outer loop
         vertex -0.038545 -0.0984 0.118652
         vertex -0.038545 -0.0954 0.118652
         vertex -0.0390858 -0.0954 0.118591
      endloop
   endfacet
   facet normal -0.167155 0 0.985931
      outer loop
         vertex -0.0390858 -0.0984 0.118591
         vertex -0.0390858 -0.0954 0.118591
         vertex -0.0396166 -0.0954 0.118471
      endloop
   endfacet
   facet normal -0.273327 0 0.961921
      outer loop
         vertex -0.0396166 -0.0984 0.118471
         vertex -0.0396166 -0.0954 0.118471
         vertex -0.0401313 -0.0954 0.118294
      endloop
   endfacet
   facet normal -0.37626 0 0.926514
      outer loop
         vertex -0.0401313 -0.0984 0.118294
         vertex -0.0401313 -0.0954 0.118294
         vertex -0.0406237 -0.0954 0.118062
      endloop
   endfacet
   facet normal -0.474735 0 0.880129
      outer loop
         vertex -0.0406237 -0.0984 0.118062
         vertex -0.0406237 -0.0954 0.118062
         vertex -0.0410879 -0.0954 0.117778
      endloop
   endfacet
   facet normal -0.567585 0 0.823315
      outer loop
         vertex -0.0410879 -0.0984 0.117778
         vertex -0.0410879 -0.0954 0.117778
         vertex -0.0415185 -0.0954 0.117445
      endloop
   endfacet
   facet normal -0.65371 0 0.756745
      outer loop
         vertex -0.0415185 -0.0984 0.117445
         vertex -0.0415185 -0.0954 0.117445
         vertex -0.0419104 -0.0954 0.117067
      endloop
   endfacet
   facet normal -0.732089 0 0.681209
      outer loop
         vertex -0.0419104 -0.0984 0.117067
         vertex -0.0419104 -0.0954 0.117067
         vertex -0.042259 -0.0954 0.116649
      endloop
   endfacet
   facet normal -0.801793 0 0.597602
      outer loop
         vertex -0.042259 -0.0984 0.116649
         vertex -0.042259 -0.0954 0.116649
         vertex -0.04256 -0.0954 0.116196
      endloop
   endfacet
   facet normal -0.861997 0 0.506913
      outer loop
         vertex -0.04256 -0.0984 0.116196
         vertex -0.04256 -0.0954 0.116196
         vertex -0.0428099 -0.0954 0.115712
      endloop
   endfacet
   facet normal -0.911988 0 0.410218
      outer loop
         vertex -0.0428099 -0.0984 0.115712
         vertex -0.0428099 -0.0954 0.115712
         vertex -0.0430059 -0.0954 0.115204
      endloop
   endfacet
   facet normal -0.951172 0 0.308662
      outer loop
         vertex -0.0430059 -0.0984 0.115204
         vertex -0.0430059 -0.0954 0.115204
         vertex -0.0431454 -0.0954 0.114678
      endloop
   endfacet
   facet normal -0.979085 0 0.203449
      outer loop
         vertex -0.0431454 -0.0984 0.114678
         vertex -0.0431454 -0.0954 0.114678
         vertex -0.043227 -0.0954 0.11414
      endloop
   endfacet
   facet normal -0.995398 0 0.0958257
      outer loop
         vertex -0.043227 -0.0984 0.11414
         vertex -0.043227 -0.0954 0.11414
         vertex -0.0432496 -0.0954 0.113597
      endloop
   endfacet
   facet normal -0.999916 0 -0.0129333
      outer loop
         vertex -0.0432496 -0.0984 0.113597
         vertex -0.0432496 -0.0954 0.113597
         vertex -0.0432129 -0.0954 0.113053
      endloop
   endfacet
   facet normal -0.992587 0 -0.121539
      outer loop
         vertex -0.0432129 -0.0984 0.113053
         vertex -0.0432129 -0.0954 0.113053
         vertex -0.0431175 -0.0954 0.112518
      endloop
   endfacet
   facet normal 0.105654 0 0.994403
      outer loop
         vertex -0.0249485 -0.0954 0.116933
         vertex -0.0374594 -0.0954 0.118598
         vertex -0.0374594 -0.0984 0.118598
      endloop
   endfacet
   facet normal 0.0529009 0 0.9986
      outer loop
         vertex -0.0123669 -0.0954 0.115932
         vertex -0.0249485 -0.0954 0.116933
         vertex -0.0249485 -0.0984 0.116933
      endloop
   endfacet
   facet normal -1.22465e-16 0 1
      outer loop
         vertex 0.00025 -0.0954 0.115598
         vertex -0.0123669 -0.0954 0.115932
         vertex -0.0123669 -0.0984 0.115932
      endloop
   endfacet
   facet normal -0.0529009 0 0.9986
      outer loop
         vertex 0.0128669 -0.0954 0.115932
         vertex 0.00025 -0.0954 0.115598
         vertex 0.00025 -0.0984 0.115598
      endloop
   endfacet
   facet normal -0.105654 0 0.994403
      outer loop
         vertex 0.0254485 -0.0954 0.116933
         vertex 0.0128669 -0.0954 0.115932
         vertex 0.0128669 -0.0984 0.115932
      endloop
   endfacet
   facet normal -0.158111 0 0.987421
      outer loop
         vertex 0.0379594 -0.0954 0.118598
         vertex 0.0254485 -0.0954 0.116933
         vertex 0.0254485 -0.0984 0.116933
      endloop
   endfacet
   facet normal -0.105654 0 0.994403
      outer loop
         vertex 0.0254485 -0.0984 0.116933
         vertex 0.0379594 -0.0984 0.118598
         vertex 0.0379594 -0.0954 0.118598
      endloop
   endfacet
   facet normal -0.0529009 0 0.9986
      outer loop
         vertex 0.0128669 -0.0984 0.115932
         vertex 0.0254485 -0.0984 0.116933
         vertex 0.0254485 -0.0954 0.116933
      endloop
   endfacet
   facet normal -1.22465e-16 0 1
      outer loop
         vertex 0.00025 -0.0984 0.115598
         vertex 0.0128669 -0.0984 0.115932
         vertex 0.0128669 -0.0954 0.115932
      endloop
   endfacet
   facet normal 0.0529009 0 0.9986
      outer loop
         vertex -0.0123669 -0.0984 0.115932
         vertex 0.00025 -0.0984 0.115598
         vertex 0.00025 -0.0954 0.115598
      endloop
   endfacet
   facet normal 0.105654 0 0.994403
      outer loop
         vertex -0.0249485 -0.0984 0.116933
         vertex -0.0123669 -0.0984 0.115932
         vertex -0.0123669 -0.0954 0.115932
      endloop
   endfacet
   facet normal 0.158111 0 0.987421
      outer loop
         vertex -0.0374594 -0.0984 0.118598
         vertex -0.0249485 -0.0984 0.116933
         vertex -0.0249485 -0.0954 0.116933
      endloop
   endfacet
endsolid urdf_camera_link. Units = meters