<?xml version="1.0" encoding="utf-8" standalone="no"?>
<!DOCTYPE svg PUBLIC "-//W3C//DTD SVG 1.1//EN"
  "http://www.w3.org/Graphics/SVG/1.1/DTD/svg11.dtd">
<svg xmlns:xlink="http://www.w3.org/1999/xlink" width="604.8pt" height="252pt" viewBox="0 0 604.8 252" xmlns="http://www.w3.org/2000/svg" version="1.1">
 <metadata>
  <rdf:RDF xmlns:dc="http://purl.org/dc/elements/1.1/" xmlns:cc="http://creativecommons.org/ns#" xmlns:rdf="http://www.w3.org/1999/02/22-rdf-syntax-ns#">
   <cc:Work>
    <dc:type rdf:resource="http://purl.org/dc/dcmitype/StillImage"/>
    <dc:format>image/svg+xml</dc:format>
    <dc:creator>
     <cc:Agent>
      <dc:title>Matplotlib v3.10.3, https://matplotlib.org/</dc:title>
     </cc:Agent>
    </dc:creator>
   </cc:Work>
  </rdf:RDF>
 </metadata>
 <defs>
  <style type="text/css">*{stroke-linejoin: round; stroke-linecap: butt}</style>
 </defs>
 <g id="figure_1">
  <g id="patch_1">
   <path d="M 0 252 
L 604.8 252 
L 604.8 0 
L 0 0 
z
" style="fill: #fcfcfb"/>
  </g>
  <g id="axes_1">
   <g id="patch_2">
    <path d="M 23.17 220.6 
L 296.88 220.6 
L 296.88 72 
L 23.17 72 
z
" style="fill: #fcfcfb"/>
   </g>
   <g id="matplotlib.axis_1">
    <g id="xtick_1">
     <g id="line2d_1">
      <path d="M 34.779165 220.6 
L 34.779165 72 
" clip-path="url(#p4732c59cde)" style="fill: none; stroke: #e1e0d9; stroke-width: 0.8; stroke-linecap: square"/>
     </g>
     <g id="line2d_2">
      <defs>
       <path id="m58accb9213" d="M 0 0 
L 0 3.5 
" style="stroke: #898781; stroke-width: 0.8"/>
      </defs>
      <g>
       <use xlink:href="#m58accb9213" x="34.779165" y="220.6" style="fill: #898781; stroke: #898781; stroke-width: 0.8"/>
      </g>
     </g>
     <g id="text_1">
      <text style="font-size: 8px; font-family: 'DejaVu Sans'; text-anchor: middle; fill: #52514e" x="34.779165" y="233.67875" transform="rotate(-0 34.779165 233.67875)">0</text>
     </g>
    </g>
    <g id="xtick_2">
     <g id="line2d_3">
      <path d="M 85.572515 220.6 
L 85.572515 72 
" clip-path="url(#p4732c59cde)" style="fill: none; stroke: #e1e0d9; stroke-width: 0.8; stroke-linecap: square"/>
     </g>
     <g id="line2d_4">
      <g>
       <use xlink:href="#m58accb9213" x="85.572515" y="220.6" style="fill: #898781; stroke: #898781; stroke-width: 0.8"/>
      </g>
     </g>
     <g id="text_2">
      <text style="font-size: 8px; font-family: 'DejaVu Sans'; text-anchor: middle; fill: #52514e" x="85.572515" y="233.67875" transform="rotate(-0 85.572515 233.67875)">2</text>
     </g>
    </g>
    <g id="xtick_3">
     <g id="line2d_5">
      <path d="M 136.365864 220.6 
L 136.365864 72 
" clip-path="url(#p4732c59cde)" style="fill: none; stroke: #e1e0d9; stroke-width: 0.8; stroke-linecap: square"/>
     </g>
     <g id="line2d_6">
      <g>
       <use xlink:href="#m58accb9213" x="136.365864" y="220.6" style="fill: #898781; stroke: #898781; stroke-width: 0.8"/>
      </g>
     </g>
     <g id="text_3">
      <text style="font-size: 8px; font-family: 'DejaVu Sans'; text-anchor: middle; fill: #52514e" x="136.365864" y="233.67875" transform="rotate(-0 136.365864 233.67875)">4</text>
     </g>
    </g>
    <g id="xtick_4">
     <g id="line2d_7">
      <path d="M 187.159214 220.6 
L 187.159214 72 
" clip-path="url(#p4732c59cde)" style="fill: none; stroke: #e1e0d9; stroke-width: 0.8; stroke-linecap: square"/>
     </g>
     <g id="line2d_8">
      <g>
       <use xlink:href="#m58accb9213" x="187.159214" y="220.6" style="fill: #898781; stroke: #898781; stroke-width: 0.8"/>
      </g>
     </g>
     <g id="text_4">
      <text style="font-size: 8px; font-family: 'DejaVu Sans'; text-anchor: middle; fill: #52514e" x="187.159214" y="233.67875" transform="rotate(-0 187.159214 233.67875)">6</text>
     </g>
    </g>
    <g id="xtick_5">
     <g id="line2d_9">
      <path d="M 237.952563 220.6 
L 237.952563 72 
" clip-path="url(#p4732c59cde)" style="fill: none; stroke: #e1e0d9; stroke-width: 0.8; stroke-linecap: square"/>
     </g>
     <g id="line2d_10">
      <g>
       <use xlink:href="#m58accb9213" x="237.952563" y="220.6" style="fill: #898781; stroke: #898781; stroke-width: 0.8"/>
      </g>
     </g>
     <g id="text_5">
      <text style="font-size: 8px; font-family: 'DejaVu Sans'; text-anchor: middle; fill: #52514e" x="237.952563" y="233.67875" transform="rotate(-0 237.952563 233.67875)">8</text>
     </g>
    </g>
    <g id="xtick_6">
     <g id="line2d_11">
      <path d="M 288.745912 220.6 
L 288.745912 72 
" clip-path="url(#p4732c59cde)" style="fill: none; stroke: #e1e0d9; stroke-width: 0.8; stroke-linecap: square"/>
     </g>
     <g id="line2d_12">
      <g>
       <use xlink:href="#m58accb9213" x="288.745912" y="220.6" style="fill: #898781; stroke: #898781; stroke-width: 0.8"/>
      </g>
     </g>
     <g id="text_6">
      <text style="font-size: 8px; font-family: 'DejaVu Sans'; text-anchor: middle; fill: #52514e" x="288.745912" y="233.67875" transform="rotate(-0 288.745912 233.67875)">10</text>
     </g>
    </g>
    <g id="text_7">
     <text style="font-size: 8px; font-family: 'DejaVu Sans'; text-anchor: middle; fill: #52514e" x="160.025" y="245.42125" transform="rotate(-0 160.025 245.42125)">Simulationsschritte [Mio.]</text>
    </g>
   </g>
   <g id="matplotlib.axis_2">
    <g id="ytick_1">
     <g id="line2d_13">
      <path d="M 23.17 215.792036 
L 296.88 215.792036 
" clip-path="url(#p4732c59cde)" style="fill: none; stroke: #e1e0d9; stroke-width: 0.8; stroke-linecap: square"/>
     </g>
     <g id="line2d_14">
      <defs>
       <path id="m9dad78883e" d="M 0 0 
L -3.5 0 
" style="stroke: #898781; stroke-width: 0.8"/>
      </defs>
      <g>
       <use xlink:href="#m9dad78883e" x="23.17" y="215.792036" style="fill: #898781; stroke: #898781; stroke-width: 0.8"/>
      </g>
     </g>
     <g id="text_8">
      <text style="font-size: 8px; font-family: 'DejaVu Sans'; text-anchor: end; fill: #52514e" x="16.17" y="218.831411" transform="rotate(-0 16.17 218.831411)">0</text>
     </g>
    </g>
    <g id="ytick_2">
     <g id="line2d_15">
      <path d="M 23.17 196.170961 
L 296.88 196.170961 
" clip-path="url(#p4732c59cde)" style="fill: none; stroke: #e1e0d9; stroke-width: 0.8; stroke-linecap: square"/>
     </g>
     <g id="line2d_16">
      <g>
       <use xlink:href="#m9dad78883e" x="23.17" y="196.170961" style="fill: #898781; stroke: #898781; stroke-width: 0.8"/>
      </g>
     </g>
     <g id="text_9">
      <text style="font-size: 8px; font-family: 'DejaVu Sans'; text-anchor: end; fill: #52514e" x="16.17" y="199.210336" transform="rotate(-0 16.17 199.210336)">5</text>
     </g>
    </g>
    <g id="ytick_3">
     <g id="line2d_17">
      <path d="M 23.17 176.549887 
L 296.88 176.549887 
" clip-path="url(#p4732c59cde)" style="fill: none; stroke: #e1e0d9; stroke-width: 0.8; stroke-linecap: square"/>
     </g>
     <g id="line2d_18">
      <g>
       <use xlink:href="#m9dad78883e" x="23.17" y="176.549887" style="fill: #898781; stroke: #898781; stroke-width: 0.8"/>
      </g>
     </g>
     <g id="text_10">
      <text style="font-size: 8px; font-family: 'DejaVu Sans'; text-anchor: end; fill: #52514e" x="16.17" y="179.589262" transform="rotate(-0 16.17 179.589262)">10</text>
     </g>
    </g>
    <g id="ytick_4">
     <g id="line2d_19">
      <path d="M 23.17 156.928812 
L 296.88 156.928812 
" clip-path="url(#p4732c59cde)" style="fill: none; stroke: #e1e0d9; stroke-width: 0.8; stroke-linecap: square"/>
     </g>
     <g id="line2d_20">
      <g>
       <use xlink:href="#m9dad78883e" x="23.17" y="156.928812" style="fill: #898781; stroke: #898781; stroke-width: 0.8"/>
      </g>
     </g>
     <g id="text_11">
      <text style="font-size: 8px; font-family: 'DejaVu Sans'; text-anchor: end; fill: #52514e" x="16.17" y="159.968187" transform="rotate(-0 16.17 159.968187)">15</text>
     </g>
    </g>
    <g id="ytick_5">
     <g id="line2d_21">
      <path d="M 23.17 137.307737 
L 296.88 137.307737 
" clip-path="url(#p4732c59cde)" style="fill: none; stroke: #e1e0d9; stroke-width: 0.8; stroke-linecap: square"/>
     </g>
     <g id="line2d_22">
      <g>
       <use xlink:href="#m9dad78883e" x="23.17" y="137.307737" style="fill: #898781; stroke: #898781; stroke-width: 0.8"/>
      </g>
     </g>
     <g id="text_12">
      <text style="font-size: 8px; font-family: 'DejaVu Sans'; text-anchor: end; fill: #52514e" x="16.17" y="140.347112" transform="rotate(-0 16.17 140.347112)">20</text>
     </g>
    </g>
    <g id="ytick_6">
     <g id="line2d_23">
      <path d="M 23.17 117.686663 
L 296.88 117.686663 
" clip-path="url(#p4732c59cde)" style="fill: none; stroke: #e1e0d9; stroke-width: 0.8; stroke-linecap: square"/>
     </g>
     <g id="line2d_24">
      <g>
       <use xlink:href="#m9dad78883e" x="23.17" y="117.686663" style="fill: #898781; stroke: #898781; stroke-width: 0.8"/>
      </g>
     </g>
     <g id="text_13">
      <text style="font-size: 8px; font-family: 'DejaVu Sans'; text-anchor: end; fill: #52514e" x="16.17" y="120.726038" transform="rotate(-0 16.17 120.726038)">25</text>
     </g>
    </g>
    <g id="ytick_7">
     <g id="line2d_25">
      <path d="M 23.17 98.065588 
L 296.88 98.065588 
" clip-path="url(#p4732c59cde)" style="fill: none; stroke: #e1e0d9; stroke-width: 0.8; stroke-linecap: square"/>
     </g>
     <g id="line2d_26">
      <g>
       <use xlink:href="#m9dad78883e" x="23.17" y="98.065588" style="fill: #898781; stroke: #898781; stroke-width: 0.8"/>
      </g>
     </g>
     <g id="text_14">
      <text style="font-size: 8px; font-family: 'DejaVu Sans'; text-anchor: end; fill: #52514e" x="16.17" y="101.104963" transform="rotate(-0 16.17 101.104963)">30</text>
     </g>
    </g>
    <g id="ytick_8">
     <g id="line2d_27">
      <path d="M 23.17 78.444513 
L 296.88 78.444513 
" clip-path="url(#p4732c59cde)" style="fill: none; stroke: #e1e0d9; stroke-width: 0.8; stroke-linecap: square"/>
     </g>
     <g id="line2d_28">
      <g>
       <use xlink:href="#m9dad78883e" x="23.17" y="78.444513" style="fill: #898781; stroke: #898781; stroke-width: 0.8"/>
      </g>
     </g>
     <g id="text_15">
      <text style="font-size: 8px; font-family: 'DejaVu Sans'; text-anchor: end; fill: #52514e" x="16.17" y="81.483888" transform="rotate(-0 16.17 81.483888)">35</text>
     </g>
    </g>
   </g>
   <g id="line2d_29">
    <path d="M 35.611364 213.409755 
L 37.27576 213.812496 
L 38.107958 213.74629 
L 38.940157 213.348039 
L 41.436751 213.508351 
L 43.101148 213.349728 
L 44.765544 213.322775 
L 45.597742 213.148278 
L 46.429941 213.226579 
L 51.42313 212.99939 
L 53.919725 212.95029 
L 56.41632 212.216091 
L 57.248518 211.676053 
L 58.080716 211.697024 
L 58.912914 211.329357 
L 59.745112 210.508752 
L 60.577311 210.576251 
L 61.409509 209.046512 
L 63.073905 207.304759 
L 63.906104 203.157985 
L 66.402698 197.385421 
L 67.234897 196.300873 
L 68.067095 194.891959 
L 68.899293 194.099005 
L 69.731491 193.030291 
L 70.56369 190.734419 
L 72.228086 187.717082 
L 73.060284 185.621343 
L 73.892483 184.473219 
L 74.724681 182.592547 
L 75.556879 181.59712 
L 76.389077 179.673313 
L 77.221275 179.134031 
L 78.885672 179.3876 
L 79.71787 179.66748 
L 80.550068 177.079432 
L 82.214465 175.197183 
L 83.046663 174.853137 
L 83.878861 175.189936 
L 84.71106 172.968267 
L 85.543258 172.245429 
L 86.375456 169.247418 
L 88.039853 165.739554 
L 88.872051 162.360036 
L 89.704249 161.479002 
L 90.536447 163.452937 
L 91.368645 162.765743 
L 92.200844 159.363744 
L 93.033042 157.226395 
L 93.86524 154.012787 
L 94.697438 151.824204 
L 95.529637 151.214021 
L 96.361835 152.278552 
L 97.194033 150.193284 
L 98.026231 151.657992 
L 98.85843 149.485122 
L 99.690628 146.347875 
L 100.522826 146.873469 
L 101.355024 146.121862 
L 102.187223 146.117752 
L 103.019421 145.582412 
L 103.851619 143.164297 
L 104.683817 143.229084 
L 105.516016 141.600161 
L 106.348214 140.646333 
L 107.180412 138.118864 
L 108.01261 136.373278 
L 108.844808 133.83887 
L 109.677007 135.751663 
L 110.509205 135.380711 
L 111.341403 135.765708 
L 112.173601 136.42658 
L 113.837998 134.173396 
L 114.670196 130.845031 
L 115.502394 130.543002 
L 116.334593 129.63463 
L 117.166791 128.561533 
L 117.998989 126.668689 
L 118.831187 125.678471 
L 119.663386 125.324366 
L 120.495584 125.866018 
L 121.327782 125.446116 
L 122.15998 125.70322 
L 122.992178 124.050967 
L 123.824377 121.994534 
L 124.656575 118.782862 
L 125.488773 116.488485 
L 126.320971 117.35404 
L 127.15317 117.353716 
L 127.985368 115.653028 
L 128.817566 117.534646 
L 129.649764 117.010523 
L 130.481963 116.332812 
L 132.146359 111.978465 
L 132.978557 112.751983 
L 133.810756 112.768669 
L 134.642954 114.869922 
L 135.475152 112.954969 
L 136.30735 111.74107 
L 137.139548 109.751317 
L 137.971747 108.883392 
L 138.803945 107.072275 
L 139.636143 109.522677 
L 140.468341 110.475997 
L 141.30054 110.472277 
L 142.132738 109.933786 
L 144.629333 114.537083 
L 145.461531 115.161172 
L 146.293729 114.304495 
L 147.125927 115.903144 
L 147.958126 114.670948 
L 149.622522 111.544171 
L 150.45472 111.321433 
L 151.286919 110.767829 
L 152.119117 111.816488 
L 152.951315 111.674681 
L 153.783513 110.668092 
L 154.615711 111.926103 
L 155.44791 111.384588 
L 156.280108 112.453738 
L 157.112306 110.746517 
L 157.944504 113.90033 
L 158.776703 111.916995 
L 159.608901 111.089183 
L 160.441099 110.100623 
L 161.273297 110.148953 
L 162.105496 108.37128 
L 162.937694 107.410696 
L 163.769892 110.995717 
L 164.60209 110.735264 
L 165.434289 107.136804 
L 166.266487 107.717118 
L 167.098685 106.658019 
L 167.930883 104.895973 
L 168.763081 106.072694 
L 170.427478 109.621548 
L 171.259676 107.089546 
L 172.091874 107.524468 
L 172.924073 107.82146 
L 173.756271 107.539013 
L 174.588469 105.645001 
L 175.420667 107.280819 
L 177.085064 105.070902 
L 177.917262 105.716215 
L 178.74946 105.691567 
L 179.581659 103.387759 
L 180.413857 105.067931 
L 181.246055 103.533837 
L 182.078253 102.919399 
L 182.910452 100.442039 
L 183.74265 102.500509 
L 184.574848 103.92427 
L 185.407046 102.302319 
L 186.239244 101.488957 
L 187.071443 100.891168 
L 187.903641 99.67101 
L 188.735839 99.119814 
L 189.568037 100.689371 
L 190.400236 101.37296 
L 191.232434 100.614825 
L 192.064632 101.896488 
L 192.89683 104.550884 
L 193.729029 104.374114 
L 195.393425 104.37068 
L 197.057822 103.14192 
L 197.89002 101.802713 
L 198.722218 101.062177 
L 199.554416 103.360193 
L 200.386614 102.759255 
L 201.218813 100.16704 
L 202.051011 101.308385 
L 202.883209 98.880221 
L 203.715407 98.892072 
L 204.547606 97.678952 
L 205.379804 97.163699 
L 206.212002 97.399455 
L 207.0442 97.272999 
L 208.708597 98.705806 
L 209.540795 100.630773 
L 210.372993 100.053368 
L 211.205192 100.631988 
L 212.03739 100.909465 
L 212.869588 98.618443 
L 213.701786 98.599397 
L 214.533984 99.518494 
L 216.198381 99.885478 
L 217.030579 101.332519 
L 217.862777 99.202366 
L 218.694976 98.251638 
L 219.527174 96.387063 
L 220.359372 95.44543 
L 221.19157 95.465572 
L 222.023769 94.275333 
L 222.855967 95.585634 
L 223.688165 95.150212 
L 224.520363 95.267951 
L 225.352562 93.044536 
L 226.18476 92.951061 
L 227.016958 92.542105 
L 227.849156 93.13911 
L 228.681355 95.709016 
L 229.513553 93.632784 
L 230.345751 92.005221 
L 232.010147 93.009168 
L 232.842346 93.106799 
L 233.674544 91.114685 
L 235.33894 91.487787 
L 237.003337 90.338324 
L 238.667733 92.573831 
L 239.499932 91.995355 
L 240.33213 90.509166 
L 241.164328 89.729769 
L 241.996526 90.661339 
L 242.828725 91.759977 
L 243.660923 93.473362 
L 244.493121 91.794349 
L 245.325319 91.936713 
L 246.157517 92.733332 
L 246.989716 92.85483 
L 247.821914 88.740034 
L 249.48631 88.616802 
L 250.318509 86.840868 
L 251.150707 87.127939 
L 251.982905 86.831958 
L 252.815103 87.642981 
L 253.647302 88.975291 
L 254.4795 87.292406 
L 255.311698 89.236416 
L 256.143896 86.926367 
L 256.976095 85.517574 
L 258.640491 85.211345 
L 259.472689 83.516043 
L 260.304888 81.394232 
L 261.137086 83.79904 
L 261.969284 82.639876 
L 262.801482 84.134065 
L 264.465879 83.291942 
L 265.298077 83.155781 
L 266.130275 82.585802 
L 266.962473 83.47794 
L 268.62687 81.254752 
L 269.459068 80.887838 
L 270.291266 79.532323 
L 271.123465 80.90979 
L 271.955663 79.466354 
L 272.787861 79.74498 
L 273.620059 78.754545 
L 274.452258 80.322271 
L 275.284456 81.479697 
L 276.116654 81.229843 
L 276.948852 81.18902 
L 277.78105 82.450916 
L 278.613249 83.313066 
L 279.445447 83.557396 
L 280.277645 82.614562 
L 281.109843 83.841247 
L 281.942042 84.407949 
L 282.77424 82.249502 
L 283.606438 82.613336 
L 284.438636 83.892354 
L 284.438636 83.892354 
" clip-path="url(#p4732c59cde)" style="fill: none; stroke: #2a78d6; stroke-opacity: 0.9; stroke-width: 1.2; stroke-linecap: round"/>
   </g>
   <g id="line2d_30">
    <path d="M 35.611364 213.194757 
L 36.443562 213.606533 
L 37.27576 213.82101 
L 38.107958 213.845455 
L 38.940157 213.433481 
L 41.436751 213.524872 
L 42.26895 213.20619 
L 43.101148 213.255158 
L 43.933346 213.100999 
L 44.765544 213.135437 
L 46.429941 212.805232 
L 47.262139 212.43427 
L 48.094337 212.412841 
L 48.926535 211.206277 
L 50.590932 209.724125 
L 51.42313 207.61958 
L 52.255328 202.940802 
L 53.919725 197.540971 
L 54.751923 194.296658 
L 55.584121 190.191688 
L 56.41632 186.725305 
L 57.248518 185.352984 
L 58.080716 181.998175 
L 58.912914 179.894576 
L 59.745112 178.838344 
L 61.409509 177.975087 
L 62.241707 177.32804 
L 63.073905 177.215852 
L 63.906104 175.503454 
L 65.5705 174.032186 
L 66.402698 170.839031 
L 67.234897 169.262321 
L 68.067095 169.869385 
L 68.899293 166.602338 
L 69.731491 168.153095 
L 71.395888 164.699936 
L 72.228086 163.617545 
L 73.060284 162.10518 
L 73.892483 158.902579 
L 74.724681 160.980563 
L 75.556879 159.386124 
L 76.389077 158.150245 
L 77.221275 157.794092 
L 78.053474 153.47504 
L 78.885672 152.200157 
L 79.71787 154.778618 
L 80.550068 154.590952 
L 81.382267 155.031382 
L 82.214465 154.945277 
L 83.046663 153.567981 
L 85.543258 156.669778 
L 86.375456 154.977475 
L 87.207654 156.051478 
L 88.039853 156.586686 
L 88.872051 154.596864 
L 89.704249 154.148358 
L 90.536447 153.855591 
L 91.368645 152.190855 
L 92.200844 154.1609 
L 93.033042 154.554801 
L 93.86524 155.291616 
L 94.697438 154.841555 
L 95.529637 154.908838 
L 96.361835 154.654504 
L 97.194033 154.528639 
L 98.026231 152.158843 
L 98.85843 153.616173 
L 99.690628 152.804133 
L 100.522826 152.562974 
L 101.355024 151.250779 
L 102.187223 149.091638 
L 103.019421 150.129829 
L 103.851619 149.364483 
L 104.683817 151.103254 
L 105.516016 150.944125 
L 106.348214 152.665906 
L 107.180412 154.124984 
L 108.01261 154.220158 
L 108.844808 155.652623 
L 109.677007 155.914963 
L 110.509205 155.841246 
L 111.341403 154.369803 
L 112.173601 154.968982 
L 113.0058 153.755831 
L 113.837998 154.404417 
L 114.670196 153.104336 
L 115.502394 151.445061 
L 116.334593 151.893432 
L 117.166791 151.085268 
L 117.998989 151.289298 
L 118.831187 150.661109 
L 119.663386 148.735555 
L 120.495584 147.382282 
L 121.327782 147.752862 
L 122.15998 146.044654 
L 122.992178 147.920301 
L 123.824377 147.158024 
L 124.656575 144.983613 
L 125.488773 143.773664 
L 126.320971 143.543276 
L 127.15317 143.912162 
L 127.985368 145.360472 
L 128.817566 143.245948 
L 129.649764 143.726228 
L 130.481963 142.51513 
L 131.314161 144.353738 
L 132.146359 143.237816 
L 132.978557 144.049169 
L 133.810756 143.271476 
L 135.475152 142.094164 
L 136.30735 139.14683 
L 137.139548 140.029518 
L 137.971747 138.435608 
L 138.803945 137.502812 
L 139.636143 136.189637 
L 140.468341 136.367115 
L 141.30054 137.163001 
L 142.132738 137.577861 
L 142.964936 136.953211 
L 143.797134 136.063819 
L 145.461531 134.680063 
L 146.293729 132.13689 
L 147.125927 132.638219 
L 147.958126 132.860284 
L 148.790324 130.614337 
L 149.622522 131.687147 
L 150.45472 131.473637 
L 151.286919 132.393781 
L 152.951315 131.570071 
L 153.783513 130.876284 
L 155.44791 130.00433 
L 156.280108 129.62314 
L 157.112306 128.648475 
L 157.944504 130.137766 
L 158.776703 129.405145 
L 159.608901 126.687208 
L 160.441099 124.656245 
L 161.273297 124.884208 
L 162.105496 123.406157 
L 162.937694 123.066199 
L 163.769892 125.30623 
L 164.60209 126.027422 
L 165.434289 128.62257 
L 166.266487 127.820445 
L 167.098685 128.080625 
L 167.930883 126.378814 
L 168.763081 125.485611 
L 169.59528 126.24898 
L 170.427478 124.054013 
L 171.259676 122.599367 
L 172.091874 122.396581 
L 172.924073 121.542257 
L 173.756271 123.511644 
L 174.588469 122.160438 
L 175.420667 123.011285 
L 176.252866 125.046628 
L 177.085064 123.465817 
L 177.917262 125.866224 
L 178.74946 126.792287 
L 179.581659 125.31506 
L 180.413857 122.372943 
L 181.246055 123.488351 
L 182.078253 123.686061 
L 182.910452 123.396833 
L 183.74265 121.539127 
L 184.574848 121.354962 
L 185.407046 122.912864 
L 187.071443 122.512901 
L 187.903641 125.013414 
L 188.735839 124.57026 
L 189.568037 124.888139 
L 190.400236 122.880154 
L 191.232434 123.087492 
L 192.064632 123.08131 
L 192.89683 121.636778 
L 193.729029 125.146447 
L 194.561227 126.579492 
L 195.393425 124.562651 
L 196.225623 124.286517 
L 197.057822 125.213117 
L 197.89002 122.960212 
L 198.722218 121.317174 
L 199.554416 118.969064 
L 200.386614 121.140523 
L 201.218813 121.556103 
L 202.051011 119.568254 
L 202.883209 119.785886 
L 203.715407 119.005291 
L 204.547606 118.067775 
L 206.212002 118.993449 
L 207.0442 115.485328 
L 207.876399 116.121887 
L 208.708597 114.994678 
L 209.540795 113.059843 
L 211.205192 116.437997 
L 212.03739 115.569327 
L 212.869588 115.323167 
L 213.701786 117.331924 
L 214.533984 116.893627 
L 216.198381 114.672143 
L 217.030579 114.207624 
L 217.862777 112.802488 
L 218.694976 118.460952 
L 219.527174 117.977027 
L 220.359372 118.664325 
L 221.19157 116.140085 
L 222.023769 114.349709 
L 222.855967 114.633857 
L 223.688165 112.992501 
L 225.352562 112.674935 
L 226.18476 113.728013 
L 227.016958 113.685757 
L 227.849156 115.445767 
L 228.681355 117.510295 
L 229.513553 114.226735 
L 230.345751 113.376785 
L 231.177949 115.247151 
L 232.010147 114.162562 
L 232.842346 113.979762 
L 233.674544 116.043505 
L 234.506742 115.534966 
L 235.33894 114.277755 
L 236.171139 116.336525 
L 237.003337 115.297651 
L 237.835535 115.309727 
L 238.667733 114.118498 
L 240.33213 116.749695 
L 241.164328 116.930054 
L 241.996526 115.473925 
L 242.828725 114.521158 
L 243.660923 113.213696 
L 244.493121 113.716706 
L 245.325319 113.469112 
L 246.157517 114.79942 
L 246.989716 112.562341 
L 247.821914 111.996348 
L 248.654112 113.332097 
L 249.48631 113.792837 
L 250.318509 114.994437 
L 251.150707 113.632185 
L 251.982905 111.854796 
L 252.815103 112.004124 
L 253.647302 112.563289 
L 254.4795 115.994328 
L 255.311698 117.202127 
L 256.143896 114.915638 
L 256.976095 112.078242 
L 257.808293 113.13197 
L 258.640491 111.608427 
L 259.472689 107.285519 
L 260.304888 107.216791 
L 261.137086 107.945041 
L 261.969284 107.727079 
L 262.801482 109.39033 
L 263.63368 111.440498 
L 264.465879 110.754239 
L 265.298077 112.019666 
L 266.130275 112.372255 
L 266.962473 110.855678 
L 267.794672 111.361483 
L 268.62687 111.459775 
L 269.459068 112.929927 
L 270.291266 112.315005 
L 271.123465 112.981265 
L 271.955663 113.501072 
L 272.787861 112.999634 
L 273.620059 109.880128 
L 275.284456 111.307097 
L 276.116654 109.486286 
L 277.78105 109.223178 
L 278.613249 111.053773 
L 279.445447 109.935045 
L 280.277645 110.884069 
L 281.109843 110.756555 
L 281.942042 111.685003 
L 282.77424 111.584095 
L 284.438636 109.401136 
L 284.438636 109.401136 
" clip-path="url(#p4732c59cde)" style="fill: none; stroke: #eb6834; stroke-opacity: 0.9; stroke-width: 1.2; stroke-linecap: round"/>
   </g>
   <g id="line2d_31">
    <path d="M 35.611364 213.662296 
L 36.443562 213.462813 
L 37.27576 213.602433 
L 38.107958 213.582154 
L 38.940157 213.295736 
L 41.436751 213.489338 
L 42.26895 213.23077 
L 43.933346 213.174091 
L 44.765544 213.261093 
L 45.597742 212.872863 
L 46.429941 212.860261 
L 47.262139 212.636686 
L 48.094337 212.568232 
L 49.758734 212.266717 
L 50.590932 211.699587 
L 51.42313 211.385321 
L 52.255328 211.420887 
L 53.087527 211.059077 
L 54.751923 209.811862 
L 56.41632 206.441983 
L 57.248518 203.866271 
L 58.080716 202.002179 
L 60.577311 193.285042 
L 61.409509 191.460775 
L 62.241707 187.359896 
L 63.073905 184.872999 
L 63.906104 183.004743 
L 64.738302 181.692437 
L 65.5705 179.644101 
L 66.402698 178.355477 
L 67.234897 176.216907 
L 68.899293 175.101852 
L 69.731491 173.477547 
L 71.395888 171.831966 
L 72.228086 172.31876 
L 73.060284 168.807401 
L 73.892483 167.990904 
L 74.724681 165.242063 
L 75.556879 163.801649 
L 76.389077 161.452413 
L 77.221275 159.699135 
L 78.053474 159.205339 
L 78.885672 158.305933 
L 79.71787 156.609394 
L 80.550068 157.809886 
L 81.382267 158.508829 
L 82.214465 156.495885 
L 83.046663 155.027141 
L 83.878861 154.770027 
L 84.71106 154.031428 
L 85.543258 154.170317 
L 86.375456 152.194713 
L 87.207654 151.802529 
L 88.039853 152.77095 
L 88.872051 152.181491 
L 89.704249 153.832341 
L 90.536447 153.016402 
L 91.368645 149.735484 
L 92.200844 148.833329 
L 93.033042 145.260513 
L 93.86524 145.757107 
L 94.697438 145.824576 
L 95.529637 147.751519 
L 96.361835 148.445333 
L 97.194033 151.687492 
L 98.026231 151.844542 
L 98.85843 153.815725 
L 99.690628 152.425989 
L 101.355024 148.09277 
L 102.187223 147.887932 
L 103.019421 147.085467 
L 103.851619 145.341229 
L 104.683817 146.603367 
L 105.516016 146.67013 
L 106.348214 146.553783 
L 107.180412 145.759779 
L 108.01261 143.664242 
L 108.844808 141.201013 
L 110.509205 138.941671 
L 111.341403 138.018343 
L 112.173601 140.069216 
L 113.0058 140.149685 
L 114.670196 135.898099 
L 115.502394 135.358156 
L 116.334593 135.38034 
L 117.166791 135.14348 
L 117.998989 134.462513 
L 118.831187 134.797443 
L 119.663386 135.941988 
L 120.495584 134.112069 
L 121.327782 133.54294 
L 122.15998 134.067245 
L 122.992178 133.525902 
L 123.824377 134.259747 
L 124.656575 134.774631 
L 125.488773 134.510087 
L 126.320971 133.338051 
L 127.15317 133.715655 
L 129.649764 131.069079 
L 130.481963 130.581003 
L 132.146359 130.978721 
L 132.978557 130.950538 
L 133.810756 130.647848 
L 134.642954 129.980929 
L 135.475152 129.847933 
L 136.30735 130.518185 
L 137.139548 130.776373 
L 137.971747 129.561083 
L 138.803945 127.808309 
L 139.636143 128.550275 
L 140.468341 128.43956 
L 141.30054 129.39947 
L 142.132738 129.661389 
L 142.964936 130.607068 
L 143.797134 128.796743 
L 144.629333 127.589948 
L 145.461531 128.983523 
L 146.293729 131.470297 
L 147.125927 131.799419 
L 148.790324 132.13093 
L 149.622522 131.399101 
L 150.45472 131.435831 
L 151.286919 131.613581 
L 152.951315 129.30997 
L 153.783513 131.294498 
L 154.615711 128.645223 
L 155.44791 128.142956 
L 156.280108 128.719993 
L 157.112306 127.184175 
L 157.944504 129.042305 
L 159.608901 129.322234 
L 160.441099 129.142026 
L 161.273297 127.461214 
L 162.105496 127.899646 
L 162.937694 125.938287 
L 163.769892 126.874771 
L 164.60209 126.335141 
L 165.434289 126.13793 
L 166.266487 123.503736 
L 167.098685 125.586076 
L 167.930883 127.236359 
L 168.763081 125.714511 
L 170.427478 126.770076 
L 171.259676 127.803223 
L 172.091874 126.812379 
L 172.924073 124.999003 
L 173.756271 124.133103 
L 174.588469 123.63039 
L 175.420667 124.219636 
L 176.252866 122.728951 
L 177.085064 122.683752 
L 177.917262 122.369708 
L 178.74946 120.702101 
L 179.581659 120.234755 
L 180.413857 121.257323 
L 182.078253 122.558943 
L 182.910452 124.565507 
L 183.74265 123.027037 
L 184.574848 122.895215 
L 185.407046 120.427312 
L 186.239244 122.677448 
L 187.071443 122.445872 
L 187.903641 121.960908 
L 188.735839 118.445433 
L 189.568037 118.838308 
L 191.232434 118.54327 
L 192.064632 119.212506 
L 192.89683 119.608427 
L 193.729029 120.151923 
L 195.393425 114.943601 
L 196.225623 115.759218 
L 197.057822 114.863475 
L 197.89002 115.823652 
L 198.722218 115.693149 
L 200.386614 114.613367 
L 201.218813 116.057158 
L 202.051011 116.650337 
L 202.883209 114.516746 
L 203.715407 113.294001 
L 204.547606 112.399006 
L 205.379804 110.486953 
L 207.876399 116.266453 
L 208.708597 115.309998 
L 209.540795 116.843654 
L 210.372993 115.476104 
L 211.205192 112.236436 
L 212.03739 112.771228 
L 212.869588 111.370093 
L 214.533984 110.97322 
L 215.366183 111.010345 
L 216.198381 109.753581 
L 217.030579 109.642602 
L 217.862777 106.266258 
L 218.694976 104.81891 
L 219.527174 106.643143 
L 220.359372 105.197418 
L 221.19157 105.557183 
L 222.023769 107.737309 
L 222.855967 107.403931 
L 223.688165 105.584202 
L 224.520363 104.753695 
L 225.352562 104.697864 
L 226.18476 105.099001 
L 227.016958 106.39929 
L 227.849156 106.839174 
L 228.681355 106.617349 
L 229.513553 106.62942 
L 230.345751 102.889448 
L 231.177949 106.07084 
L 232.010147 105.244357 
L 232.842346 104.650947 
L 233.674544 103.765991 
L 234.506742 103.577316 
L 235.33894 103.86989 
L 236.171139 103.825027 
L 237.835535 101.093534 
L 238.667733 100.608673 
L 239.499932 100.856115 
L 240.33213 102.936978 
L 241.164328 104.23783 
L 241.996526 101.66311 
L 242.828725 100.956346 
L 244.493121 101.113217 
L 245.325319 99.104739 
L 246.157517 101.193443 
L 246.989716 101.69248 
L 247.821914 102.660224 
L 248.654112 102.098935 
L 249.48631 99.453766 
L 250.318509 101.647758 
L 251.150707 103.309426 
L 251.982905 101.290964 
L 252.815103 101.50495 
L 253.647302 104.568748 
L 255.311698 99.429901 
L 256.143896 100.609961 
L 256.976095 98.531715 
L 257.808293 98.487888 
L 258.640491 97.159311 
L 260.304888 97.88393 
L 261.137086 96.728116 
L 261.969284 97.605134 
L 262.801482 100.358636 
L 263.63368 100.608305 
L 265.298077 101.469994 
L 266.130275 99.875292 
L 266.962473 97.173022 
L 267.794672 97.606339 
L 268.62687 97.870424 
L 270.291266 98.099771 
L 271.123465 96.173289 
L 271.955663 94.988561 
L 272.787861 94.150895 
L 273.620059 95.725726 
L 274.452258 94.489833 
L 275.284456 94.230568 
L 276.116654 94.095005 
L 276.948852 93.629567 
L 277.78105 93.706599 
L 278.613249 93.016452 
L 279.445447 94.472268 
L 280.277645 94.25518 
L 281.109843 94.758217 
L 281.942042 92.563848 
L 282.77424 92.341258 
L 284.438636 95.418212 
L 284.438636 95.418212 
" clip-path="url(#p4732c59cde)" style="fill: none; stroke: #1baf7a; stroke-opacity: 0.9; stroke-width: 1.2; stroke-linecap: round"/>
   </g>
   <g id="line2d_32">
    <path d="M 35.611364 213.422269 
L 37.27576 213.745313 
L 38.107958 213.724633 
L 38.940157 213.359086 
L 41.436751 213.50752 
L 42.26895 213.276188 
L 44.765544 213.239768 
L 45.597742 213.006283 
L 46.429941 212.964024 
L 47.262139 212.749112 
L 48.094337 212.689494 
L 48.926535 212.226049 
L 49.758734 211.934676 
L 50.590932 211.500364 
L 51.42313 210.668097 
L 52.255328 209.125141 
L 53.919725 206.98895 
L 54.751923 205.615966 
L 56.41632 201.794459 
L 57.248518 200.298436 
L 59.745112 195.235085 
L 61.409509 192.827458 
L 62.241707 190.92965 
L 63.073905 189.79787 
L 63.906104 187.222061 
L 65.5705 184.332679 
L 66.402698 182.193309 
L 67.234897 180.593367 
L 68.067095 180.137971 
L 68.899293 178.601065 
L 69.731491 178.220311 
L 71.395888 175.220891 
L 72.228086 174.551129 
L 73.060284 172.177974 
L 73.892483 170.455568 
L 74.724681 169.605058 
L 75.556879 168.261631 
L 76.389077 166.425324 
L 77.221275 165.542419 
L 78.053474 163.963074 
L 78.885672 163.297897 
L 79.71787 163.685164 
L 80.550068 163.16009 
L 81.382267 163.248242 
L 83.046663 161.14942 
L 83.878861 161.521382 
L 84.71106 160.845074 
L 85.543258 161.028508 
L 86.375456 158.806536 
L 87.207654 158.432832 
L 88.039853 158.36573 
L 88.872051 156.379464 
L 89.704249 156.486567 
L 90.536447 156.774977 
L 91.368645 154.897361 
L 92.200844 154.119324 
L 93.033042 152.347236 
L 93.86524 151.68717 
L 94.697438 150.830112 
L 97.194033 152.136472 
L 98.026231 151.887126 
L 98.85843 152.305673 
L 99.690628 150.525999 
L 100.522826 149.8567 
L 101.355024 148.48847 
L 102.187223 147.699107 
L 103.019421 147.599236 
L 103.851619 145.95667 
L 104.683817 146.978568 
L 105.516016 146.404805 
L 106.348214 146.622007 
L 107.180412 146.001209 
L 108.844808 143.564169 
L 109.677007 143.897944 
L 110.509205 143.387876 
L 111.341403 142.717951 
L 112.173601 143.821593 
L 113.837998 142.179442 
L 114.670196 139.949155 
L 115.502394 139.115406 
L 116.334593 138.969467 
L 117.998989 137.4735 
L 119.663386 136.667303 
L 120.495584 135.78679 
L 122.992178 135.165723 
L 123.824377 134.470768 
L 124.656575 132.847035 
L 125.488773 131.590745 
L 126.320971 131.411789 
L 127.15317 131.660511 
L 129.649764 130.601943 
L 130.481963 129.809648 
L 131.314161 129.734073 
L 132.146359 128.731667 
L 132.978557 129.250563 
L 133.810756 128.895998 
L 134.642954 129.178024 
L 135.475152 128.299022 
L 136.30735 127.135361 
L 137.139548 126.852402 
L 137.971747 125.626694 
L 138.803945 124.127798 
L 139.636143 124.754196 
L 140.468341 125.094224 
L 141.30054 125.678249 
L 142.132738 125.724345 
L 142.964936 126.330804 
L 143.797134 125.960243 
L 144.629333 125.829164 
L 145.461531 126.27492 
L 146.293729 125.970561 
L 147.125927 126.780261 
L 147.958126 126.483461 
L 148.790324 125.305668 
L 149.622522 124.876806 
L 150.45472 124.743633 
L 151.286919 124.925064 
L 152.119117 124.749072 
L 152.951315 124.184907 
L 153.783513 124.279625 
L 154.615711 123.65819 
L 155.44791 123.177291 
L 156.280108 123.598957 
L 157.112306 122.193056 
L 157.944504 124.360134 
L 158.776703 123.507662 
L 160.441099 121.299631 
L 161.273297 120.831458 
L 162.937694 118.80506 
L 163.769892 121.058906 
L 164.60209 121.032609 
L 165.434289 120.632435 
L 166.266487 119.680433 
L 167.098685 120.10824 
L 167.930883 119.503715 
L 168.763081 119.090938 
L 169.59528 120.110299 
L 170.427478 120.148546 
L 171.259676 119.164045 
L 172.091874 118.911143 
L 172.924073 118.120907 
L 173.756271 118.394587 
L 174.588469 117.145276 
L 175.420667 118.17058 
L 176.252866 117.970612 
L 177.085064 117.07349 
L 177.917262 117.984049 
L 178.74946 117.728652 
L 179.581659 116.312525 
L 180.413857 116.232732 
L 182.078253 116.388134 
L 182.910452 116.134793 
L 183.74265 115.688891 
L 184.574848 116.058149 
L 185.407046 115.214165 
L 186.239244 115.617089 
L 187.071443 115.283314 
L 187.903641 115.548444 
L 188.735839 114.045169 
L 189.568037 114.805273 
L 190.400236 114.307863 
L 191.232434 114.081862 
L 192.89683 115.265363 
L 193.729029 116.557495 
L 194.561227 116.108252 
L 195.393425 114.625644 
L 196.225623 114.604535 
L 197.057822 114.40617 
L 198.722218 112.690833 
L 199.554416 112.514757 
L 200.386614 112.837715 
L 201.218813 112.593434 
L 202.051011 112.508992 
L 202.883209 111.060951 
L 203.715407 110.397121 
L 204.547606 109.381911 
L 205.379804 108.708523 
L 206.212002 109.573219 
L 207.0442 108.926488 
L 207.876399 110.120133 
L 208.708597 109.670161 
L 209.540795 110.17809 
L 210.372993 110.073469 
L 211.205192 109.768807 
L 212.03739 109.750007 
L 212.869588 108.437234 
L 213.701786 109.023271 
L 214.533984 109.128447 
L 215.366183 108.848949 
L 216.198381 108.103734 
L 217.030579 108.394248 
L 217.862777 106.090371 
L 218.694976 107.177167 
L 219.527174 107.002411 
L 220.359372 106.435724 
L 221.19157 105.720946 
L 222.023769 105.454117 
L 222.855967 105.874474 
L 223.688165 104.575638 
L 224.520363 104.286449 
L 225.352562 103.472445 
L 226.18476 103.926025 
L 227.016958 104.209051 
L 227.849156 105.141351 
L 228.681355 106.61222 
L 229.513553 104.829646 
L 230.345751 102.757151 
L 231.177949 104.620999 
L 232.010147 104.138696 
L 235.33894 103.211811 
L 236.171139 103.706445 
L 237.003337 102.683156 
L 238.667733 102.433667 
L 239.499932 102.755582 
L 240.33213 103.398613 
L 241.164328 103.632551 
L 241.996526 102.599458 
L 242.828725 102.412494 
L 243.660923 102.580584 
L 244.493121 102.208091 
L 245.325319 101.503522 
L 246.157517 102.908732 
L 246.989716 102.369884 
L 247.821914 101.132202 
L 248.654112 101.384512 
L 249.48631 100.621135 
L 250.318509 101.161021 
L 251.150707 101.356517 
L 251.982905 99.992573 
L 252.815103 100.384018 
L 253.647302 102.035776 
L 254.4795 101.732631 
L 255.311698 101.956148 
L 256.143896 100.817322 
L 256.976095 98.709177 
L 257.808293 99.010542 
L 258.640491 97.993028 
L 259.472689 96.098764 
L 260.304888 95.498318 
L 261.137086 96.157399 
L 261.969284 95.990697 
L 262.801482 97.96101 
L 263.63368 98.5822 
L 264.465879 98.365361 
L 265.298077 98.881814 
L 266.130275 98.277783 
L 266.962473 97.16888 
L 267.794672 97.115732 
L 268.62687 96.86165 
L 269.459068 97.275974 
L 270.291266 96.649033 
L 271.123465 96.688115 
L 271.955663 95.985329 
L 272.787861 95.631836 
L 273.620059 94.7868 
L 274.452258 95.139377 
L 275.284456 95.672454 
L 276.116654 94.937045 
L 276.948852 94.713869 
L 277.78105 95.126897 
L 278.613249 95.79443 
L 279.445447 95.988236 
L 280.277645 95.917937 
L 281.109843 96.452006 
L 281.942042 96.218933 
L 282.77424 95.391619 
L 283.606438 95.656767 
L 284.438636 96.237234 
L 284.438636 96.237234 
" clip-path="url(#p4732c59cde)" style="fill: none; stroke: #0b0b0b; stroke-width: 2.2; stroke-linecap: round"/>
   </g>
   <g id="patch_3">
    <path d="M 23.17 220.6 
L 23.17 72 
" style="fill: none; stroke: #c3c2b7; stroke-width: 0.8; stroke-linejoin: miter; stroke-linecap: square"/>
   </g>
   <g id="patch_4">
    <path d="M 23.17 220.6 
L 296.88 220.6 
" style="fill: none; stroke: #c3c2b7; stroke-width: 0.8; stroke-linejoin: miter; stroke-linecap: square"/>
   </g>
   <g id="text_16">
    <text style="font-size: 9.5px; font-family: 'DejaVu Sans'; text-anchor: start; fill: #0b0b0b" x="23.17" y="66" transform="rotate(-0 23.17 66)">Belohnung je Episode</text>
   </g>
  </g>
  <g id="axes_2">
   <g id="patch_5">
    <path d="M 325.09 220.6 
L 598.8 220.6 
L 598.8 72 
L 325.09 72 
z
" style="fill: #fcfcfb"/>
   </g>
   <g id="matplotlib.axis_3">
    <g id="xtick_7">
     <g id="line2d_33">
      <path d="M 336.699165 220.6 
L 336.699165 72 
" clip-path="url(#pe5ce0c9582)" style="fill: none; stroke: #e1e0d9; stroke-width: 0.8; stroke-linecap: square"/>
     </g>
     <g id="line2d_34">
      <g>
       <use xlink:href="#m58accb9213" x="336.699165" y="220.6" style="fill: #898781; stroke: #898781; stroke-width: 0.8"/>
      </g>
     </g>
     <g id="text_17">
      <text style="font-size: 8px; font-family: 'DejaVu Sans'; text-anchor: middle; fill: #52514e" x="336.699165" y="233.67875" transform="rotate(-0 336.699165 233.67875)">0</text>
     </g>
    </g>
    <g id="xtick_8">
     <g id="line2d_35">
      <path d="M 387.492515 220.6 
L 387.492515 72 
" clip-path="url(#pe5ce0c9582)" style="fill: none; stroke: #e1e0d9; stroke-width: 0.8; stroke-linecap: square"/>
     </g>
     <g id="line2d_36">
      <g>
       <use xlink:href="#m58accb9213" x="387.492515" y="220.6" style="fill: #898781; stroke: #898781; stroke-width: 0.8"/>
      </g>
     </g>
     <g id="text_18">
      <text style="font-size: 8px; font-family: 'DejaVu Sans'; text-anchor: middle; fill: #52514e" x="387.492515" y="233.67875" transform="rotate(-0 387.492515 233.67875)">2</text>
     </g>
    </g>
    <g id="xtick_9">
     <g id="line2d_37">
      <path d="M 438.285864 220.6 
L 438.285864 72 
" clip-path="url(#pe5ce0c9582)" style="fill: none; stroke: #e1e0d9; stroke-width: 0.8; stroke-linecap: square"/>
     </g>
     <g id="line2d_38">
      <g>
       <use xlink:href="#m58accb9213" x="438.285864" y="220.6" style="fill: #898781; stroke: #898781; stroke-width: 0.8"/>
      </g>
     </g>
     <g id="text_19">
      <text style="font-size: 8px; font-family: 'DejaVu Sans'; text-anchor: middle; fill: #52514e" x="438.285864" y="233.67875" transform="rotate(-0 438.285864 233.67875)">4</text>
     </g>
    </g>
    <g id="xtick_10">
     <g id="line2d_39">
      <path d="M 489.079214 220.6 
L 489.079214 72 
" clip-path="url(#pe5ce0c9582)" style="fill: none; stroke: #e1e0d9; stroke-width: 0.8; stroke-linecap: square"/>
     </g>
     <g id="line2d_40">
      <g>
       <use xlink:href="#m58accb9213" x="489.079214" y="220.6" style="fill: #898781; stroke: #898781; stroke-width: 0.8"/>
      </g>
     </g>
     <g id="text_20">
      <text style="font-size: 8px; font-family: 'DejaVu Sans'; text-anchor: middle; fill: #52514e" x="489.079214" y="233.67875" transform="rotate(-0 489.079214 233.67875)">6</text>
     </g>
    </g>
    <g id="xtick_11">
     <g id="line2d_41">
      <path d="M 539.872563 220.6 
L 539.872563 72 
" clip-path="url(#pe5ce0c9582)" style="fill: none; stroke: #e1e0d9; stroke-width: 0.8; stroke-linecap: square"/>
     </g>
     <g id="line2d_42">
      <g>
       <use xlink:href="#m58accb9213" x="539.872563" y="220.6" style="fill: #898781; stroke: #898781; stroke-width: 0.8"/>
      </g>
     </g>
     <g id="text_21">
      <text style="font-size: 8px; font-family: 'DejaVu Sans'; text-anchor: middle; fill: #52514e" x="539.872563" y="233.67875" transform="rotate(-0 539.872563 233.67875)">8</text>
     </g>
    </g>
    <g id="xtick_12">
     <g id="line2d_43">
      <path d="M 590.665912 220.6 
L 590.665912 72 
" clip-path="url(#pe5ce0c9582)" style="fill: none; stroke: #e1e0d9; stroke-width: 0.8; stroke-linecap: square"/>
     </g>
     <g id="line2d_44">
      <g>
       <use xlink:href="#m58accb9213" x="590.665912" y="220.6" style="fill: #898781; stroke: #898781; stroke-width: 0.8"/>
      </g>
     </g>
     <g id="text_22">
      <text style="font-size: 8px; font-family: 'DejaVu Sans'; text-anchor: middle; fill: #52514e" x="590.665912" y="233.67875" transform="rotate(-0 590.665912 233.67875)">10</text>
     </g>
    </g>
    <g id="text_23">
     <text style="font-size: 8px; font-family: 'DejaVu Sans'; text-anchor: middle; fill: #52514e" x="461.945" y="245.42125" transform="rotate(-0 461.945 245.42125)">Simulationsschritte [Mio.]</text>
    </g>
   </g>
   <g id="matplotlib.axis_4">
    <g id="ytick_9">
     <g id="line2d_45">
      <path d="M 325.09 196.749035 
L 598.8 196.749035 
" clip-path="url(#pe5ce0c9582)" style="fill: none; stroke: #e1e0d9; stroke-width: 0.8; stroke-linecap: square"/>
     </g>
     <g id="line2d_46">
      <g>
       <use xlink:href="#m9dad78883e" x="325.09" y="196.749035" style="fill: #898781; stroke: #898781; stroke-width: 0.8"/>
      </g>
     </g>
     <g id="text_24">
      <text style="font-size: 8px; font-family: 'DejaVu Sans'; text-anchor: end; fill: #52514e" x="318.09" y="199.78841" transform="rotate(-0 318.09 199.78841)">50</text>
     </g>
    </g>
    <g id="ytick_10">
     <g id="line2d_47">
      <path d="M 325.09 168.574316 
L 598.8 168.574316 
" clip-path="url(#pe5ce0c9582)" style="fill: none; stroke: #e1e0d9; stroke-width: 0.8; stroke-linecap: square"/>
     </g>
     <g id="line2d_48">
      <g>
       <use xlink:href="#m9dad78883e" x="325.09" y="168.574316" style="fill: #898781; stroke: #898781; stroke-width: 0.8"/>
      </g>
     </g>
     <g id="text_25">
      <text style="font-size: 8px; font-family: 'DejaVu Sans'; text-anchor: end; fill: #52514e" x="318.09" y="171.613691" transform="rotate(-0 318.09 171.613691)">100</text>
     </g>
    </g>
    <g id="ytick_11">
     <g id="line2d_49">
      <path d="M 325.09 140.399598 
L 598.8 140.399598 
" clip-path="url(#pe5ce0c9582)" style="fill: none; stroke: #e1e0d9; stroke-width: 0.8; stroke-linecap: square"/>
     </g>
     <g id="line2d_50">
      <g>
       <use xlink:href="#m9dad78883e" x="325.09" y="140.399598" style="fill: #898781; stroke: #898781; stroke-width: 0.8"/>
      </g>
     </g>
     <g id="text_26">
      <text style="font-size: 8px; font-family: 'DejaVu Sans'; text-anchor: end; fill: #52514e" x="318.09" y="143.438973" transform="rotate(-0 318.09 143.438973)">150</text>
     </g>
    </g>
    <g id="ytick_12">
     <g id="line2d_51">
      <path d="M 325.09 112.224879 
L 598.8 112.224879 
" clip-path="url(#pe5ce0c9582)" style="fill: none; stroke: #e1e0d9; stroke-width: 0.8; stroke-linecap: square"/>
     </g>
     <g id="line2d_52">
      <g>
       <use xlink:href="#m9dad78883e" x="325.09" y="112.224879" style="fill: #898781; stroke: #898781; stroke-width: 0.8"/>
      </g>
     </g>
     <g id="text_27">
      <text style="font-size: 8px; font-family: 'DejaVu Sans'; text-anchor: end; fill: #52514e" x="318.09" y="115.264254" transform="rotate(-0 318.09 115.264254)">200</text>
     </g>
    </g>
    <g id="ytick_13">
     <g id="line2d_53">
      <path d="M 325.09 84.05016 
L 598.8 84.05016 
" clip-path="url(#pe5ce0c9582)" style="fill: none; stroke: #e1e0d9; stroke-width: 0.8; stroke-linecap: square"/>
     </g>
     <g id="line2d_54">
      <g>
       <use xlink:href="#m9dad78883e" x="325.09" y="84.05016" style="fill: #898781; stroke: #898781; stroke-width: 0.8"/>
      </g>
     </g>
     <g id="text_28">
      <text style="font-size: 8px; font-family: 'DejaVu Sans'; text-anchor: end; fill: #52514e" x="318.09" y="87.089535" transform="rotate(-0 318.09 87.089535)">250</text>
     </g>
    </g>
   </g>
   <g id="line2d_55">
    <path d="M 337.531364 213.845455 
L 340.027958 180.750142 
L 340.860157 172.821963 
L 341.692355 169.298587 
L 342.524553 167.003089 
L 343.356751 163.743945 
L 344.18895 162.510939 
L 345.021148 161.825592 
L 345.853346 160.950128 
L 346.685544 159.494824 
L 347.517742 159.245816 
L 348.349941 160.222972 
L 349.182139 159.874689 
L 350.014337 158.947705 
L 350.846535 158.993542 
L 351.678734 158.756711 
L 352.510932 158.999052 
L 353.34313 158.448206 
L 354.175328 158.94776 
L 355.007527 158.975739 
L 355.839725 158.762166 
L 356.671923 158.306889 
L 357.504121 158.677428 
L 358.33632 159.544287 
L 359.168518 158.553239 
L 360.000716 159.207559 
L 360.832914 159.227303 
L 361.665112 157.122578 
L 362.497311 156.369522 
L 363.329509 153.55829 
L 364.161707 152.40199 
L 364.993905 150.928849 
L 365.826104 145.395995 
L 367.4905 140.432816 
L 368.322698 139.122454 
L 369.154897 138.060904 
L 369.987095 136.618411 
L 370.819293 136.352803 
L 371.651491 135.705848 
L 372.48369 132.643611 
L 373.315888 131.084195 
L 374.148086 130.999106 
L 374.980284 128.486324 
L 375.812483 127.374111 
L 376.644681 126.048378 
L 377.476879 125.637551 
L 378.309077 122.64738 
L 379.141275 123.079467 
L 379.973474 123.233544 
L 380.805672 122.678675 
L 381.63787 123.728107 
L 382.470068 120.969545 
L 383.302267 119.115062 
L 384.134465 118.440865 
L 384.966663 119.112044 
L 385.798861 117.918684 
L 386.63106 116.264513 
L 387.463258 117.567167 
L 388.295456 115.82828 
L 389.127654 113.700727 
L 389.959853 112.742931 
L 390.792051 110.394068 
L 391.624249 111.849337 
L 392.456447 114.167142 
L 393.288645 115.016116 
L 394.120844 113.460316 
L 395.78524 108.394859 
L 396.617438 106.884198 
L 397.449637 106.532865 
L 398.281835 108.141445 
L 399.114033 106.703187 
L 399.946231 107.899248 
L 400.77843 105.754176 
L 401.610628 104.328242 
L 402.442826 104.480174 
L 403.275024 104.485658 
L 404.107223 103.726444 
L 404.939421 103.99397 
L 405.771619 102.863262 
L 406.603817 102.805867 
L 407.436016 101.364185 
L 408.268214 100.212054 
L 409.100412 97.429751 
L 409.93261 96.783508 
L 410.764808 95.227117 
L 411.597007 95.504826 
L 412.429205 95.369924 
L 413.261403 95.65996 
L 414.093601 95.706131 
L 414.9258 95.056476 
L 415.757998 94.996544 
L 416.590196 92.725519 
L 417.422394 92.896879 
L 418.254593 91.478524 
L 419.086791 90.843761 
L 419.918989 88.213659 
L 421.583386 88.596271 
L 423.247782 88.537101 
L 424.07998 88.905352 
L 424.912178 89.044418 
L 425.744377 88.805656 
L 426.576575 86.516373 
L 427.408773 85.95825 
L 428.240971 87.456151 
L 429.07317 88.225015 
L 429.905368 87.320385 
L 430.737566 87.96865 
L 431.569764 87.745844 
L 432.401963 87.717105 
L 434.066359 84.715172 
L 435.730756 85.57693 
L 436.562954 87.063031 
L 438.22735 86.644637 
L 439.059548 84.364214 
L 439.891747 84.094167 
L 440.723945 82.866058 
L 441.556143 84.279841 
L 442.388341 84.343017 
L 443.22054 84.531431 
L 444.052738 83.843311 
L 444.884936 84.739602 
L 445.717134 85.003074 
L 446.549333 84.658364 
L 447.381531 83.51699 
L 448.213729 83.229799 
L 449.045927 84.678115 
L 449.878126 85.392241 
L 450.710324 84.759241 
L 451.542522 83.793514 
L 453.206919 84.58989 
L 454.039117 85.57716 
L 455.703513 84.211008 
L 456.535711 85.171292 
L 457.36791 85.189066 
L 458.200108 85.668656 
L 459.032306 84.800512 
L 459.864504 88.29714 
L 460.696703 86.6297 
L 461.528901 86.615573 
L 462.361099 85.824638 
L 463.193297 85.312815 
L 464.025496 83.873365 
L 464.857694 83.012627 
L 465.689892 84.996327 
L 466.52209 84.536017 
L 467.354289 82.946604 
L 468.186487 83.588732 
L 469.018685 82.459954 
L 469.850883 81.917718 
L 470.683081 83.303001 
L 471.51528 84.187838 
L 472.347478 85.500887 
L 473.179676 83.907884 
L 474.011874 84.793776 
L 474.844073 84.974151 
L 475.676271 84.774552 
L 476.508469 84.208557 
L 477.340667 85.20174 
L 478.172866 84.235163 
L 479.005064 83.947246 
L 479.837262 83.97665 
L 480.66946 83.830216 
L 481.501659 82.046405 
L 482.333857 83.412628 
L 483.166055 81.962254 
L 483.998253 82.946805 
L 484.830452 82.202682 
L 486.494848 85.181229 
L 487.327046 83.982235 
L 488.159244 83.888944 
L 488.991443 82.912665 
L 489.823641 82.258796 
L 490.655839 82.19263 
L 491.488037 83.323877 
L 492.320236 84.262318 
L 493.152434 83.515849 
L 493.984632 83.563862 
L 494.81683 84.568976 
L 495.649029 84.649361 
L 496.481227 85.080295 
L 497.313425 84.602433 
L 498.145623 84.50743 
L 498.977822 84.256033 
L 499.81002 83.37129 
L 500.642218 82.92931 
L 501.474416 84.825726 
L 502.306614 84.460847 
L 503.138813 82.810805 
L 503.971011 83.047379 
L 504.803209 82.464497 
L 505.635407 82.891784 
L 506.467606 82.443517 
L 507.299804 81.299015 
L 508.132002 81.254304 
L 508.9642 80.871393 
L 509.796399 80.850651 
L 510.628597 80.562138 
L 511.460795 82.820943 
L 512.292993 82.252846 
L 513.125192 84.041471 
L 513.95739 84.733027 
L 514.789588 82.93438 
L 515.621786 82.287184 
L 516.453984 82.262817 
L 517.286183 83.539838 
L 518.118381 84.249139 
L 518.950579 85.153448 
L 519.782777 85.229448 
L 520.614976 85.074438 
L 521.447174 83.501848 
L 522.279372 82.774627 
L 523.943769 82.588636 
L 524.775967 85.005814 
L 525.608165 84.220796 
L 526.440363 84.083494 
L 527.272562 82.467204 
L 528.10476 82.987096 
L 528.936958 82.598535 
L 529.769156 83.024556 
L 530.601355 84.913081 
L 531.433553 84.747031 
L 532.265751 83.305018 
L 533.930147 83.477247 
L 534.762346 83.552387 
L 535.594544 83.464382 
L 536.426742 83.564128 
L 537.25894 84.116761 
L 538.923337 82.843763 
L 539.755535 83.524934 
L 540.587733 85.144915 
L 541.419932 84.233214 
L 542.25213 83.858916 
L 543.084328 83.044167 
L 543.916526 84.228356 
L 544.748725 85.191733 
L 545.580923 86.765351 
L 546.413121 86.15219 
L 547.245319 85.694898 
L 548.909716 87.080271 
L 549.741914 85.034409 
L 550.574112 85.261951 
L 551.40631 84.666177 
L 552.238509 83.519352 
L 553.070707 83.501963 
L 553.902905 83.328543 
L 554.735103 83.58785 
L 555.567302 84.68432 
L 556.3995 83.208703 
L 557.231698 84.114043 
L 558.063896 83.727106 
L 558.896095 82.829268 
L 559.728293 82.793308 
L 562.224888 80.288044 
L 563.057086 81.71391 
L 563.889284 81.648867 
L 564.721482 82.38808 
L 566.385879 82.31276 
L 567.218077 81.819021 
L 568.050275 81.638617 
L 568.882473 81.622456 
L 569.714672 81.137576 
L 571.379068 81.066173 
L 572.211266 80.379597 
L 573.043465 80.914744 
L 574.707861 79.519139 
L 575.540059 78.754545 
L 576.372258 80.16293 
L 577.204456 80.676262 
L 578.036654 81.590324 
L 578.868852 80.642901 
L 579.70105 81.194589 
L 580.533249 81.334274 
L 581.365447 80.999353 
L 582.197645 80.861554 
L 583.029843 82.477758 
L 583.862042 82.981755 
L 584.69424 81.525691 
L 585.526438 81.664155 
L 586.358636 82.141402 
L 586.358636 82.141402 
" clip-path="url(#pe5ce0c9582)" style="fill: none; stroke: #2a78d6; stroke-opacity: 0.9; stroke-width: 1.2; stroke-linecap: round"/>
   </g>
   <g id="line2d_56">
    <path d="M 337.531364 211.946478 
L 340.027958 180.696179 
L 340.860157 172.551592 
L 341.692355 169.130292 
L 342.524553 166.686923 
L 343.356751 163.490138 
L 344.18895 160.861409 
L 345.021148 160.887698 
L 345.853346 159.846239 
L 346.685544 159.375746 
L 347.517742 158.491048 
L 348.349941 158.098573 
L 349.182139 156.91255 
L 350.014337 157.068701 
L 350.846535 152.445497 
L 352.510932 150.570276 
L 353.34313 145.634718 
L 354.175328 138.201444 
L 355.007527 134.74446 
L 355.839725 132.503327 
L 356.671923 129.6903 
L 357.504121 126.402813 
L 358.33632 123.573503 
L 359.168518 123.571937 
L 360.000716 119.24444 
L 360.832914 116.51581 
L 361.665112 115.249528 
L 363.329509 114.625715 
L 364.161707 113.49539 
L 364.993905 114.301243 
L 365.826104 114.078291 
L 367.4905 115.746019 
L 368.322698 115.023333 
L 369.154897 113.547579 
L 369.987095 114.563913 
L 370.819293 111.044331 
L 371.651491 114.173345 
L 372.48369 111.703977 
L 373.315888 109.679327 
L 374.148086 109.11059 
L 374.980284 108.78646 
L 375.812483 106.172162 
L 376.644681 108.007769 
L 377.476879 106.459584 
L 378.309077 105.928503 
L 379.141275 106.292972 
L 379.973474 101.311199 
L 380.805672 100.868109 
L 381.63787 103.402897 
L 383.302267 104.746548 
L 384.134465 103.787216 
L 384.966663 102.00558 
L 386.63106 103.924613 
L 387.463258 104.647493 
L 388.295456 101.80058 
L 389.127654 101.306214 
L 389.959853 101.75165 
L 390.792051 100.414754 
L 391.624249 100.173051 
L 392.456447 100.705579 
L 393.288645 98.936629 
L 394.120844 101.136168 
L 394.953042 101.570619 
L 395.78524 102.236747 
L 396.617438 101.585563 
L 397.449637 101.247622 
L 398.281835 101.444151 
L 399.114033 101.787387 
L 399.946231 99.920257 
L 400.77843 102.291164 
L 402.442826 99.206788 
L 403.275024 96.906512 
L 404.107223 95.799584 
L 404.939421 97.177569 
L 405.771619 97.083155 
L 406.603817 97.144514 
L 407.436016 95.190353 
L 408.268214 95.615416 
L 409.100412 97.026699 
L 409.93261 97.241037 
L 410.764808 98.630603 
L 411.597007 98.845529 
L 412.429205 99.763791 
L 413.261403 97.639249 
L 414.093601 98.514155 
L 414.9258 97.038059 
L 415.757998 97.34897 
L 416.590196 96.110795 
L 417.422394 94.385973 
L 418.254593 95.092376 
L 419.086791 93.481431 
L 419.918989 94.11784 
L 420.751187 94.22466 
L 421.583386 93.505628 
L 422.415584 92.037314 
L 423.247782 93.237666 
L 424.07998 91.802442 
L 424.912178 94.723352 
L 425.744377 96.072346 
L 426.576575 93.999484 
L 427.408773 94.03386 
L 428.240971 93.111746 
L 429.07317 94.148406 
L 429.905368 95.462031 
L 430.737566 92.333517 
L 431.569764 93.36552 
L 432.401963 92.066036 
L 433.234161 95.072632 
L 434.066359 94.425268 
L 434.898557 96.292513 
L 435.730756 95.795708 
L 437.395152 96.483873 
L 438.22735 94.158191 
L 439.059548 95.655779 
L 439.891747 94.907812 
L 440.723945 93.38019 
L 441.556143 92.945905 
L 442.388341 94.828499 
L 444.052738 96.247077 
L 444.884936 96.154481 
L 445.717134 95.283349 
L 446.549333 94.620862 
L 447.381531 95.475894 
L 448.213729 93.320678 
L 449.878126 95.55966 
L 450.710324 94.702308 
L 451.542522 95.838357 
L 452.37472 95.48902 
L 453.206919 96.218365 
L 454.039117 94.902333 
L 454.871315 94.833313 
L 455.703513 94.302626 
L 456.535711 94.292252 
L 457.36791 93.729395 
L 458.200108 93.887631 
L 459.032306 93.876687 
L 459.864504 93.121837 
L 460.696703 93.390872 
L 461.528901 91.3677 
L 462.361099 90.059427 
L 463.193297 91.377314 
L 464.025496 89.377221 
L 464.857694 90.24764 
L 465.689892 93.131396 
L 466.52209 93.083753 
L 467.354289 95.743225 
L 468.186487 94.113763 
L 469.018685 96.598083 
L 469.850883 95.685537 
L 470.683081 95.156076 
L 471.51528 95.610251 
L 473.179676 91.876925 
L 474.011874 91.959083 
L 474.844073 90.303135 
L 475.676271 92.245294 
L 476.508469 91.000226 
L 477.340667 91.484208 
L 478.172866 94.030757 
L 479.005064 92.974289 
L 479.837262 94.32231 
L 480.66946 97.302492 
L 481.501659 96.77472 
L 482.333857 94.536596 
L 483.166055 93.554561 
L 483.998253 94.995998 
L 484.830452 95.283392 
L 485.66265 93.550253 
L 486.494848 94.577544 
L 487.327046 93.271474 
L 488.159244 92.348227 
L 490.655839 94.360334 
L 491.488037 94.515399 
L 492.320236 93.56518 
L 493.984632 94.328799 
L 494.81683 92.375745 
L 495.649029 95.74626 
L 496.481227 96.736985 
L 497.313425 94.925019 
L 498.145623 94.864006 
L 498.977822 96.417529 
L 499.81002 95.231352 
L 500.642218 93.265144 
L 501.474416 91.741571 
L 502.306614 93.060229 
L 503.138813 93.055459 
L 503.971011 90.773923 
L 504.803209 91.72828 
L 505.635407 90.244535 
L 506.467606 90.245696 
L 507.299804 91.030587 
L 508.132002 91.138818 
L 508.9642 89.757481 
L 509.796399 90.306735 
L 510.628597 89.333794 
L 511.460795 87.988403 
L 512.292993 88.87245 
L 513.125192 91.113896 
L 513.95739 90.138955 
L 514.789588 91.166862 
L 515.621786 93.781542 
L 516.453984 93.742949 
L 517.286183 92.607714 
L 518.118381 91.205967 
L 518.950579 90.930824 
L 519.782777 89.95345 
L 520.614976 95.00941 
L 521.447174 95.334831 
L 522.279372 96.122719 
L 523.943769 90.996681 
L 524.775967 90.345027 
L 525.608165 89.01983 
L 526.440363 89.575375 
L 527.272562 89.229991 
L 528.10476 89.609571 
L 528.936958 89.516842 
L 529.769156 92.074881 
L 530.601355 93.963232 
L 531.433553 92.075986 
L 532.265751 90.687703 
L 533.097949 92.093338 
L 533.930147 92.171623 
L 534.762346 91.873345 
L 535.594544 94.46005 
L 536.426742 92.789884 
L 537.25894 92.070241 
L 538.091139 94.602303 
L 538.923337 92.98487 
L 539.755535 91.774822 
L 540.587733 91.047351 
L 541.419932 92.760776 
L 542.25213 93.03315 
L 543.084328 93.428951 
L 545.580923 92.069159 
L 546.413121 91.854895 
L 547.245319 92.576072 
L 548.077517 94.524082 
L 549.741914 92.27173 
L 550.574112 93.033201 
L 551.40631 93.575496 
L 552.238509 95.02705 
L 553.070707 95.374801 
L 553.902905 93.303207 
L 554.735103 92.982685 
L 555.567302 93.671434 
L 556.3995 94.981269 
L 557.231698 94.556427 
L 558.896095 92.141953 
L 559.728293 90.955392 
L 560.560491 90.020908 
L 561.392689 88.397088 
L 562.224888 87.562435 
L 563.057086 88.31703 
L 563.889284 88.009176 
L 564.721482 88.032387 
L 565.55368 90.956597 
L 566.385879 89.038068 
L 567.218077 91.525213 
L 568.050275 91.527542 
L 568.882473 90.471448 
L 569.714672 92.003271 
L 570.54687 92.124999 
L 571.379068 93.889551 
L 572.211266 93.78307 
L 573.043465 93.9308 
L 573.875663 94.392126 
L 574.707861 94.649196 
L 575.540059 93.359683 
L 576.372258 93.502802 
L 577.204456 93.506821 
L 578.036654 91.730659 
L 578.868852 91.027075 
L 579.70105 91.102501 
L 580.533249 90.797349 
L 581.365447 89.457224 
L 582.197645 90.881159 
L 583.029843 91.185032 
L 583.862042 92.875221 
L 584.69424 91.928339 
L 585.526438 91.881499 
L 586.358636 90.574544 
L 586.358636 90.574544 
" clip-path="url(#pe5ce0c9582)" style="fill: none; stroke: #eb6834; stroke-opacity: 0.9; stroke-width: 1.2; stroke-linecap: round"/>
   </g>
   <g id="line2d_57">
    <path d="M 337.531364 213.067832 
L 340.027958 180.116395 
L 340.860157 171.837109 
L 341.692355 168.883279 
L 342.524553 166.441397 
L 343.356751 163.252508 
L 344.18895 161.23145 
L 345.853346 160.032804 
L 346.685544 159.042605 
L 347.517742 157.295555 
L 348.349941 157.216883 
L 350.014337 156.248848 
L 350.846535 155.696951 
L 351.678734 155.687703 
L 352.510932 154.665117 
L 353.34313 153.343967 
L 354.175328 153.229303 
L 355.007527 152.627105 
L 355.839725 151.573809 
L 356.671923 151.440105 
L 357.504121 147.879166 
L 358.33632 144.973723 
L 359.168518 140.882705 
L 360.000716 137.501893 
L 360.832914 132.902286 
L 361.665112 128.987454 
L 362.497311 123.89854 
L 363.329509 121.102495 
L 364.161707 114.988557 
L 364.993905 112.592145 
L 365.826104 111.672554 
L 366.658302 111.025365 
L 367.4905 108.666522 
L 368.322698 107.337444 
L 369.987095 105.807298 
L 370.819293 106.357736 
L 372.48369 104.861021 
L 373.315888 102.569723 
L 374.148086 102.602637 
L 374.980284 99.370759 
L 376.644681 96.559207 
L 377.476879 95.933073 
L 378.309077 93.302698 
L 379.141275 92.14513 
L 379.973474 91.984829 
L 380.805672 93.256525 
L 381.63787 92.501765 
L 382.470068 94.20536 
L 383.302267 94.364453 
L 384.134465 92.946997 
L 386.63106 90.587626 
L 387.463258 90.341033 
L 388.295456 89.559541 
L 389.127654 89.951223 
L 389.959853 90.665692 
L 390.792051 90.105386 
L 391.624249 91.535721 
L 392.456447 89.968534 
L 393.288645 87.791354 
L 394.120844 87.9251 
L 394.953042 86.541057 
L 395.78524 86.730964 
L 396.617438 87.06786 
L 397.449637 88.234241 
L 398.281835 88.01283 
L 399.114033 90.585211 
L 399.946231 90.722483 
L 400.77843 91.733395 
L 401.610628 90.376988 
L 402.442826 88.289185 
L 403.275024 88.374073 
L 404.107223 87.529894 
L 405.771619 85.516417 
L 406.603817 86.485292 
L 407.436016 87.124216 
L 408.268214 87.585422 
L 409.93261 86.55191 
L 410.764808 85.706716 
L 411.597007 86.007816 
L 412.429205 85.516105 
L 413.261403 86.119605 
L 414.093601 87.07875 
L 414.9258 86.818792 
L 415.757998 85.886075 
L 416.590196 84.297331 
L 417.422394 84.394148 
L 418.254593 84.761151 
L 419.086791 84.393792 
L 420.751187 83.255352 
L 421.583386 84.670609 
L 423.247782 82.682214 
L 424.07998 84.470521 
L 424.912178 84.07833 
L 425.744377 84.752916 
L 426.576575 85.938325 
L 427.408773 86.171642 
L 428.240971 87.033809 
L 429.07317 86.490455 
L 429.905368 87.812146 
L 430.737566 86.859651 
L 431.569764 85.028157 
L 432.401963 84.037117 
L 433.234161 84.765337 
L 434.066359 84.744539 
L 434.898557 84.206438 
L 436.562954 85.784727 
L 437.395152 85.830092 
L 438.22735 85.381108 
L 439.059548 86.092406 
L 439.891747 85.818024 
L 440.723945 84.427429 
L 441.556143 84.812293 
L 443.22054 85.80381 
L 444.052738 85.830842 
L 444.884936 87.246006 
L 445.717134 85.302519 
L 446.549333 83.87567 
L 447.381531 83.27831 
L 448.213729 86.385539 
L 449.045927 86.993395 
L 449.878126 86.888235 
L 450.710324 87.537613 
L 451.542522 86.592719 
L 452.37472 87.081812 
L 453.206919 88.749741 
L 454.039117 87.018997 
L 454.871315 86.655362 
L 455.703513 88.525634 
L 456.535711 86.269666 
L 457.36791 85.290985 
L 458.200108 86.25182 
L 459.032306 85.695223 
L 459.864504 87.80923 
L 460.696703 87.738229 
L 462.361099 88.399932 
L 463.193297 87.018682 
L 464.025496 88.247411 
L 464.857694 85.951798 
L 465.689892 86.487162 
L 466.52209 85.702326 
L 467.354289 85.566765 
L 468.186487 84.610204 
L 469.018685 85.929767 
L 469.850883 86.572855 
L 470.683081 86.186962 
L 471.51528 87.733825 
L 472.347478 87.468631 
L 473.179676 88.204948 
L 474.011874 88.130366 
L 474.844073 87.173891 
L 475.676271 87.248996 
L 476.508469 87.067586 
L 477.340667 88.609169 
L 478.172866 87.544872 
L 479.005064 88.180516 
L 479.837262 87.304701 
L 480.66946 87.218465 
L 481.501659 87.448274 
L 482.333857 87.446596 
L 483.998253 90.163111 
L 484.830452 90.507924 
L 485.66265 89.073395 
L 486.494848 89.20631 
L 487.327046 87.559246 
L 488.159244 90.452811 
L 489.823641 89.944543 
L 490.655839 88.006056 
L 492.320236 88.083255 
L 493.152434 88.769543 
L 493.984632 88.591607 
L 494.81683 89.514218 
L 495.649029 90.100777 
L 496.481227 87.404427 
L 497.313425 86.027468 
L 498.145623 87.053188 
L 498.977822 86.499467 
L 499.81002 88.25972 
L 500.642218 88.283796 
L 501.474416 88.077205 
L 502.306614 87.266328 
L 503.971011 88.91678 
L 504.803209 87.473188 
L 505.635407 86.725406 
L 506.467606 86.688764 
L 507.299804 85.047777 
L 508.132002 85.527486 
L 508.9642 86.43363 
L 509.796399 89.006417 
L 510.628597 89.747721 
L 511.460795 90.889019 
L 512.292993 89.810891 
L 513.125192 88.314695 
L 513.95739 88.371364 
L 514.789588 88.189663 
L 515.621786 88.887408 
L 516.453984 88.173479 
L 517.286183 88.191605 
L 518.118381 87.467182 
L 518.950579 88.221623 
L 519.782777 87.214923 
L 520.614976 84.823082 
L 521.447174 85.064312 
L 522.279372 84.217499 
L 523.11157 84.380595 
L 524.775967 87.015293 
L 525.608165 85.498358 
L 526.440363 84.765811 
L 527.272562 85.089414 
L 528.10476 83.601097 
L 528.936958 84.381445 
L 529.769156 85.664938 
L 530.601355 85.134345 
L 531.433553 86.194673 
L 532.265751 83.810973 
L 533.097949 86.038301 
L 534.762346 84.83567 
L 536.426742 85.62783 
L 538.091139 85.592466 
L 538.923337 85.122829 
L 539.755535 84.214217 
L 540.587733 83.909745 
L 541.419932 84.030363 
L 542.25213 85.212917 
L 543.084328 85.800003 
L 543.916526 83.846233 
L 544.748725 83.321684 
L 545.580923 83.892067 
L 546.413121 83.352811 
L 547.245319 82.267285 
L 548.077517 84.348021 
L 548.909716 85.600815 
L 549.741914 85.843623 
L 551.40631 84.060381 
L 553.070707 86.607427 
L 553.902905 86.169798 
L 554.735103 86.766845 
L 555.567302 88.346057 
L 556.3995 86.117248 
L 557.231698 84.254765 
L 558.063896 84.669642 
L 558.896095 83.364047 
L 559.728293 83.666339 
L 560.560491 82.294815 
L 561.392689 82.859132 
L 562.224888 83.267045 
L 563.057086 82.516754 
L 563.889284 83.755032 
L 564.721482 84.578337 
L 565.55368 84.812215 
L 566.385879 84.541355 
L 567.218077 84.560403 
L 568.050275 84.41462 
L 568.882473 82.549166 
L 569.714672 83.469067 
L 570.54687 83.818632 
L 571.379068 82.970313 
L 572.211266 83.053444 
L 573.043465 82.335198 
L 574.707861 82.12915 
L 575.540059 83.297855 
L 576.372258 83.057174 
L 577.204456 83.260385 
L 578.036654 82.895171 
L 578.868852 81.904979 
L 579.70105 82.509838 
L 580.533249 82.056388 
L 582.197645 82.914021 
L 583.029843 83.700697 
L 583.862042 82.32258 
L 584.69424 81.772903 
L 586.358636 83.750326 
L 586.358636 83.750326 
" clip-path="url(#pe5ce0c9582)" style="fill: none; stroke: #1baf7a; stroke-opacity: 0.9; stroke-width: 1.2; stroke-linecap: round"/>
   </g>
   <g id="line2d_58">
    <path d="M 337.531364 212.953255 
L 340.027958 180.520905 
L 340.860157 172.403555 
L 341.692355 169.104053 
L 342.524553 166.71047 
L 343.356751 163.49553 
L 344.18895 161.534599 
L 345.021148 161.113182 
L 346.685544 159.304392 
L 347.517742 158.34414 
L 348.349941 158.512809 
L 349.182139 157.853127 
L 350.014337 157.421751 
L 350.846535 155.711997 
L 351.678734 155.299302 
L 352.510932 154.744815 
L 354.175328 150.126169 
L 355.839725 147.6131 
L 356.671923 146.479098 
L 357.504121 144.319802 
L 359.168518 141.002627 
L 362.497311 131.735743 
L 363.329509 129.762167 
L 364.161707 126.961979 
L 364.993905 125.940746 
L 365.826104 123.715613 
L 366.658302 122.94519 
L 368.322698 120.49441 
L 369.154897 119.393376 
L 369.987095 118.996541 
L 370.819293 117.91829 
L 371.651491 118.494059 
L 373.315888 114.444415 
L 374.148086 114.237445 
L 374.980284 112.214514 
L 375.812483 110.485133 
L 376.644681 110.205118 
L 377.476879 109.343403 
L 378.309077 107.29286 
L 379.141275 107.172523 
L 379.973474 105.509857 
L 380.805672 105.601103 
L 381.63787 106.544257 
L 382.470068 106.413483 
L 383.302267 106.075355 
L 384.134465 105.058359 
L 384.966663 104.434436 
L 385.798861 104.138506 
L 386.63106 103.592251 
L 387.463258 104.185231 
L 388.295456 102.396133 
L 389.127654 101.652721 
L 389.959853 101.720091 
L 390.792051 100.304736 
L 391.624249 101.186036 
L 392.456447 101.613752 
L 393.288645 100.581366 
L 394.120844 100.840528 
L 394.953042 99.635155 
L 396.617438 98.51254 
L 397.449637 98.671576 
L 399.114033 99.691928 
L 399.946231 99.513996 
L 400.77843 99.926245 
L 401.610628 98.485148 
L 402.442826 97.325382 
L 403.275024 96.588748 
L 404.107223 95.685307 
L 404.939421 95.894895 
L 405.771619 95.154278 
L 406.603817 95.478558 
L 407.436016 94.559585 
L 408.268214 94.470964 
L 409.100412 93.845241 
L 410.764808 93.188145 
L 411.597007 93.452724 
L 412.429205 93.54994 
L 413.261403 93.139605 
L 414.093601 93.766345 
L 414.9258 92.971109 
L 415.757998 92.743863 
L 416.590196 91.044548 
L 417.422394 90.559 
L 418.254593 90.444017 
L 419.918989 88.734025 
L 420.751187 88.622049 
L 421.583386 88.924169 
L 422.415584 88.13051 
L 423.247782 88.152327 
L 424.07998 88.392772 
L 424.912178 89.282034 
L 425.744377 89.876973 
L 426.576575 88.81806 
L 427.408773 88.721251 
L 429.905368 90.198188 
L 430.737566 89.053939 
L 431.569764 88.713174 
L 432.401963 87.940086 
L 433.234161 88.666744 
L 434.066359 87.96166 
L 434.898557 88.528131 
L 435.730756 88.772829 
L 436.562954 89.66191 
L 437.395152 89.716299 
L 438.22735 88.727979 
L 439.059548 88.704133 
L 439.891747 88.273334 
L 440.723945 86.891226 
L 441.556143 87.346013 
L 442.388341 88.170493 
L 443.22054 88.602703 
L 444.052738 88.64041 
L 444.884936 89.38003 
L 446.549333 87.718299 
L 447.381531 87.423732 
L 448.213729 87.645339 
L 449.045927 88.702537 
L 449.878126 89.280045 
L 451.542522 88.74153 
L 452.37472 88.920426 
L 453.206919 89.852666 
L 454.039117 89.166163 
L 454.871315 88.808897 
L 455.703513 89.013089 
L 457.36791 88.069815 
L 458.200108 88.602702 
L 459.032306 88.124141 
L 459.864504 89.742736 
L 461.528901 88.680898 
L 462.361099 88.094666 
L 463.193297 87.902937 
L 464.857694 86.404021 
L 465.689892 88.204962 
L 466.52209 87.774032 
L 467.354289 88.085531 
L 468.186487 87.437566 
L 469.018685 88.329268 
L 469.850883 88.058703 
L 470.683081 88.215346 
L 471.51528 89.177305 
L 472.347478 88.932774 
L 473.179676 87.996586 
L 474.011874 88.294408 
L 474.844073 87.483726 
L 475.676271 88.089614 
L 476.508469 87.425456 
L 477.340667 88.431706 
L 478.172866 88.603597 
L 479.005064 88.36735 
L 479.837262 88.534554 
L 480.66946 89.450391 
L 481.501659 88.756467 
L 483.166055 88.107549 
L 483.998253 89.368638 
L 484.830452 89.331333 
L 485.66265 88.808273 
L 486.494848 89.655028 
L 487.327046 88.270985 
L 488.159244 88.896661 
L 488.991443 88.690454 
L 489.823641 88.634934 
L 490.655839 88.18634 
L 491.488037 88.626364 
L 493.152434 88.747495 
L 494.81683 88.819646 
L 495.649029 90.165466 
L 496.481227 89.740569 
L 497.313425 88.518307 
L 498.977822 89.057676 
L 499.81002 88.954121 
L 500.642218 88.159417 
L 502.306614 88.262468 
L 503.138813 88.012063 
L 505.635407 86.620575 
L 506.467606 86.459326 
L 507.299804 85.79246 
L 508.132002 85.973536 
L 508.9642 85.687501 
L 509.796399 86.721268 
L 510.628597 86.547884 
L 511.460795 87.232788 
L 512.292993 86.978729 
L 513.125192 87.823354 
L 513.95739 87.747782 
L 514.789588 87.430301 
L 515.621786 88.318711 
L 516.453984 88.059749 
L 517.286183 88.113052 
L 518.118381 87.640763 
L 518.950579 88.101965 
L 519.782777 87.465941 
L 520.614976 88.30231 
L 522.279372 87.704948 
L 523.11157 86.922077 
L 523.943769 86.438016 
L 524.775967 87.455378 
L 525.608165 86.246328 
L 526.440363 86.14156 
L 527.272562 85.595536 
L 528.10476 85.399255 
L 528.936958 85.498941 
L 529.769156 86.921459 
L 530.601355 88.003553 
L 531.433553 87.672564 
L 532.265751 85.934565 
L 533.097949 87.159632 
L 533.930147 87.015561 
L 534.762346 86.7538 
L 535.594544 87.710992 
L 536.426742 87.327281 
L 537.25894 87.279135 
L 538.091139 87.901082 
L 538.923337 86.983821 
L 539.755535 86.504658 
L 541.419932 87.008118 
L 542.25213 87.368328 
L 543.084328 87.424374 
L 543.916526 87.013611 
L 544.748725 86.96761 
L 545.580923 87.575526 
L 546.413121 87.119965 
L 547.245319 86.846085 
L 548.077517 88.428952 
L 548.909716 88.69179 
L 549.741914 87.716587 
L 550.574112 87.7327 
L 551.40631 87.434018 
L 553.070707 88.49473 
L 553.902905 87.600516 
L 554.735103 87.779127 
L 555.567302 88.900603 
L 556.3995 88.102407 
L 558.063896 87.272989 
L 558.896095 86.111756 
L 559.728293 85.805013 
L 560.560491 84.748718 
L 561.392689 84.13912 
L 562.224888 83.705841 
L 563.057086 84.182564 
L 563.889284 84.471025 
L 564.721482 84.999601 
L 565.55368 86.040469 
L 566.385879 85.297395 
L 567.218077 85.968213 
L 568.050275 85.86026 
L 568.882473 84.881023 
L 569.714672 85.536638 
L 570.54687 85.673278 
L 571.379068 85.975346 
L 572.211266 85.738704 
L 573.875663 85.631555 
L 575.540059 85.137361 
L 576.372258 85.574302 
L 577.204456 85.814489 
L 578.036654 85.405385 
L 578.868852 84.524985 
L 579.70105 84.935643 
L 580.533249 84.729337 
L 581.365447 84.306132 
L 582.197645 84.885578 
L 583.029843 85.787829 
L 583.862042 86.059852 
L 584.69424 85.075644 
L 585.526438 85.448109 
L 586.358636 85.488758 
L 586.358636 85.488758 
" clip-path="url(#pe5ce0c9582)" style="fill: none; stroke: #0b0b0b; stroke-width: 2.2; stroke-linecap: round"/>
   </g>
   <g id="patch_6">
    <path d="M 325.09 220.6 
L 325.09 72 
" style="fill: none; stroke: #c3c2b7; stroke-width: 0.8; stroke-linejoin: miter; stroke-linecap: square"/>
   </g>
   <g id="patch_7">
    <path d="M 325.09 220.6 
L 598.8 220.6 
" style="fill: none; stroke: #c3c2b7; stroke-width: 0.8; stroke-linejoin: miter; stroke-linecap: square"/>
   </g>
   <g id="text_29">
    <text style="font-size: 9.5px; font-family: 'DejaVu Sans'; text-anchor: start; fill: #0b0b0b" x="325.09" y="66" transform="rotate(-0 325.09 66)">Episodenlänge [Schritte]</text>
   </g>
  </g>
  <g id="text_30">
   <text style="font-size: 11px; font-family: 'DejaVu Sans'; text-anchor: start; fill: #0b0b0b" x="6.048" y="13.398281" transform="rotate(-0 6.048 13.398281)">EXP-005: Lernkurve</text>
  </g>
  <g id="legend_1">
   <g id="line2d_59">
    <path d="M 7.2 33.51875 
L 14.4 33.51875 
L 21.6 33.51875 
" style="fill: none; stroke: #2a78d6; stroke-opacity: 0.9; stroke-width: 1.2; stroke-linecap: round"/>
   </g>
   <g id="text_31">
    <text style="font-size: 8px; font-family: 'DejaVu Sans'; text-anchor: start; fill: #52514e" x="28" y="36.31875" transform="rotate(-0 28 36.31875)">Seed 42</text>
   </g>
   <g id="line2d_60">
    <path d="M 70.325 33.51875 
L 77.525 33.51875 
L 84.725 33.51875 
" style="fill: none; stroke: #eb6834; stroke-opacity: 0.9; stroke-width: 1.2; stroke-linecap: round"/>
   </g>
   <g id="text_32">
    <text style="font-size: 8px; font-family: 'DejaVu Sans'; text-anchor: start; fill: #52514e" x="91.125" y="36.31875" transform="rotate(-0 91.125 36.31875)">Seed 43</text>
   </g>
   <g id="line2d_61">
    <path d="M 133.45 33.51875 
L 140.65 33.51875 
L 147.85 33.51875 
" style="fill: none; stroke: #1baf7a; stroke-opacity: 0.9; stroke-width: 1.2; stroke-linecap: round"/>
   </g>
   <g id="text_33">
    <text style="font-size: 8px; font-family: 'DejaVu Sans'; text-anchor: start; fill: #52514e" x="154.25" y="36.31875" transform="rotate(-0 154.25 36.31875)">Seed 44</text>
   </g>
   <g id="line2d_62">
    <path d="M 196.575 33.51875 
L 203.775 33.51875 
L 210.975 33.51875 
" style="fill: none; stroke: #0b0b0b; stroke-width: 2.2; stroke-linecap: round"/>
   </g>
   <g id="text_34">
    <text style="font-size: 8px; font-family: 'DejaVu Sans'; text-anchor: start; fill: #52514e" x="217.375" y="36.31875" transform="rotate(-0 217.375 36.31875)">Mittel EXP-005</text>
   </g>
  </g>
 </g>
 <defs>
  <clipPath id="p4732c59cde">
   <rect x="23.17" y="72" width="273.71" height="148.6"/>
  </clipPath>
  <clipPath id="pe5ce0c9582">
   <rect x="325.09" y="72" width="273.71" height="148.6"/>
  </clipPath>
 </defs>
</svg>
