solid urdf_shoulder_vertical. STL generated by ONSHAPE BY PTC INC, 1.219. Units = meters
   facet normal 0 1 0
      outer loop
         vertex 0.105014 0.055 -0.0339878
         vertex 0.0870442 0.055 -0.0476477
         vertex 0.0817633 0.055 -0.0497518
      endloop
   endfacet
   facet normal 0 1 0
      outer loop
         vertex 0.105014 0.055 -0.0339878
         vertex 0.0920666 0.055 -0.044985
         vertex 0.0870442 0.055 -0.0476477
      endloop
   endfacet
   facet normal 0 1 0
      outer loop
         vertex 0.0920666 0.055 -0.044985
         vertex 0.105014 0.055 -0.0339878
         vertex 0.101104 0.055 -0.0381148
      endloop
   endfacet
   facet normal 0 1 0
      outer loop
         vertex 0.0762859 0.055 -0.0512726
         vertex 0.111384 0.055 -0.0245914
         vertex 0.108454 0.055 -0.0294623
      endloop
   endfacet
   facet normal 0 1 0
      outer loop
         vertex 0.0762859 0.055 -0.0512726
         vertex 0.116808 0.055 -0.00849355
         vertex 0.115586 0.055 -0.0140452
      endloop
   endfacet
   facet normal 0 1 0
      outer loop
         vertex 0.0762859 0.055 -0.0512726
         vertex 0.0706762 0.055 0.0521922
         vertex 0.0762859 0.055 0.0512726
      endloop
   endfacet
   facet normal 0 1 0
      outer loop
         vertex 0.101104 0.055 -0.0381148
         vertex 0.0967716 0.055 -0.0417949
         vertex 0.0920666 0.055 -0.044985
      endloop
   endfacet
   facet normal 0 1 0
      outer loop
         vertex 0.0762859 0.055 -0.0512726
         vertex 0.113771 0.055 -0.0194323
         vertex 0.111384 0.055 -0.0245914
      endloop
   endfacet
   facet normal 0 1 0
      outer loop
         vertex 0.0762859 0.055 -0.0512726
         vertex 0.117423 0.055 -0.00284229
         vertex 0.116808 0.055 -0.00849355
      endloop
   endfacet
   facet normal 0 1 0
      outer loop
         vertex 0.0762859 0.055 -0.0512726
         vertex 0.111384 0.055 0.0245914
         vertex 0.113771 0.055 0.0194323
      endloop
   endfacet
   facet normal 0 1 0
      outer loop
         vertex 0.0762859 0.055 -0.0512726
         vertex 0.101104 0.055 0.0381148
         vertex 0.105014 0.055 0.0339878
      endloop
   endfacet
   facet normal 0 1 0
      outer loop
         vertex 0.0762859 0.055 -0.0512726
         vertex 0.0870442 0.055 0.0476477
         vertex 0.0920666 0.055 0.044985
      endloop
   endfacet
   facet normal 0 1 0
      outer loop
         vertex 0.0762859 0.055 0.0512726
         vertex 0.0817633 0.055 0.0497518
         vertex 0.0762859 0.055 -0.0512726
      endloop
   endfacet
   facet normal 0 1 0
      outer loop
         vertex 0.108454 0.055 -0.0294623
         vertex 0.105014 0.055 -0.0339878
         vertex 0.0762859 0.055 -0.0512726
      endloop
   endfacet
   facet normal 0 1 0
      outer loop
         vertex 0.0762859 0.055 -0.0512726
         vertex 0.117423 0.055 0.00284229
         vertex 0.117423 0.055 -0.00284229
      endloop
   endfacet
   facet normal 0 1 0
      outer loop
         vertex 0.0762859 0.055 -0.0512726
         vertex 0.108454 0.055 0.0294623
         vertex 0.111384 0.055 0.0245914
      endloop
   endfacet
   facet normal 0 1 0
      outer loop
         vertex 0.0762859 0.055 -0.0512726
         vertex 0.0967716 0.055 0.0417949
         vertex 0.101104 0.055 0.0381148
      endloop
   endfacet
   facet normal 0 1 0
      outer loop
         vertex 0.0817633 0.055 0.0497518
         vertex 0.0870442 0.055 0.0476477
         vertex 0.0762859 0.055 -0.0512726
      endloop
   endfacet
   facet normal 0 1 0
      outer loop
         vertex 0.115586 0.055 -0.0140452
         vertex 0.113771 0.055 -0.0194323
         vertex 0.0762859 0.055 -0.0512726
      endloop
   endfacet
   facet normal 0 1 0
      outer loop
         vertex 0.0762859 0.055 -0.0512726
         vertex 0.115586 0.055 0.0140452
         vertex 0.116808 0.055 0.00849355
      endloop
   endfacet
   facet normal 0 1 0
      outer loop
         vertex 0.105014 0.055 0.0339878
         vertex 0.108454 0.055 0.0294623
         vertex 0.0762859 0.055 -0.0512726
      endloop
   endfacet
   facet normal 0 1 0
      outer loop
         vertex 0.0762859 0.055 -0.0512726
         vertex 0.065 0.055 0.0525
         vertex 0.0706762 0.055 0.0521922
      endloop
   endfacet
   facet normal 0 1 0
      outer loop
         vertex 0.116808 0.055 0.00849355
         vertex 0.117423 0.055 0.00284229
         vertex 0.0762859 0.055 -0.0512726
      endloop
   endfacet
   facet normal 0 1 0
      outer loop
         vertex 0.0920666 0.055 0.044985
         vertex 0.0967716 0.055 0.0417949
         vertex 0.0762859 0.055 -0.0512726
      endloop
   endfacet
   facet normal 0 1 0
      outer loop
         vertex 0.065 0.055 0.0525
         vertex 0.0762859 0.055 -0.0512726
         vertex 0.0706762 0.055 -0.0521922
      endloop
   endfacet
   facet normal 0 1 0
      outer loop
         vertex 0.113771 0.055 0.0194323
         vertex 0.115586 0.055 0.0140452
         vertex 0.0762859 0.055 -0.0512726
      endloop
   endfacet
   facet normal 0 1 0
      outer loop
         vertex 0.006 0.055 0.0525
         vertex 0.065 0.055 0.0525
         vertex 0.065 0.055 -0.0525
      endloop
   endfacet
   facet normal 0 1 0
      outer loop
         vertex 0.0817633 0.055 -0.0497518
         vertex 0.0762859 0.055 -0.0512726
         vertex 0.105014 0.055 -0.0339878
      endloop
   endfacet
   facet normal 0 1 0
      outer loop
         vertex 0.0706762 0.055 -0.0521922
         vertex 0.065 0.055 -0.0525
         vertex 0.065 0.055 0.0525
      endloop
   endfacet
   facet normal 0 1 0
      outer loop
         vertex 0.065 0.055 -0.0525
         vertex 0.006 0.055 -0.0525
         vertex 0.006 0.055 0.0525
      endloop
   endfacet
   facet normal -1.22465e-16 0 -1
      outer loop
         vertex 0.065 0.0374954 -0.0525
         vertex 0.065 0.055 -0.0525
         vertex 0.0706762 0.055 -0.0521922
      endloop
   endfacet
   facet normal 0.108119 0 -0.994138
      outer loop
         vertex 0.0706762 0.0374954 -0.0521922
         vertex 0.0706762 0.055 -0.0521922
         vertex 0.0762859 0.055 -0.0512726
      endloop
   endfacet
   facet normal 0.21497 0 -0.976621
      outer loop
         vertex 0.0762859 0.0374954 -0.0512726
         vertex 0.0762859 0.055 -0.0512726
         vertex 0.0817633 0.055 -0.0497518
      endloop
   endfacet
   facet normal 0.319302 0 -0.947653
      outer loop
         vertex 0.0817633 0.0374954 -0.0497518
         vertex 0.0817633 0.055 -0.0497518
         vertex 0.0870442 0.055 -0.0476477
      endloop
   endfacet
   facet normal 0.419889 0 -0.907575
      outer loop
         vertex 0.0870442 0.0374954 -0.0476477
         vertex 0.0870442 0.055 -0.0476477
         vertex 0.0920666 0.055 -0.044985
      endloop
   endfacet
   facet normal 0.515554 0 -0.856857
      outer loop
         vertex 0.0920666 0.0374954 -0.044985
         vertex 0.0920666 0.055 -0.044985
         vertex 0.0967716 0.055 -0.0417949
      endloop
   endfacet
   facet normal 0.605174 0 -0.796093
      outer loop
         vertex 0.0967716 0.0374954 -0.0417949
         vertex 0.0967716 0.055 -0.0417949
         vertex 0.101104 0.055 -0.0381148
      endloop
   endfacet
   facet normal 0.687699 0 -0.725995
      outer loop
         vertex 0.101104 0.0374954 -0.0381148
         vertex 0.101104 0.055 -0.0381148
         vertex 0.105014 0.055 -0.0339878
      endloop
   endfacet
   facet normal 0.762162 0 -0.647386
      outer loop
         vertex 0.105014 0.0374954 -0.0339878
         vertex 0.105014 0.055 -0.0339878
         vertex 0.108454 0.055 -0.0294623
      endloop
   endfacet
   facet normal 0.827689 0 -0.561187
      outer loop
         vertex 0.108454 0.0374954 -0.0294623
         vertex 0.108454 0.055 -0.0294623
         vertex 0.111384 0.055 -0.0245914
      endloop
   endfacet
   facet normal 0.883512 0 -0.468408
      outer loop
         vertex 0.111384 0.0374954 -0.0245914
         vertex 0.111384 0.055 -0.0245914
         vertex 0.113771 0.055 -0.0194323
      endloop
   endfacet
   facet normal 0.928977 0 -0.370138
      outer loop
         vertex 0.113771 0.0374954 -0.0194323
         vertex 0.113771 0.055 -0.0194323
         vertex 0.115586 0.055 -0.0140452
      endloop
   endfacet
   facet normal 0.96355 0 -0.267528
      outer loop
         vertex 0.115586 0.0374954 -0.0140452
         vertex 0.115586 0.055 -0.0140452
         vertex 0.116808 0.055 -0.00849355
      endloop
   endfacet
   facet normal 0.986827 0 -0.161782
      outer loop
         vertex 0.116808 0.0374954 -0.00849355
         vertex 0.116808 0.055 -0.00849355
         vertex 0.117423 0.055 -0.00284229
      endloop
   endfacet
   facet normal 0.998533 0 -0.0541389
      outer loop
         vertex 0.117423 0.0374954 -0.00284229
         vertex 0.117423 0.055 -0.00284229
         vertex 0.117423 0.055 0.00284229
      endloop
   endfacet
   facet normal 0.998533 0 0.0541389
      outer loop
         vertex 0.117423 0.0374954 0.00284229
         vertex 0.117423 0.055 0.00284229
         vertex 0.116808 0.055 0.00849355
      endloop
   endfacet
   facet normal 0.986827 0 0.161782
      outer loop
         vertex 0.116808 0.0374954 0.00849355
         vertex 0.116808 0.055 0.00849355
         vertex 0.115586 0.055 0.0140452
      endloop
   endfacet
   facet normal 0.96355 0 0.267528
      outer loop
         vertex 0.115586 0.0374954 0.0140452
         vertex 0.115586 0.055 0.0140452
         vertex 0.113771 0.055 0.0194323
      endloop
   endfacet
   facet normal 0.928977 0 0.370138
      outer loop
         vertex 0.113771 0.0374954 0.0194323
         vertex 0.113771 0.055 0.0194323
         vertex 0.111384 0.055 0.0245914
      endloop
   endfacet
   facet normal 0.883512 0 0.468408
      outer loop
         vertex 0.111384 0.0374954 0.0245914
         vertex 0.111384 0.055 0.0245914
         vertex 0.108454 0.055 0.0294623
      endloop
   endfacet
   facet normal 0.827689 0 0.561187
      outer loop
         vertex 0.108454 0.0374954 0.0294623
         vertex 0.108454 0.055 0.0294623
         vertex 0.105014 0.055 0.0339878
      endloop
   endfacet
   facet normal 0.762162 0 0.647386
      outer loop
         vertex 0.105014 0.0374954 0.0339878
         vertex 0.105014 0.055 0.0339878
         vertex 0.101104 0.055 0.0381148
      endloop
   endfacet
   facet normal 0.687699 0 0.725995
      outer loop
         vertex 0.101104 0.0374954 0.0381148
         vertex 0.101104 0.055 0.0381148
         vertex 0.0967716 0.055 0.0417949
      endloop
   endfacet
   facet normal 0.605174 0 0.796093
      outer loop
         vertex 0.0967716 0.0374954 0.0417949
         vertex 0.0967716 0.055 0.0417949
         vertex 0.0920666 0.055 0.044985
      endloop
   endfacet
   facet normal 0.515554 0 0.856857
      outer loop
         vertex 0.0920666 0.0374954 0.044985
         vertex 0.0920666 0.055 0.044985
         vertex 0.0870442 0.055 0.0476477
      endloop
   endfacet
   facet normal 0.419889 0 0.907575
      outer loop
         vertex 0.0870442 0.0374954 0.0476477
         vertex 0.0870442 0.055 0.0476477
         vertex 0.0817633 0.055 0.0497518
      endloop
   endfacet
   facet normal 0.319302 0 0.947653
      outer loop
         vertex 0.0817633 0.0374954 0.0497518
         vertex 0.0817633 0.055 0.0497518
         vertex 0.0762859 0.055 0.0512726
      endloop
   endfacet
   facet normal 0.21497 0 0.976621
      outer loop
         vertex 0.0762859 0.0374954 0.0512726
         vertex 0.0762859 0.055 0.0512726
         vertex 0.0706762 0.055 0.0521922
      endloop
   endfacet
   facet normal 0.108119 0 0.994138
      outer loop
         vertex 0.0706762 0.0374954 0.0521922
         vertex 0.0706762 0.055 0.0521922
         vertex 0.065 0.055 0.0525
      endloop
   endfacet
   facet normal 2.44929e-16 0 1
      outer loop
         vertex 0.065 0.055 0.0525
         vertex 0.065 0.0374954 0.0525
         vertex 0.0706762 0.0374954 0.0521922
      endloop
   endfacet
   facet normal 0.108119 0 0.994138
      outer loop
         vertex 0.0706762 0.055 0.0521922
         vertex 0.0706762 0.0374954 0.0521922
         vertex 0.0762859 0.0374954 0.0512726
      endloop
   endfacet
   facet normal 0.21497 0 0.976621
      outer loop
         vertex 0.0762859 0.055 0.0512726
         vertex 0.0762859 0.0374954 0.0512726
         vertex 0.0817633 0.0374954 0.0497518
      endloop
   endfacet
   facet normal 0.319302 0 0.947653
      outer loop
         vertex 0.0817633 0.055 0.0497518
         vertex 0.0817633 0.0374954 0.0497518
         vertex 0.0870442 0.0374954 0.0476477
      endloop
   endfacet
   facet normal 0.419889 0 0.907575
      outer loop
         vertex 0.0870442 0.055 0.0476477
         vertex 0.0870442 0.0374954 0.0476477
         vertex 0.0920666 0.0374954 0.044985
      endloop
   endfacet
   facet normal 0.515554 0 0.856857
      outer loop
         vertex 0.0920666 0.055 0.044985
         vertex 0.0920666 0.0374954 0.044985
         vertex 0.0967716 0.0374954 0.0417949
      endloop
   endfacet
   facet normal 0.605174 0 0.796093
      outer loop
         vertex 0.0967716 0.055 0.0417949
         vertex 0.0967716 0.0374954 0.0417949
         vertex 0.101104 0.0374954 0.0381148
      endloop
   endfacet
   facet normal 0.687699 0 0.725995
      outer loop
         vertex 0.101104 0.055 0.0381148
         vertex 0.101104 0.0374954 0.0381148
         vertex 0.105014 0.0374954 0.0339878
      endloop
   endfacet
   facet normal 0.762162 0 0.647386
      outer loop
         vertex 0.105014 0.055 0.0339878
         vertex 0.105014 0.0374954 0.0339878
         vertex 0.108454 0.0374954 0.0294623
      endloop
   endfacet
   facet normal 0.827689 0 0.561187
      outer loop
         vertex 0.108454 0.055 0.0294623
         vertex 0.108454 0.0374954 0.0294623
         vertex 0.111384 0.0374954 0.0245914
      endloop
   endfacet
   facet normal 0.883512 0 0.468408
      outer loop
         vertex 0.111384 0.055 0.0245914
         vertex 0.111384 0.0374954 0.0245914
         vertex 0.113771 0.0374954 0.0194323
      endloop
   endfacet
   facet normal 0.928977 0 0.370138
      outer loop
         vertex 0.113771 0.055 0.0194323
         vertex 0.113771 0.0374954 0.0194323
         vertex 0.115586 0.0374954 0.0140452
      endloop
   endfacet
   facet normal 0.96355 0 0.267528
      outer loop
         vertex 0.115586 0.055 0.0140452
         vertex 0.115586 0.0374954 0.0140452
         vertex 0.116808 0.0374954 0.00849355
      endloop
   endfacet
   facet normal 0.986827 0 0.161782
      outer loop
         vertex 0.116808 0.055 0.00849355
         vertex 0.116808 0.0374954 0.00849355
         vertex 0.117423 0.0374954 0.00284229
      endloop
   endfacet
   facet normal 0.998533 0 0.0541389
      outer loop
         vertex 0.117423 0.055 0.00284229
         vertex 0.117423 0.0374954 0.00284229
         vertex 0.117423 0.0374954 -0.00284229
      endloop
   endfacet
   facet normal 0.998533 0 -0.0541389
      outer loop
         vertex 0.117423 0.055 -0.00284229
         vertex 0.117423 0.0374954 -0.00284229
         vertex 0.116808 0.0374954 -0.00849355
      endloop
   endfacet
   facet normal 0.986827 0 -0.161782
      outer loop
         vertex 0.116808 0.055 -0.00849355
         vertex 0.116808 0.0374954 -0.00849355
         vertex 0.115586 0.0374954 -0.0140452
      endloop
   endfacet
   facet normal 0.96355 0 -0.267528
      outer loop
         vertex 0.115586 0.055 -0.0140452
         vertex 0.115586 0.0374954 -0.0140452
         vertex 0.113771 0.0374954 -0.0194323
      endloop
   endfacet
   facet normal 0.928977 0 -0.370138
      outer loop
         vertex 0.113771 0.055 -0.0194323
         vertex 0.113771 0.0374954 -0.0194323
         vertex 0.111384 0.0374954 -0.0245914
      endloop
   endfacet
   facet normal 0.883512 0 -0.468408
      outer loop
         vertex 0.111384 0.055 -0.0245914
         vertex 0.111384 0.0374954 -0.0245914
         vertex 0.108454 0.0374954 -0.0294623
      endloop
   endfacet
   facet normal 0.827689 0 -0.561187
      outer loop
         vertex 0.108454 0.055 -0.0294623
         vertex 0.108454 0.0374954 -0.0294623
         vertex 0.105014 0.0374954 -0.0339878
      endloop
   endfacet
   facet normal 0.762162 0 -0.647386
      outer loop
         vertex 0.105014 0.055 -0.0339878
         vertex 0.105014 0.0374954 -0.0339878
         vertex 0.101104 0.0374954 -0.0381148
      endloop
   endfacet
   facet normal 0.687699 0 -0.725995
      outer loop
         vertex 0.101104 0.055 -0.0381148
         vertex 0.101104 0.0374954 -0.0381148
         vertex 0.0967716 0.0374954 -0.0417949
      endloop
   endfacet
   facet normal 0.605174 0 -0.796093
      outer loop
         vertex 0.0967716 0.055 -0.0417949
         vertex 0.0967716 0.0374954 -0.0417949
         vertex 0.0920666 0.0374954 -0.044985
      endloop
   endfacet
   facet normal 0.515554 0 -0.856857
      outer loop
         vertex 0.0920666 0.055 -0.044985
         vertex 0.0920666 0.0374954 -0.044985
         vertex 0.0870442 0.0374954 -0.0476477
      endloop
   endfacet
   facet normal 0.419889 0 -0.907575
      outer loop
         vertex 0.0870442 0.055 -0.0476477
         vertex 0.0870442 0.0374954 -0.0476477
         vertex 0.0817633 0.0374954 -0.0497518
      endloop
   endfacet
   facet normal 0.319302 0 -0.947653
      outer loop
         vertex 0.0817633 0.055 -0.0497518
         vertex 0.0817633 0.0374954 -0.0497518
         vertex 0.0762859 0.0374954 -0.0512726
      endloop
   endfacet
   facet normal 0.21497 0 -0.976621
      outer loop
         vertex 0.0762859 0.055 -0.0512726
         vertex 0.0762859 0.0374954 -0.0512726
         vertex 0.0706762 0.0374954 -0.0521922
      endloop
   endfacet
   facet normal 0.108119 0 -0.994138
      outer loop
         vertex 0.0706762 0.055 -0.0521922
         vertex 0.0706762 0.0374954 -0.0521922
         vertex 0.065 0.0374954 -0.0525
      endloop
   endfacet
   facet normal 0 -1 0
      outer loop
         vertex 0.105014 0.0374954 -0.0339878
         vertex 0.0920666 0.0374954 -0.044985
         vertex 0.0967716 0.0374954 -0.0417949
      endloop
   endfacet
   facet normal 0 -1 0
      outer loop
         vertex 0.105014 0.0374954 -0.0339878
         vertex 0.0817633 0.0374954 -0.0497518
         vertex 0.0870442 0.0374954 -0.0476477
      endloop
   endfacet
   facet normal 0 -1 0
      outer loop
         vertex 0.105014 0.0374954 -0.0339878
         vertex 0.065 0.0374954 -0.0525
         vertex 0.0706762 0.0374954 -0.0521922
      endloop
   endfacet
   facet normal 0 -1 0
      outer loop
         vertex 0.065 0.0374954 -0.0525
         vertex 0.0817633 0.0374954 0.0497518
         vertex 0.0762859 0.0374954 0.0512726
      endloop
   endfacet
   facet normal 0 -1 0
      outer loop
         vertex 0.065 0.0374954 -0.0525
         vertex 0.108454 0.0374954 0.0294623
         vertex 0.105014 0.0374954 0.0339878
      endloop
   endfacet
   facet normal 0 -1 0
      outer loop
         vertex 0.065 0.0374954 -0.0525
         vertex 0.113771 0.0374954 -0.0194323
         vertex 0.115586 0.0374954 -0.0140452
      endloop
   endfacet
   facet normal 0 -1 0
      outer loop
         vertex 0.065 0.0374954 -0.0525
         vertex 0.105014 0.0374954 -0.0339878
         vertex 0.108454 0.0374954 -0.0294623
      endloop
   endfacet
   facet normal 0 -1 0
      outer loop
         vertex 0.0870442 0.0374954 -0.0476477
         vertex 0.0920666 0.0374954 -0.044985
         vertex 0.105014 0.0374954 -0.0339878
      endloop
   endfacet
   facet normal 0 -1 0
      outer loop
         vertex 0.0706762 0.0374954 -0.0521922
         vertex 0.0762859 0.0374954 -0.0512726
         vertex 0.105014 0.0374954 -0.0339878
      endloop
   endfacet
   facet normal 0 -1 0
      outer loop
         vertex 0.065 0.0374954 -0.0525
         vertex 0.0870442 0.0374954 0.0476477
         vertex 0.0817633 0.0374954 0.0497518
      endloop
   endfacet
   facet normal 0 -1 0
      outer loop
         vertex 0.065 0.0374954 -0.0525
         vertex 0.0967716 0.0374954 0.0417949
         vertex 0.0920666 0.0374954 0.044985
      endloop
   endfacet
   facet normal 0 -1 0
      outer loop
         vertex 0.105014 0.0374954 0.0339878
         vertex 0.101104 0.0374954 0.0381148
         vertex 0.065 0.0374954 -0.0525
      endloop
   endfacet
   facet normal 0 -1 0
      outer loop
         vertex 0.115586 0.0374954 -0.0140452
         vertex 0.116808 0.0374954 -0.00849355
         vertex 0.065 0.0374954 -0.0525
      endloop
   endfacet
   facet normal 0 -1 0
      outer loop
         vertex 0.108454 0.0374954 -0.0294623
         vertex 0.111384 0.0374954 -0.0245914
         vertex 0.065 0.0374954 -0.0525
      endloop
   endfacet
   facet normal 0 -1 0
      outer loop
         vertex 0.0762859 0.0374954 -0.0512726
         vertex 0.0817633 0.0374954 -0.0497518
         vertex 0.105014 0.0374954 -0.0339878
      endloop
   endfacet
   facet normal 0 -1 0
      outer loop
         vertex 0.0920666 0.0374954 0.044985
         vertex 0.0870442 0.0374954 0.0476477
         vertex 0.065 0.0374954 -0.0525
      endloop
   endfacet
   facet normal 0 -1 0
      outer loop
         vertex 0.065 0.0374954 -0.0525
         vertex 0.111384 0.0374954 0.0245914
         vertex 0.108454 0.0374954 0.0294623
      endloop
   endfacet
   facet normal 0 -1 0
      outer loop
         vertex 0.065 0.0374954 -0.0525
         vertex 0.115586 0.0374954 0.0140452
         vertex 0.113771 0.0374954 0.0194323
      endloop
   endfacet
   facet normal 0 -1 0
      outer loop
         vertex 0.116808 0.0374954 -0.00849355
         vertex 0.117423 0.0374954 -0.00284229
         vertex 0.065 0.0374954 -0.0525
      endloop
   endfacet
   facet normal 0 -1 0
      outer loop
         vertex 0.0967716 0.0374954 -0.0417949
         vertex 0.101104 0.0374954 -0.0381148
         vertex 0.105014 0.0374954 -0.0339878
      endloop
   endfacet
   facet normal 0 -1 0
      outer loop
         vertex 0.0762859 0.0374954 0.0512726
         vertex 0.0706762 0.0374954 0.0521922
         vertex 0.065 0.0374954 -0.0525
      endloop
   endfacet
   facet normal 0 -1 0
      outer loop
         vertex 0.113771 0.0374954 0.0194323
         vertex 0.111384 0.0374954 0.0245914
         vertex 0.065 0.0374954 -0.0525
      endloop
   endfacet
   facet normal 0 -1 0
      outer loop
         vertex 0.065 0.0374954 -0.0525
         vertex 0.117423 0.0374954 0.00284229
         vertex 0.116808 0.0374954 0.00849355
      endloop
   endfacet
   facet normal 0 -1 0
      outer loop
         vertex 0.111384 0.0374954 -0.0245914
         vertex 0.113771 0.0374954 -0.0194323
         vertex 0.065 0.0374954 -0.0525
      endloop
   endfacet
   facet normal 0 -1 0
      outer loop
         vertex 0.101104 0.0374954 0.0381148
         vertex 0.0967716 0.0374954 0.0417949
         vertex 0.065 0.0374954 -0.0525
      endloop
   endfacet
   facet normal 0 -1 0
      outer loop
         vertex 0.117423 0.0374954 -0.00284229
         vertex 0.117423 0.0374954 0.00284229
         vertex 0.065 0.0374954 -0.0525
      endloop
   endfacet
   facet normal 0 -1 0
      outer loop
         vertex 0.116808 0.0374954 0.00849355
         vertex 0.115586 0.0374954 0.0140452
         vertex 0.065 0.0374954 -0.0525
      endloop
   endfacet
   facet normal 0 -1 0
      outer loop
         vertex 0.016 0.0374954 0.0525
         vertex 0.016 0.0374954 -0.0525
         vertex 0.065 0.0374954 -0.0525
      endloop
   endfacet
   facet normal 0 -1 0
      outer loop
         vertex 0.065 0.0374954 -0.0525
         vertex 0.065 0.0374954 0.0525
         vertex 0.016 0.0374954 0.0525
      endloop
   endfacet
   facet normal 0 -1 0
      outer loop
         vertex 0.0706762 0.0374954 0.0521922
         vertex 0.065 0.0374954 0.0525
         vertex 0.065 0.0374954 -0.0525
      endloop
   endfacet
   facet normal 0 0 -1
      outer loop
         vertex 0.006 0.0198431 -0.0525
         vertex 0.006 0.055 -0.0525
         vertex 0.016 0.0374954 -0.0525
      endloop
   endfacet
   facet normal 0 0 -1
      outer loop
         vertex 0.065 0.055 -0.0525
         vertex 0.065 0.0374954 -0.0525
         vertex 0.016 0.0374954 -0.0525
      endloop
   endfacet
   facet normal 0 0 -1
      outer loop
         vertex 0.016 0.0374954 -0.0525
         vertex 0.006 0.055 -0.0525
         vertex 0.065 0.055 -0.0525
      endloop
   endfacet
   facet normal 0 0 -1
      outer loop
         vertex 0.016 0.0374954 -0.0525
         vertex 0.016 0.0198431 -0.0525
         vertex 0.006 0.0198431 -0.0525
      endloop
   endfacet
   facet normal 0 0 1
      outer loop
         vertex 0.065 0.055 0.0525
         vertex 0.006 0.055 0.0525
         vertex 0.016 0.0374954 0.0525
      endloop
   endfacet
   facet normal 0 0 1
      outer loop
         vertex 0.006 0.0198431 0.0525
         vertex 0.016 0.0198431 0.0525
         vertex 0.016 0.0374954 0.0525
      endloop
   endfacet
   facet normal 0 0 1
      outer loop
         vertex 0.016 0.0374954 0.0525
         vertex 0.006 0.055 0.0525
         vertex 0.006 0.0198431 0.0525
      endloop
   endfacet
   facet normal 0 0 1
      outer loop
         vertex 0.016 0.0374954 0.0525
         vertex 0.065 0.0374954 0.0525
         vertex 0.065 0.055 0.0525
      endloop
   endfacet
   facet normal 0 0.0834547 -0.996512
      outer loop
         vertex 0.006 0.0177568 -0.0525872
         vertex 0.006 0.0198431 -0.0525
         vertex 0.016 0.0198431 -0.0525
      endloop
   endfacet
   facet normal 0 0.166327 -0.986071
      outer loop
         vertex 0.006 0.015685 -0.0528482
         vertex 0.006 0.0177568 -0.0525872
         vertex 0.016 0.0177568 -0.0525872
      endloop
   endfacet
   facet normal 0 0.248039 -0.96875
      outer loop
         vertex 0.006 0.0136422 -0.0532813
         vertex 0.006 0.015685 -0.0528482
         vertex 0.016 0.015685 -0.0528482
      endloop
   endfacet
   facet normal 0 0.166327 -0.986071
      outer loop
         vertex 0.016 0.015685 -0.0528482
         vertex 0.016 0.0136422 -0.0532813
         vertex 0.006 0.0136422 -0.0532813
      endloop
   endfacet
   facet normal 0 0.0834547 -0.996512
      outer loop
         vertex 0.016 0.0177568 -0.0525872
         vertex 0.016 0.015685 -0.0528482
         vertex 0.006 0.015685 -0.0528482
      endloop
   endfacet
   facet normal 0 1.22465e-16 -1
      outer loop
         vertex 0.016 0.0198431 -0.0525
         vertex 0.016 0.0177568 -0.0525872
         vertex 0.006 0.0177568 -0.0525872
      endloop
   endfacet
   facet normal 0 0.248039 -0.96875
      outer loop
         vertex 0.006 0.0136422 -0.0532813
         vertex 0.016 0.0136422 -0.0532813
         vertex 0.016 0.00824049 -0.0543792
      endloop
   endfacet
   facet normal 0 0.149827 -0.988712
      outer loop
         vertex 0.006 0.00824049 -0.0543792
         vertex 0.016 0.00824049 -0.0543792
         vertex 0.016 0.00275606 -0.0549309
      endloop
   endfacet
   facet normal 0 0.0501101 -0.998744
      outer loop
         vertex 0.006 0.00275606 -0.0549309
         vertex 0.016 0.00275606 -0.0549309
         vertex 0.016 -0.00275606 -0.0549309
      endloop
   endfacet
   facet normal 0 -0.0501101 -0.998744
      outer loop
         vertex 0.006 -0.00275606 -0.0549309
         vertex 0.016 -0.00275606 -0.0549309
         vertex 0.016 -0.00824049 -0.0543792
      endloop
   endfacet
   facet normal 0 -0.149827 -0.988712
      outer loop
         vertex 0.006 -0.00824049 -0.0543792
         vertex 0.016 -0.00824049 -0.0543792
         vertex 0.016 -0.0136422 -0.0532813
      endloop
   endfacet
   facet normal 0 -0.248039 -0.96875
      outer loop
         vertex 0.016 -0.0136422 -0.0532813
         vertex 0.006 -0.0136422 -0.0532813
         vertex 0.006 -0.00824049 -0.0543792
      endloop
   endfacet
   facet normal 0 -0.149827 -0.988712
      outer loop
         vertex 0.016 -0.00824049 -0.0543792
         vertex 0.006 -0.00824049 -0.0543792
         vertex 0.006 -0.00275606 -0.0549309
      endloop
   endfacet
   facet normal 0 -0.0501101 -0.998744
      outer loop
         vertex 0.016 -0.00275606 -0.0549309
         vertex 0.006 -0.00275606 -0.0549309
         vertex 0.006 0.00275606 -0.0549309
      endloop
   endfacet
   facet normal 0 0.0501101 -0.998744
      outer loop
         vertex 0.016 0.00275606 -0.0549309
         vertex 0.006 0.00275606 -0.0549309
         vertex 0.006 0.00824049 -0.0543792
      endloop
   endfacet
   facet normal 0 0.149827 -0.988712
      outer loop
         vertex 0.016 0.00824049 -0.0543792
         vertex 0.006 0.00824049 -0.0543792
         vertex 0.006 0.0136422 -0.0532813
      endloop
   endfacet
   facet normal 0 -0.166327 -0.986071
      outer loop
         vertex 0.006 -0.015685 -0.0528482
         vertex 0.006 -0.0136422 -0.0532813
         vertex 0.016 -0.0136422 -0.0532813
      endloop
   endfacet
   facet normal 0 -0.0834547 -0.996512
      outer loop
         vertex 0.006 -0.0177568 -0.0525872
         vertex 0.006 -0.015685 -0.0528482
         vertex 0.016 -0.015685 -0.0528482
      endloop
   endfacet
   facet normal 0 1.22465e-16 -1
      outer loop
         vertex 0.006 -0.0198431 -0.0525
         vertex 0.006 -0.0177568 -0.0525872
         vertex 0.016 -0.0177568 -0.0525872
      endloop
   endfacet
   facet normal 0 -0.0834547 -0.996512
      outer loop
         vertex 0.016 -0.0177568 -0.0525872
         vertex 0.016 -0.0198431 -0.0525
         vertex 0.006 -0.0198431 -0.0525
      endloop
   endfacet
   facet normal 0 -0.166327 -0.986071
      outer loop
         vertex 0.016 -0.015685 -0.0528482
         vertex 0.016 -0.0177568 -0.0525872
         vertex 0.006 -0.0177568 -0.0525872
      endloop
   endfacet
   facet normal 0 -0.248039 -0.96875
      outer loop
         vertex 0.016 -0.0136422 -0.0532813
         vertex 0.016 -0.015685 -0.0528482
         vertex 0.006 -0.015685 -0.0528482
      endloop
   endfacet
   facet normal 0 0.166327 0.986071
      outer loop
         vertex 0.006 0.015685 0.0528482
         vertex 0.006 0.0136422 0.0532813
         vertex 0.016 0.0136422 0.0532813
      endloop
   endfacet
   facet normal 0 0.0834547 0.996512
      outer loop
         vertex 0.006 0.0177568 0.0525872
         vertex 0.006 0.015685 0.0528482
         vertex 0.016 0.015685 0.0528482
      endloop
   endfacet
   facet normal 0 -1.22465e-16 1
      outer loop
         vertex 0.006 0.0198431 0.0525
         vertex 0.006 0.0177568 0.0525872
         vertex 0.016 0.0177568 0.0525872
      endloop
   endfacet
   facet normal 0 0.0834547 0.996512
      outer loop
         vertex 0.016 0.0177568 0.0525872
         vertex 0.016 0.0198431 0.0525
         vertex 0.006 0.0198431 0.0525
      endloop
   endfacet
   facet normal 0 0.166327 0.986071
      outer loop
         vertex 0.016 0.015685 0.0528482
         vertex 0.016 0.0177568 0.0525872
         vertex 0.006 0.0177568 0.0525872
      endloop
   endfacet
   facet normal 0 0.248039 0.96875
      outer loop
         vertex 0.016 0.0136422 0.0532813
         vertex 0.016 0.015685 0.0528482
         vertex 0.006 0.015685 0.0528482
      endloop
   endfacet
   facet normal 0 -0.248039 0.96875
      outer loop
         vertex 0.006 -0.0136422 0.0532813
         vertex 0.016 -0.0136422 0.0532813
         vertex 0.016 -0.00824049 0.0543792
      endloop
   endfacet
   facet normal 0 -0.149827 0.988712
      outer loop
         vertex 0.006 -0.00824049 0.0543792
         vertex 0.016 -0.00824049 0.0543792
         vertex 0.016 -0.00275606 0.0549309
      endloop
   endfacet
   facet normal 0 -0.0501101 0.998744
      outer loop
         vertex 0.006 -0.00275606 0.0549309
         vertex 0.016 -0.00275606 0.0549309
         vertex 0.016 0.00275606 0.0549309
      endloop
   endfacet
   facet normal 0 0.0501101 0.998744
      outer loop
         vertex 0.006 0.00275606 0.0549309
         vertex 0.016 0.00275606 0.0549309
         vertex 0.016 0.00824049 0.0543792
      endloop
   endfacet
   facet normal 0 0.149827 0.988712
      outer loop
         vertex 0.006 0.00824049 0.0543792
         vertex 0.016 0.00824049 0.0543792
         vertex 0.016 0.0136422 0.0532813
      endloop
   endfacet
   facet normal 0 0.248039 0.96875
      outer loop
         vertex 0.016 0.0136422 0.0532813
         vertex 0.006 0.0136422 0.0532813
         vertex 0.006 0.00824049 0.0543792
      endloop
   endfacet
   facet normal 0 0.149827 0.988712
      outer loop
         vertex 0.016 0.00824049 0.0543792
         vertex 0.006 0.00824049 0.0543792
         vertex 0.006 0.00275606 0.0549309
      endloop
   endfacet
   facet normal 0 0.0501101 0.998744
      outer loop
         vertex 0.016 0.00275606 0.0549309
         vertex 0.006 0.00275606 0.0549309
         vertex 0.006 -0.00275606 0.0549309
      endloop
   endfacet
   facet normal 0 -0.0501101 0.998744
      outer loop
         vertex 0.016 -0.00275606 0.0549309
         vertex 0.006 -0.00275606 0.0549309
         vertex 0.006 -0.00824049 0.0543792
      endloop
   endfacet
   facet normal 0 -0.149827 0.988712
      outer loop
         vertex 0.016 -0.00824049 0.0543792
         vertex 0.006 -0.00824049 0.0543792
         vertex 0.006 -0.0136422 0.0532813
      endloop
   endfacet
   facet normal 0 -0.0834547 0.996512
      outer loop
         vertex 0.006 -0.0177568 0.0525872
         vertex 0.006 -0.0198431 0.0525
         vertex 0.016 -0.0198431 0.0525
      endloop
   endfacet
   facet normal 0 -0.166327 0.986071
      outer loop
         vertex 0.006 -0.015685 0.0528482
         vertex 0.006 -0.0177568 0.0525872
         vertex 0.016 -0.0177568 0.0525872
      endloop
   endfacet
   facet normal 0 -0.248039 0.96875
      outer loop
         vertex 0.006 -0.0136422 0.0532813
         vertex 0.006 -0.015685 0.0528482
         vertex 0.016 -0.015685 0.0528482
      endloop
   endfacet
   facet normal 0 -0.166327 0.986071
      outer loop
         vertex 0.016 -0.015685 0.0528482
         vertex 0.016 -0.0136422 0.0532813
         vertex 0.006 -0.0136422 0.0532813
      endloop
   endfacet
   facet normal 0 -0.0834547 0.996512
      outer loop
         vertex 0.016 -0.0177568 0.0525872
         vertex 0.016 -0.015685 0.0528482
         vertex 0.006 -0.015685 0.0528482
      endloop
   endfacet
   facet normal 0 -1.22465e-16 1
      outer loop
         vertex 0.016 -0.0198431 0.0525
         vertex 0.016 -0.0177568 0.0525872
         vertex 0.006 -0.0177568 0.0525872
      endloop
   endfacet
   facet normal 1 0 0
      outer loop
         vertex 0.016 -0.00275606 0.0549309
         vertex 0.016 -0.00275606 -0.0549309
         vertex 0.016 0.00275606 -0.0549309
      endloop
   endfacet
   facet normal 1 0 0
      outer loop
         vertex 0.016 -0.00275606 0.0549309
         vertex 0.016 -0.0136422 -0.0532813
         vertex 0.016 -0.00824049 -0.0543792
      endloop
   endfacet
   facet normal 1 0 0
      outer loop
         vertex 0.016 -0.00824049 -0.0543792
         vertex 0.016 -0.00275606 -0.0549309
         vertex 0.016 -0.00275606 0.0549309
      endloop
   endfacet
   facet normal 1 0 0
      outer loop
         vertex 0.016 0.00275606 -0.0549309
         vertex 0.016 0.00824049 -0.0543792
         vertex 0.016 -0.00275606 0.0549309
      endloop
   endfacet
   facet normal 1 0 0
      outer loop
         vertex 0.016 -0.0374954 -0.0525
         vertex 0.016 -0.0198431 -0.0525
         vertex 0.016 -0.0198431 0.0525
      endloop
   endfacet
   facet normal 1 0 0
      outer loop
         vertex 0.016 0.00824049 -0.0543792
         vertex 0.016 0.0136422 -0.0532813
         vertex 0.016 -0.00275606 0.0549309
      endloop
   endfacet
   facet normal 1 0 0
      outer loop
         vertex 0.016 -0.0198431 0.0525
         vertex 0.016 -0.0374954 0.0525
         vertex 0.016 -0.0374954 -0.0525
      endloop
   endfacet
   facet normal 1 0 0
      outer loop
         vertex 0.016 0.0374954 0.0525
         vertex 0.016 0.0198431 0.0525
         vertex 0.016 0.0198431 -0.0525
      endloop
   endfacet
   facet normal 1 0 0
      outer loop
         vertex 0.016 0.015685 -0.0528482
         vertex 0.016 0.0177568 -0.0525872
         vertex 0.016 0.00824049 0.0543792
      endloop
   endfacet
   facet normal 1 0 0
      outer loop
         vertex 0.016 -0.00275606 0.0549309
         vertex 0.016 -0.015685 -0.0528482
         vertex 0.016 -0.0136422 -0.0532813
      endloop
   endfacet
   facet normal 1 0 0
      outer loop
         vertex 0.016 -0.015685 -0.0528482
         vertex 0.016 -0.00275606 0.0549309
         vertex 0.016 -0.00824049 0.0543792
      endloop
   endfacet
   facet normal 1 0 0
      outer loop
         vertex 0.016 -0.0177568 -0.0525872
         vertex 0.016 -0.0177568 0.0525872
         vertex 0.016 -0.0198431 0.0525
      endloop
   endfacet
   facet normal 1 0 0
      outer loop
         vertex 0.016 0.0177568 -0.0525872
         vertex 0.016 0.015685 0.0528482
         vertex 0.016 0.0136422 0.0532813
      endloop
   endfacet
   facet normal 1 0 0
      outer loop
         vertex 0.016 0.0198431 0.0525
         vertex 0.016 0.0177568 -0.0525872
         vertex 0.016 0.0198431 -0.0525
      endloop
   endfacet
   facet normal 1 0 0
      outer loop
         vertex 0.016 0.00824049 0.0543792
         vertex 0.016 0.00275606 0.0549309
         vertex 0.016 0.015685 -0.0528482
      endloop
   endfacet
   facet normal 1 0 0
      outer loop
         vertex 0.016 -0.00824049 0.0543792
         vertex 0.016 -0.0177568 -0.0525872
         vertex 0.016 -0.015685 -0.0528482
      endloop
   endfacet
   facet normal 1 0 0
      outer loop
         vertex 0.016 -0.0177568 -0.0525872
         vertex 0.016 -0.015685 0.0528482
         vertex 0.016 -0.0177568 0.0525872
      endloop
   endfacet
   facet normal 1 0 0
      outer loop
         vertex 0.016 -0.0177568 -0.0525872
         vertex 0.016 -0.00824049 0.0543792
         vertex 0.016 -0.0136422 0.0532813
      endloop
   endfacet
   facet normal 1 0 0
      outer loop
         vertex 0.016 0.0177568 -0.0525872
         vertex 0.016 0.0177568 0.0525872
         vertex 0.016 0.015685 0.0528482
      endloop
   endfacet
   facet normal 1 0 0
      outer loop
         vertex 0.016 0.0198431 -0.0525
         vertex 0.016 0.0374954 -0.0525
         vertex 0.016 0.0374954 0.0525
      endloop
   endfacet
   facet normal 1 0 0
      outer loop
         vertex 0.016 0.0136422 -0.0532813
         vertex 0.016 0.015685 -0.0528482
         vertex 0.016 -0.00275606 0.0549309
      endloop
   endfacet
   facet normal 1 0 0
      outer loop
         vertex 0.016 -0.0136422 0.0532813
         vertex 0.016 -0.015685 0.0528482
         vertex 0.016 -0.0177568 -0.0525872
      endloop
   endfacet
   facet normal 1 0 0
      outer loop
         vertex 0.016 0.0198431 0.0525
         vertex 0.016 0.0177568 0.0525872
         vertex 0.016 0.0177568 -0.0525872
      endloop
   endfacet
   facet normal 1 0 0
      outer loop
         vertex 0.016 -0.0198431 -0.0525
         vertex 0.016 -0.0177568 -0.0525872
         vertex 0.016 -0.0198431 0.0525
      endloop
   endfacet
   facet normal 1 0 0
      outer loop
         vertex 0.016 0.00275606 0.0549309
         vertex 0.016 -0.00275606 0.0549309
         vertex 0.016 0.015685 -0.0528482
      endloop
   endfacet
   facet normal 1 0 0
      outer loop
         vertex 0.016 0.0136422 0.0532813
         vertex 0.016 0.00824049 0.0543792
         vertex 0.016 0.0177568 -0.0525872
      endloop
   endfacet
   facet normal -1 0 0
      outer loop
         vertex 0.006 0.00275606 0.0549309
         vertex 0.006 0.00824049 -0.0543792
         vertex 0.006 0.00275606 -0.0549309
      endloop
   endfacet
   facet normal -1 0 0
      outer loop
         vertex 0.006 0.00275606 0.0549309
         vertex 0.006 0.0136422 -0.0532813
         vertex 0.006 0.00824049 -0.0543792
      endloop
   endfacet
   facet normal -1 0 0
      outer loop
         vertex 0.006 0.00275606 -0.0549309
         vertex 0.006 -0.00275606 -0.0549309
         vertex 0.006 0.00275606 0.0549309
      endloop
   endfacet
   facet normal -1 0 0
      outer loop
         vertex 0.006 -0.055 0.0525
         vertex 0.006 -0.0198431 0.0525
         vertex 0.006 -0.0198431 -0.0525
      endloop
   endfacet
   facet normal -1 0 0
      outer loop
         vertex 0.006 -0.00275606 -0.0549309
         vertex 0.006 -0.00824049 -0.0543792
         vertex 0.006 0.00275606 0.0549309
      endloop
   endfacet
   facet normal -1 0 0
      outer loop
         vertex 0.006 -0.0198431 0.0525
         vertex 0.006 -0.0177568 -0.0525872
         vertex 0.006 -0.0198431 -0.0525
      endloop
   endfacet
   facet normal -1 0 0
      outer loop
         vertex 0.006 -0.00824049 -0.0543792
         vertex 0.006 -0.0136422 -0.0532813
         vertex 0.006 0.00275606 0.0549309
      endloop
   endfacet
   facet normal -1 0 0
      outer loop
         vertex 0.006 -0.0198431 -0.0525
         vertex 0.006 -0.055 -0.0525
         vertex 0.006 -0.055 0.0525
      endloop
   endfacet
   facet normal -1 0 0
      outer loop
         vertex 0.006 -0.015685 -0.0528482
         vertex 0.006 -0.0177568 -0.0525872
         vertex 0.006 -0.00824049 0.0543792
      endloop
   endfacet
   facet normal -1 0 0
      outer loop
         vertex 0.006 0.00275606 0.0549309
         vertex 0.006 0.015685 -0.0528482
         vertex 0.006 0.0136422 -0.0532813
      endloop
   endfacet
   facet normal -1 0 0
      outer loop
         vertex 0.006 0.015685 -0.0528482
         vertex 0.006 0.00275606 0.0549309
         vertex 0.006 0.00824049 0.0543792
      endloop
   endfacet
   facet normal -1 0 0
      outer loop
         vertex 0.006 0.055 -0.0525
         vertex 0.006 0.0198431 -0.0525
         vertex 0.006 0.0198431 0.0525
      endloop
   endfacet
   facet normal -1 0 0
      outer loop
         vertex 0.006 -0.0177568 -0.0525872
         vertex 0.006 -0.015685 0.0528482
         vertex 0.006 -0.0136422 0.0532813
      endloop
   endfacet
   facet normal -1 0 0
      outer loop
         vertex 0.006 -0.0198431 0.0525
         vertex 0.006 -0.0177568 0.0525872
         vertex 0.006 -0.0177568 -0.0525872
      endloop
   endfacet
   facet normal -1 0 0
      outer loop
         vertex 0.006 -0.00824049 0.0543792
         vertex 0.006 -0.00275606 0.0549309
         vertex 0.006 -0.015685 -0.0528482
      endloop
   endfacet
   facet normal -1 0 0
      outer loop
         vertex 0.006 0.00824049 0.0543792
         vertex 0.006 0.0177568 -0.0525872
         vertex 0.006 0.015685 -0.0528482
      endloop
   endfacet
   facet normal -1 0 0
      outer loop
         vertex 0.006 0.0198431 0.0525
         vertex 0.006 0.055 0.0525
         vertex 0.006 0.055 -0.0525
      endloop
   endfacet
   facet normal -1 0 0
      outer loop
         vertex 0.006 0.0177568 -0.0525872
         vertex 0.006 0.00824049 0.0543792
         vertex 0.006 0.0136422 0.0532813
      endloop
   endfacet
   facet normal -1 0 0
      outer loop
         vertex 0.006 -0.0177568 0.0525872
         vertex 0.006 -0.015685 0.0528482
         vertex 0.006 -0.0177568 -0.0525872
      endloop
   endfacet
   facet normal -1 0 0
      outer loop
         vertex 0.006 -0.0136422 -0.0532813
         vertex 0.006 -0.015685 -0.0528482
         vertex 0.006 0.00275606 0.0549309
      endloop
   endfacet
   facet normal -1 0 0
      outer loop
         vertex 0.006 0.0177568 -0.0525872
         vertex 0.006 0.0177568 0.0525872
         vertex 0.006 0.0198431 0.0525
      endloop
   endfacet
   facet normal -1 0 0
      outer loop
         vertex 0.006 0.0136422 0.0532813
         vertex 0.006 0.015685 0.0528482
         vertex 0.006 0.0177568 -0.0525872
      endloop
   endfacet
   facet normal -1 0 0
      outer loop
         vertex 0.006 -0.00275606 0.0549309
         vertex 0.006 0.00275606 0.0549309
         vertex 0.006 -0.015685 -0.0528482
      endloop
   endfacet
   facet normal -1 0 0
      outer loop
         vertex 0.006 0.015685 0.0528482
         vertex 0.006 0.0177568 0.0525872
         vertex 0.006 0.0177568 -0.0525872
      endloop
   endfacet
   facet normal -1 0 0
      outer loop
         vertex 0.006 0.0198431 -0.0525
         vertex 0.006 0.0177568 -0.0525872
         vertex 0.006 0.0198431 0.0525
      endloop
   endfacet
   facet normal -1 0 0
      outer loop
         vertex 0.006 -0.0136422 0.0532813
         vertex 0.006 -0.00824049 0.0543792
         vertex 0.006 -0.0177568 -0.0525872
      endloop
   endfacet
   facet normal 0 0 1
      outer loop
         vertex 0.006 -0.0198431 0.0525
         vertex 0.006 -0.055 0.0525
         vertex 0.016 -0.0374954 0.0525
      endloop
   endfacet
   facet normal 0 0 1
      outer loop
         vertex 0.065 -0.055 0.0525
         vertex 0.065 -0.0374954 0.0525
         vertex 0.016 -0.0374954 0.0525
      endloop
   endfacet
   facet normal 0 0 1
      outer loop
         vertex 0.016 -0.0374954 0.0525
         vertex 0.006 -0.055 0.0525
         vertex 0.065 -0.055 0.0525
      endloop
   endfacet
   facet normal 0 0 1
      outer loop
         vertex 0.016 -0.0374954 0.0525
         vertex 0.016 -0.0198431 0.0525
         vertex 0.006 -0.0198431 0.0525
      endloop
   endfacet
   facet normal 0 0 -1
      outer loop
         vertex 0.065 -0.055 -0.0525
         vertex 0.006 -0.055 -0.0525
         vertex 0.016 -0.0374954 -0.0525
      endloop
   endfacet
   facet normal 0 0 -1
      outer loop
         vertex 0.006 -0.0198431 -0.0525
         vertex 0.016 -0.0198431 -0.0525
         vertex 0.016 -0.0374954 -0.0525
      endloop
   endfacet
   facet normal 0 0 -1
      outer loop
         vertex 0.016 -0.0374954 -0.0525
         vertex 0.006 -0.055 -0.0525
         vertex 0.006 -0.0198431 -0.0525
      endloop
   endfacet
   facet normal 0 0 -1
      outer loop
         vertex 0.016 -0.0374954 -0.0525
         vertex 0.065 -0.0374954 -0.0525
         vertex 0.065 -0.055 -0.0525
      endloop
   endfacet
   facet normal 0 -1 0
      outer loop
         vertex 0.113771 -0.055 0.0194323
         vertex 0.117423 -0.055 0.00284229
         vertex 0.116808 -0.055 0.00849355
      endloop
   endfacet
   facet normal 0 -1 0
      outer loop
         vertex 0.113771 -0.055 0.0194323
         vertex 0.113771 -0.055 -0.0194323
         vertex 0.115586 -0.055 -0.0140452
      endloop
   endfacet
   facet normal 0 -1 0
      outer loop
         vertex 0.113771 -0.055 0.0194323
         vertex 0.108454 -0.055 -0.0294623
         vertex 0.111384 -0.055 -0.0245914
      endloop
   endfacet
   facet normal 0 -1 0
      outer loop
         vertex 0.0967716 -0.055 -0.0417949
         vertex 0.0870442 -0.055 0.0476477
         vertex 0.0817633 -0.055 0.0497518
      endloop
   endfacet
   facet normal 0 -1 0
      outer loop
         vertex 0.0967716 -0.055 -0.0417949
         vertex 0.105014 -0.055 0.0339878
         vertex 0.101104 -0.055 0.0381148
      endloop
   endfacet
   facet normal 0 -1 0
      outer loop
         vertex 0.113771 -0.055 0.0194323
         vertex 0.117423 -0.055 -0.00284229
         vertex 0.117423 -0.055 0.00284229
      endloop
   endfacet
   facet normal 0 -1 0
      outer loop
         vertex 0.115586 -0.055 -0.0140452
         vertex 0.116808 -0.055 -0.00849355
         vertex 0.113771 -0.055 0.0194323
      endloop
   endfacet
   facet normal 0 -1 0
      outer loop
         vertex 0.113771 -0.055 0.0194323
         vertex 0.105014 -0.055 -0.0339878
         vertex 0.108454 -0.055 -0.0294623
      endloop
   endfacet
   facet normal 0 -1 0
      outer loop
         vertex 0.113771 -0.055 0.0194323
         vertex 0.0967716 -0.055 -0.0417949
         vertex 0.101104 -0.055 -0.0381148
      endloop
   endfacet
   facet normal 0 -1 0
      outer loop
         vertex 0.0817633 -0.055 0.0497518
         vertex 0.0762859 -0.055 0.0512726
         vertex 0.0967716 -0.055 -0.0417949
      endloop
   endfacet
   facet normal 0 -1 0
      outer loop
         vertex 0.0967716 -0.055 -0.0417949
         vertex 0.0967716 -0.055 0.0417949
         vertex 0.0920666 -0.055 0.044985
      endloop
   endfacet
   facet normal 0 -1 0
      outer loop
         vertex 0.0967716 -0.055 -0.0417949
         vertex 0.108454 -0.055 0.0294623
         vertex 0.105014 -0.055 0.0339878
      endloop
   endfacet
   facet normal 0 -1 0
      outer loop
         vertex 0.0967716 -0.055 -0.0417949
         vertex 0.113771 -0.055 0.0194323
         vertex 0.111384 -0.055 0.0245914
      endloop
   endfacet
   facet normal 0 -1 0
      outer loop
         vertex 0.116808 -0.055 -0.00849355
         vertex 0.117423 -0.055 -0.00284229
         vertex 0.113771 -0.055 0.0194323
      endloop
   endfacet
   facet normal 0 -1 0
      outer loop
         vertex 0.101104 -0.055 -0.0381148
         vertex 0.105014 -0.055 -0.0339878
         vertex 0.113771 -0.055 0.0194323
      endloop
   endfacet
   facet normal 0 -1 0
      outer loop
         vertex 0.065 -0.055 0.0525
         vertex 0.0870442 -0.055 -0.0476477
         vertex 0.0920666 -0.055 -0.044985
      endloop
   endfacet
   facet normal 0 -1 0
      outer loop
         vertex 0.0920666 -0.055 0.044985
         vertex 0.0870442 -0.055 0.0476477
         vertex 0.0967716 -0.055 -0.0417949
      endloop
   endfacet
   facet normal 0 -1 0
      outer loop
         vertex 0.111384 -0.055 0.0245914
         vertex 0.108454 -0.055 0.0294623
         vertex 0.0967716 -0.055 -0.0417949
      endloop
   endfacet
   facet normal 0 -1 0
      outer loop
         vertex 0.111384 -0.055 -0.0245914
         vertex 0.113771 -0.055 -0.0194323
         vertex 0.113771 -0.055 0.0194323
      endloop
   endfacet
   facet normal 0 -1 0
      outer loop
         vertex 0.065 -0.055 0.0525
         vertex 0.0817633 -0.055 -0.0497518
         vertex 0.0870442 -0.055 -0.0476477
      endloop
   endfacet
   facet normal 0 -1 0
      outer loop
         vertex 0.065 -0.055 0.0525
         vertex 0.0706762 -0.055 -0.0521922
         vertex 0.0762859 -0.055 -0.0512726
      endloop
   endfacet
   facet normal 0 -1 0
      outer loop
         vertex 0.0762859 -0.055 0.0512726
         vertex 0.0706762 -0.055 0.0521922
         vertex 0.0967716 -0.055 -0.0417949
      endloop
   endfacet
   facet normal 0 -1 0
      outer loop
         vertex 0.116808 -0.055 0.00849355
         vertex 0.115586 -0.055 0.0140452
         vertex 0.113771 -0.055 0.0194323
      endloop
   endfacet
   facet normal 0 -1 0
      outer loop
         vertex 0.0762859 -0.055 -0.0512726
         vertex 0.0817633 -0.055 -0.0497518
         vertex 0.065 -0.055 0.0525
      endloop
   endfacet
   facet normal 0 -1 0
      outer loop
         vertex 0.101104 -0.055 0.0381148
         vertex 0.0967716 -0.055 0.0417949
         vertex 0.0967716 -0.055 -0.0417949
      endloop
   endfacet
   facet normal 0 -1 0
      outer loop
         vertex 0.065 -0.055 0.0525
         vertex 0.065 -0.055 -0.0525
         vertex 0.0706762 -0.055 -0.0521922
      endloop
   endfacet
   facet normal 0 -1 0
      outer loop
         vertex 0.006 -0.055 -0.0525
         vertex 0.065 -0.055 -0.0525
         vertex 0.065 -0.055 0.0525
      endloop
   endfacet
   facet normal 0 -1 0
      outer loop
         vertex 0.0920666 -0.055 -0.044985
         vertex 0.0967716 -0.055 -0.0417949
         vertex 0.065 -0.055 0.0525
      endloop
   endfacet
   facet normal 0 -1 0
      outer loop
         vertex 0.0706762 -0.055 0.0521922
         vertex 0.065 -0.055 0.0525
         vertex 0.0967716 -0.055 -0.0417949
      endloop
   endfacet
   facet normal 0 -1 0
      outer loop
         vertex 0.065 -0.055 0.0525
         vertex 0.006 -0.055 0.0525
         vertex 0.006 -0.055 -0.0525
      endloop
   endfacet
   facet normal 0 0 1
      outer loop
         vertex 0.065 -0.0374954 0.0525
         vertex 0.065 -0.055 0.0525
         vertex 0.0706762 -0.055 0.0521922
      endloop
   endfacet
   facet normal 0.108119 0 0.994138
      outer loop
         vertex 0.0706762 -0.0374954 0.0521922
         vertex 0.0706762 -0.055 0.0521922
         vertex 0.0762859 -0.055 0.0512726
      endloop
   endfacet
   facet normal 0.21497 0 0.976621
      outer loop
         vertex 0.0762859 -0.0374954 0.0512726
         vertex 0.0762859 -0.055 0.0512726
         vertex 0.0817633 -0.055 0.0497518
      endloop
   endfacet
   facet normal 0.319302 0 0.947653
      outer loop
         vertex 0.0817633 -0.0374954 0.0497518
         vertex 0.0817633 -0.055 0.0497518
         vertex 0.0870442 -0.055 0.0476477
      endloop
   endfacet
   facet normal 0.419889 0 0.907575
      outer loop
         vertex 0.0870442 -0.0374954 0.0476477
         vertex 0.0870442 -0.055 0.0476477
         vertex 0.0920666 -0.055 0.044985
      endloop
   endfacet
   facet normal 0.515554 0 0.856857
      outer loop
         vertex 0.0920666 -0.0374954 0.044985
         vertex 0.0920666 -0.055 0.044985
         vertex 0.0967716 -0.055 0.0417949
      endloop
   endfacet
   facet normal 0.605174 0 0.796093
      outer loop
         vertex 0.0967716 -0.0374954 0.0417949
         vertex 0.0967716 -0.055 0.0417949
         vertex 0.101104 -0.055 0.0381148
      endloop
   endfacet
   facet normal 0.687699 0 0.725995
      outer loop
         vertex 0.101104 -0.0374954 0.0381148
         vertex 0.101104 -0.055 0.0381148
         vertex 0.105014 -0.055 0.0339878
      endloop
   endfacet
   facet normal 0.762162 0 0.647386
      outer loop
         vertex 0.105014 -0.0374954 0.0339878
         vertex 0.105014 -0.055 0.0339878
         vertex 0.108454 -0.055 0.0294623
      endloop
   endfacet
   facet normal 0.827689 0 0.561187
      outer loop
         vertex 0.108454 -0.0374954 0.0294623
         vertex 0.108454 -0.055 0.0294623
         vertex 0.111384 -0.055 0.0245914
      endloop
   endfacet
   facet normal 0.883512 0 0.468408
      outer loop
         vertex 0.111384 -0.0374954 0.0245914
         vertex 0.111384 -0.055 0.0245914
         vertex 0.113771 -0.055 0.0194323
      endloop
   endfacet
   facet normal 0.928977 0 0.370138
      outer loop
         vertex 0.113771 -0.0374954 0.0194323
         vertex 0.113771 -0.055 0.0194323
         vertex 0.115586 -0.055 0.0140452
      endloop
   endfacet
   facet normal 0.96355 0 0.267528
      outer loop
         vertex 0.115586 -0.0374954 0.0140452
         vertex 0.115586 -0.055 0.0140452
         vertex 0.116808 -0.055 0.00849355
      endloop
   endfacet
   facet normal 0.986827 0 0.161782
      outer loop
         vertex 0.116808 -0.0374954 0.00849355
         vertex 0.116808 -0.055 0.00849355
         vertex 0.117423 -0.055 0.00284229
      endloop
   endfacet
   facet normal 0.998533 0 0.0541389
      outer loop
         vertex 0.117423 -0.0374954 0.00284229
         vertex 0.117423 -0.055 0.00284229
         vertex 0.117423 -0.055 -0.00284229
      endloop
   endfacet
   facet normal 0.998533 0 -0.0541389
      outer loop
         vertex 0.117423 -0.0374954 -0.00284229
         vertex 0.117423 -0.055 -0.00284229
         vertex 0.116808 -0.055 -0.00849355
      endloop
   endfacet
   facet normal 0.986827 0 -0.161782
      outer loop
         vertex 0.116808 -0.0374954 -0.00849355
         vertex 0.116808 -0.055 -0.00849355
         vertex 0.115586 -0.055 -0.0140452
      endloop
   endfacet
   facet normal 0.96355 0 -0.267528
      outer loop
         vertex 0.115586 -0.0374954 -0.0140452
         vertex 0.115586 -0.055 -0.0140452
         vertex 0.113771 -0.055 -0.0194323
      endloop
   endfacet
   facet normal 0.928977 0 -0.370138
      outer loop
         vertex 0.113771 -0.0374954 -0.0194323
         vertex 0.113771 -0.055 -0.0194323
         vertex 0.111384 -0.055 -0.0245914
      endloop
   endfacet
   facet normal 0.883512 0 -0.468408
      outer loop
         vertex 0.111384 -0.0374954 -0.0245914
         vertex 0.111384 -0.055 -0.0245914
         vertex 0.108454 -0.055 -0.0294623
      endloop
   endfacet
   facet normal 0.827689 0 -0.561187
      outer loop
         vertex 0.108454 -0.0374954 -0.0294623
         vertex 0.108454 -0.055 -0.0294623
         vertex 0.105014 -0.055 -0.0339878
      endloop
   endfacet
   facet normal 0.762162 0 -0.647386
      outer loop
         vertex 0.105014 -0.0374954 -0.0339878
         vertex 0.105014 -0.055 -0.0339878
         vertex 0.101104 -0.055 -0.0381148
      endloop
   endfacet
   facet normal 0.687699 0 -0.725995
      outer loop
         vertex 0.101104 -0.0374954 -0.0381148
         vertex 0.101104 -0.055 -0.0381148
         vertex 0.0967716 -0.055 -0.0417949
      endloop
   endfacet
   facet normal 0.605174 0 -0.796093
      outer loop
         vertex 0.0967716 -0.0374954 -0.0417949
         vertex 0.0967716 -0.055 -0.0417949
         vertex 0.0920666 -0.055 -0.044985
      endloop
   endfacet
   facet normal 0.515554 0 -0.856857
      outer loop
         vertex 0.0920666 -0.0374954 -0.044985
         vertex 0.0920666 -0.055 -0.044985
         vertex 0.0870442 -0.055 -0.0476477
      endloop
   endfacet
   facet normal 0.419889 0 -0.907575
      outer loop
         vertex 0.0870442 -0.0374954 -0.0476477
         vertex 0.0870442 -0.055 -0.0476477
         vertex 0.0817633 -0.055 -0.0497518
      endloop
   endfacet
   facet normal 0.319302 0 -0.947653
      outer loop
         vertex 0.0817633 -0.0374954 -0.0497518
         vertex 0.0817633 -0.055 -0.0497518
         vertex 0.0762859 -0.055 -0.0512726
      endloop
   endfacet
   facet normal 0.21497 0 -0.976621
      outer loop
         vertex 0.0762859 -0.0374954 -0.0512726
         vertex 0.0762859 -0.055 -0.0512726
         vertex 0.0706762 -0.055 -0.0521922
      endloop
   endfacet
   facet normal 0.108119 0 -0.994138
      outer loop
         vertex 0.0706762 -0.0374954 -0.0521922
         vertex 0.0706762 -0.055 -0.0521922
         vertex 0.065 -0.055 -0.0525
      endloop
   endfacet
   facet normal 1.22465e-16 0 -1
      outer loop
         vertex 0.065 -0.055 -0.0525
         vertex 0.065 -0.0374954 -0.0525
         vertex 0.0706762 -0.0374954 -0.0521922
      endloop
   endfacet
   facet normal 0.108119 0 -0.994138
      outer loop
         vertex 0.0706762 -0.055 -0.0521922
         vertex 0.0706762 -0.0374954 -0.0521922
         vertex 0.0762859 -0.0374954 -0.0512726
      endloop
   endfacet
   facet normal 0.21497 0 -0.976621
      outer loop
         vertex 0.0762859 -0.055 -0.0512726
         vertex 0.0762859 -0.0374954 -0.0512726
         vertex 0.0817633 -0.0374954 -0.0497518
      endloop
   endfacet
   facet normal 0.319302 0 -0.947653
      outer loop
         vertex 0.0817633 -0.055 -0.0497518
         vertex 0.0817633 -0.0374954 -0.0497518
         vertex 0.0870442 -0.0374954 -0.0476477
      endloop
   endfacet
   facet normal 0.419889 0 -0.907575
      outer loop
         vertex 0.0870442 -0.055 -0.0476477
         vertex 0.0870442 -0.0374954 -0.0476477
         vertex 0.0920666 -0.0374954 -0.044985
      endloop
   endfacet
   facet normal 0.515554 0 -0.856857
      outer loop
         vertex 0.0920666 -0.055 -0.044985
         vertex 0.0920666 -0.0374954 -0.044985
         vertex 0.0967716 -0.0374954 -0.0417949
      endloop
   endfacet
   facet normal 0.605174 0 -0.796093
      outer loop
         vertex 0.0967716 -0.055 -0.0417949
         vertex 0.0967716 -0.0374954 -0.0417949
         vertex 0.101104 -0.0374954 -0.0381148
      endloop
   endfacet
   facet normal 0.687699 0 -0.725995
      outer loop
         vertex 0.101104 -0.055 -0.0381148
         vertex 0.101104 -0.0374954 -0.0381148
         vertex 0.105014 -0.0374954 -0.0339878
      endloop
   endfacet
   facet normal 0.762162 0 -0.647386
      outer loop
         vertex 0.105014 -0.055 -0.0339878
         vertex 0.105014 -0.0374954 -0.0339878
         vertex 0.108454 -0.0374954 -0.0294623
      endloop
   endfacet
   facet normal 0.827689 0 -0.561187
      outer loop
         vertex 0.108454 -0.055 -0.0294623
         vertex 0.108454 -0.0374954 -0.0294623
         vertex 0.111384 -0.0374954 -0.0245914
      endloop
   endfacet
   facet normal 0.883512 0 -0.468408
      outer loop
         vertex 0.111384 -0.055 -0.0245914
         vertex 0.111384 -0.0374954 -0.0245914
         vertex 0.113771 -0.0374954 -0.0194323
      endloop
   endfacet
   facet normal 0.928977 0 -0.370138
      outer loop
         vertex 0.113771 -0.055 -0.0194323
         vertex 0.113771 -0.0374954 -0.0194323
         vertex 0.115586 -0.0374954 -0.0140452
      endloop
   endfacet
   facet normal 0.96355 0 -0.267528
      outer loop
         vertex 0.115586 -0.055 -0.0140452
         vertex 0.115586 -0.0374954 -0.0140452
         vertex 0.116808 -0.0374954 -0.00849355
      endloop
   endfacet
   facet normal 0.986827 0 -0.161782
      outer loop
         vertex 0.116808 -0.055 -0.00849355
         vertex 0.116808 -0.0374954 -0.00849355
         vertex 0.117423 -0.0374954 -0.00284229
      endloop
   endfacet
   facet normal 0.998533 0 -0.0541389
      outer loop
         vertex 0.117423 -0.055 -0.00284229
         vertex 0.117423 -0.0374954 -0.00284229
         vertex 0.117423 -0.0374954 0.00284229
      endloop
   endfacet
   facet normal 0.998533 0 0.0541389
      outer loop
         vertex 0.117423 -0.055 0.00284229
         vertex 0.117423 -0.0374954 0.00284229
         vertex 0.116808 -0.0374954 0.00849355
      endloop
   endfacet
   facet normal 0.986827 0 0.161782
      outer loop
         vertex 0.116808 -0.055 0.00849355
         vertex 0.116808 -0.0374954 0.00849355
         vertex 0.115586 -0.0374954 0.0140452
      endloop
   endfacet
   facet normal 0.96355 0 0.267528
      outer loop
         vertex 0.115586 -0.055 0.0140452
         vertex 0.115586 -0.0374954 0.0140452
         vertex 0.113771 -0.0374954 0.0194323
      endloop
   endfacet
   facet normal 0.928977 0 0.370138
      outer loop
         vertex 0.113771 -0.055 0.0194323
         vertex 0.113771 -0.0374954 0.0194323
         vertex 0.111384 -0.0374954 0.0245914
      endloop
   endfacet
   facet normal 0.883512 0 0.468408
      outer loop
         vertex 0.111384 -0.055 0.0245914
         vertex 0.111384 -0.0374954 0.0245914
         vertex 0.108454 -0.0374954 0.0294623
      endloop
   endfacet
   facet normal 0.827689 0 0.561187
      outer loop
         vertex 0.108454 -0.055 0.0294623
         vertex 0.108454 -0.0374954 0.0294623
         vertex 0.105014 -0.0374954 0.0339878
      endloop
   endfacet
   facet normal 0.762162 0 0.647386
      outer loop
         vertex 0.105014 -0.055 0.0339878
         vertex 0.105014 -0.0374954 0.0339878
         vertex 0.101104 -0.0374954 0.0381148
      endloop
   endfacet
   facet normal 0.687699 0 0.725995
      outer loop
         vertex 0.101104 -0.055 0.0381148
         vertex 0.101104 -0.0374954 0.0381148
         vertex 0.0967716 -0.0374954 0.0417949
      endloop
   endfacet
   facet normal 0.605174 0 0.796093
      outer loop
         vertex 0.0967716 -0.055 0.0417949
         vertex 0.0967716 -0.0374954 0.0417949
         vertex 0.0920666 -0.0374954 0.044985
      endloop
   endfacet
   facet normal 0.515554 0 0.856857
      outer loop
         vertex 0.0920666 -0.055 0.044985
         vertex 0.0920666 -0.0374954 0.044985
         vertex 0.0870442 -0.0374954 0.0476477
      endloop
   endfacet
   facet normal 0.419889 0 0.907575
      outer loop
         vertex 0.0870442 -0.055 0.0476477
         vertex 0.0870442 -0.0374954 0.0476477
         vertex 0.0817633 -0.0374954 0.0497518
      endloop
   endfacet
   facet normal 0.319302 0 0.947653
      outer loop
         vertex 0.0817633 -0.055 0.0497518
         vertex 0.0817633 -0.0374954 0.0497518
         vertex 0.0762859 -0.0374954 0.0512726
      endloop
   endfacet
   facet normal 0.21497 0 0.976621
      outer loop
         vertex 0.0762859 -0.055 0.0512726
         vertex 0.0762859 -0.0374954 0.0512726
         vertex 0.0706762 -0.0374954 0.0521922
      endloop
   endfacet
   facet normal 0.108119 0 0.994138
      outer loop
         vertex 0.0706762 -0.055 0.0521922
         vertex 0.0706762 -0.0374954 0.0521922
         vertex 0.065 -0.0374954 0.0525
      endloop
   endfacet
   facet normal 0 1 0
      outer loop
         vertex 0.0967716 -0.0374954 -0.0417949
         vertex 0.108454 -0.0374954 -0.0294623
         vertex 0.105014 -0.0374954 -0.0339878
      endloop
   endfacet
   facet normal 0 1 0
      outer loop
         vertex 0.0967716 -0.0374954 -0.0417949
         vertex 0.113771 -0.0374954 -0.0194323
         vertex 0.111384 -0.0374954 -0.0245914
      endloop
   endfacet
   facet normal 0 1 0
      outer loop
         vertex 0.0967716 -0.0374954 -0.0417949
         vertex 0.116808 -0.0374954 -0.00849355
         vertex 0.115586 -0.0374954 -0.0140452
      endloop
   endfacet
   facet normal 0 1 0
      outer loop
         vertex 0.0967716 -0.0374954 -0.0417949
         vertex 0.113771 -0.0374954 0.0194323
         vertex 0.115586 -0.0374954 0.0140452
      endloop
   endfacet
   facet normal 0 1 0
      outer loop
         vertex 0.0967716 -0.0374954 0.0417949
         vertex 0.0967716 -0.0374954 -0.0417949
         vertex 0.0920666 -0.0374954 -0.044985
      endloop
   endfacet
   facet normal 0 1 0
      outer loop
         vertex 0.111384 -0.0374954 -0.0245914
         vertex 0.108454 -0.0374954 -0.0294623
         vertex 0.0967716 -0.0374954 -0.0417949
      endloop
   endfacet
   facet normal 0 1 0
      outer loop
         vertex 0.0967716 -0.0374954 -0.0417949
         vertex 0.117423 -0.0374954 -0.00284229
         vertex 0.116808 -0.0374954 -0.00849355
      endloop
   endfacet
   facet normal 0 1 0
      outer loop
         vertex 0.115586 -0.0374954 0.0140452
         vertex 0.116808 -0.0374954 0.00849355
         vertex 0.0967716 -0.0374954 -0.0417949
      endloop
   endfacet
   facet normal 0 1 0
      outer loop
         vertex 0.0967716 -0.0374954 -0.0417949
         vertex 0.0967716 -0.0374954 0.0417949
         vertex 0.101104 -0.0374954 0.0381148
      endloop
   endfacet
   facet normal 0 1 0
      outer loop
         vertex 0.0967716 -0.0374954 0.0417949
         vertex 0.0817633 -0.0374954 -0.0497518
         vertex 0.0762859 -0.0374954 -0.0512726
      endloop
   endfacet
   facet normal 0 1 0
      outer loop
         vertex 0.0920666 -0.0374954 -0.044985
         vertex 0.0870442 -0.0374954 -0.0476477
         vertex 0.0967716 -0.0374954 0.0417949
      endloop
   endfacet
   facet normal 0 1 0
      outer loop
         vertex 0.115586 -0.0374954 -0.0140452
         vertex 0.113771 -0.0374954 -0.0194323
         vertex 0.0967716 -0.0374954 -0.0417949
      endloop
   endfacet
   facet normal 0 1 0
      outer loop
         vertex 0.116808 -0.0374954 0.00849355
         vertex 0.117423 -0.0374954 0.00284229
         vertex 0.0967716 -0.0374954 -0.0417949
      endloop
   endfacet
   facet normal 0 1 0
      outer loop
         vertex 0.0967716 -0.0374954 -0.0417949
         vertex 0.108454 -0.0374954 0.0294623
         vertex 0.111384 -0.0374954 0.0245914
      endloop
   endfacet
   facet normal 0 1 0
      outer loop
         vertex 0.101104 -0.0374954 0.0381148
         vertex 0.105014 -0.0374954 0.0339878
         vertex 0.0967716 -0.0374954 -0.0417949
      endloop
   endfacet
   facet normal 0 1 0
      outer loop
         vertex 0.065 -0.0374954 -0.0525
         vertex 0.0762859 -0.0374954 0.0512726
         vertex 0.0817633 -0.0374954 0.0497518
      endloop
   endfacet
   facet normal 0 1 0
      outer loop
         vertex 0.0870442 -0.0374954 -0.0476477
         vertex 0.0817633 -0.0374954 -0.0497518
         vertex 0.0967716 -0.0374954 0.0417949
      endloop
   endfacet
   facet normal 0 1 0
      outer loop
         vertex 0.117423 -0.0374954 0.00284229
         vertex 0.117423 -0.0374954 -0.00284229
         vertex 0.0967716 -0.0374954 -0.0417949
      endloop
   endfacet
   facet normal 0 1 0
      outer loop
         vertex 0.105014 -0.0374954 0.0339878
         vertex 0.108454 -0.0374954 0.0294623
         vertex 0.0967716 -0.0374954 -0.0417949
      endloop
   endfacet
   facet normal 0 1 0
      outer loop
         vertex 0.065 -0.0374954 -0.0525
         vertex 0.0870442 -0.0374954 0.0476477
         vertex 0.0920666 -0.0374954 0.044985
      endloop
   endfacet
   facet normal 0 1 0
      outer loop
         vertex 0.065 -0.0374954 -0.0525
         vertex 0.0706762 -0.0374954 0.0521922
         vertex 0.0762859 -0.0374954 0.0512726
      endloop
   endfacet
   facet normal 0 1 0
      outer loop
         vertex 0.0762859 -0.0374954 -0.0512726
         vertex 0.0706762 -0.0374954 -0.0521922
         vertex 0.0967716 -0.0374954 0.0417949
      endloop
   endfacet
   facet normal 0 1 0
      outer loop
         vertex 0.111384 -0.0374954 0.0245914
         vertex 0.113771 -0.0374954 0.0194323
         vertex 0.0967716 -0.0374954 -0.0417949
      endloop
   endfacet
   facet normal 0 1 0
      outer loop
         vertex 0.0817633 -0.0374954 0.0497518
         vertex 0.0870442 -0.0374954 0.0476477
         vertex 0.065 -0.0374954 -0.0525
      endloop
   endfacet
   facet normal 0 1 0
      outer loop
         vertex 0.105014 -0.0374954 -0.0339878
         vertex 0.101104 -0.0374954 -0.0381148
         vertex 0.0967716 -0.0374954 -0.0417949
      endloop
   endfacet
   facet normal 0 1 0
      outer loop
         vertex 0.065 -0.0374954 -0.0525
         vertex 0.065 -0.0374954 0.0525
         vertex 0.0706762 -0.0374954 0.0521922
      endloop
   endfacet
   facet normal 0 1 0
      outer loop
         vertex 0.0920666 -0.0374954 0.044985
         vertex 0.0967716 -0.0374954 0.0417949
         vertex 0.065 -0.0374954 -0.0525
      endloop
   endfacet
   facet normal 0 1 0
      outer loop
         vertex 0.016 -0.0374954 0.0525
         vertex 0.065 -0.0374954 0.0525
         vertex 0.065 -0.0374954 -0.0525
      endloop
   endfacet
   facet normal 0 1 0
      outer loop
         vertex 0.065 -0.0374954 -0.0525
         vertex 0.016 -0.0374954 -0.0525
         vertex 0.016 -0.0374954 0.0525
      endloop
   endfacet
   facet normal 0 1 0
      outer loop
         vertex 0.0706762 -0.0374954 -0.0521922
         vertex 0.065 -0.0374954 -0.0525
         vertex 0.0967716 -0.0374954 0.0417949
      endloop
   endfacet
endsolid urdf_shoulder_vertical. Units = meters